<svg width="68" height="68" viewBox="0 0 68 68" fill="none" xmlns="http://www.w3.org/2000/svg">
<path d="M11.6875 10.625C11.6875 11.7522 11.2397 12.8332 10.4427 13.6302C9.64567 14.4272 8.56467 14.875 7.4375 14.875C6.31033 14.875 5.22933 14.4272 4.4323 13.6302C3.63527 12.8332 3.1875 11.7522 3.1875 10.625C3.1875 9.49783 3.63527 8.41683 4.4323 7.6198C5.22933 6.82277 6.31033 6.375 7.4375 6.375C8.56467 6.375 9.64567 6.82277 10.4427 7.6198C11.2397 8.41683 11.6875 9.49783 11.6875 10.625ZM18.0625 18.5938C18.0625 19.1573 17.8386 19.6978 17.4401 20.0964C17.0416 20.4949 16.5011 20.7188 15.9375 20.7188C15.3739 20.7188 14.8334 20.4949 14.4349 20.0964C14.0364 19.6978 13.8125 19.1573 13.8125 18.5938C13.8125 18.0302 14.0364 17.4897 14.4349 17.0911C14.8334 16.6926 15.3739 16.4688 15.9375 16.4688C16.5011 16.4688 17.0416 16.6926 17.4401 17.0911C17.8386 17.4897 18.0625 18.0302 18.0625 18.5938ZM20.7188 4.25C20.7188 5.09538 20.3829 5.90613 19.7852 6.5039C19.1874 7.10168 18.3766 7.4375 17.5312 7.4375C16.6859 7.4375 15.8751 7.10168 15.2773 6.5039C14.6796 5.90613 14.3438 5.09538 14.3438 4.25C14.3438 3.40462 14.6796 2.59387 15.2773 1.9961C15.8751 1.39832 16.6859 1.0625 17.5312 1.0625C18.3766 1.0625 19.1874 1.39832 19.7852 1.9961C20.3829 2.59387 20.7188 3.40462 20.7188 4.25Z" fill="#02711A"/>
<path fill-rule="evenodd" clip-rule="evenodd" d="M15.9375 25.5C14.2467 25.5 12.6252 26.1716 11.4297 27.3672C10.2342 28.5627 9.5625 30.1842 9.5625 31.875V38.25C9.5625 39.9408 10.2342 41.5623 11.4297 42.7578C12.6252 43.9534 14.2467 44.625 15.9375 44.625H21.5071C22.4264 44.6249 23.3347 44.4261 24.1699 44.042C25.0051 43.658 25.7473 43.0979 26.3457 42.4001L30.8125 37.1875L35.2771 42.4001C35.876 43.0984 36.6189 43.6589 37.4549 44.0429C38.2909 44.427 39.2 44.6255 40.12 44.625H45.6875C47.3783 44.625 48.9998 43.9534 50.1953 42.7578C51.3909 41.5623 52.0625 39.9408 52.0625 38.25V31.875C52.0625 30.1842 51.3909 28.5627 50.1953 27.3672C48.9998 26.1716 47.3783 25.5 45.6875 25.5H15.9375ZM15.9949 28.679C16.2089 28.6725 16.4198 28.7308 16.6001 28.8463C16.7804 28.9617 16.9216 29.129 17.0053 29.3261C17.0889 29.5231 17.111 29.7409 17.0687 29.9508C17.0265 30.1607 16.9218 30.3529 16.7684 30.5023L14.6646 32.606C14.566 32.7048 14.4488 32.7832 14.3199 32.8367C14.191 32.8902 14.0527 32.9178 13.9131 32.9179C13.7735 32.918 13.6353 32.8906 13.5062 32.8373C13.3772 32.7839 13.26 32.7057 13.1612 32.6071C12.9617 32.4078 12.8495 32.1375 12.8493 31.8556C12.8492 31.716 12.8766 31.5777 12.9299 31.4487C12.9833 31.3197 13.0615 31.2024 13.1601 31.1036L15.2639 29.0041C15.4559 28.8046 15.7182 28.688 15.9949 28.679ZM19.1909 29.2017C19.4047 29.1957 19.6154 29.2543 19.7953 29.3699C19.9753 29.4856 20.1161 29.6528 20.1995 29.8498C20.2828 30.0468 20.3048 30.2644 20.2624 30.4741C20.2201 30.6837 20.1155 30.8758 19.9622 31.025L18.9253 32.0663C18.8272 32.1677 18.71 32.2487 18.5804 32.3044C18.4507 32.36 18.3113 32.3894 18.1702 32.3906C18.0292 32.3918 17.8893 32.3649 17.7587 32.3115C17.6281 32.2581 17.5095 32.1792 17.4097 32.0794C17.3099 31.9797 17.2311 31.861 17.1776 31.7305C17.1242 31.5999 17.0973 31.46 17.0985 31.3189C17.0998 31.1778 17.1291 31.0384 17.1848 30.9088C17.2405 30.7791 17.3214 30.6619 17.4229 30.5639L18.4599 29.5226C18.6529 29.3255 18.9151 29.2112 19.1909 29.2039V29.2017Z" fill="#02711A"/>
<path fill-rule="evenodd" clip-rule="evenodd" d="M28.6875 58.4377C28.6875 63.1064 32.5189 66.9377 37.1875 66.9377H52.0625C57.9062 66.9377 62.7321 62.1565 62.6875 56.3127V15.9377H58.4375V56.3127C58.4375 59.8594 55.6091 62.6877 52.0625 62.6877H37.1875C34.816 62.6877 32.9375 60.8114 32.9375 58.4377H28.6875Z" fill="#02711A"/>
<path d="M36.125 51C36.125 52.409 35.5653 53.7602 34.569 54.7565C33.5727 55.7528 32.2215 56.3125 30.8125 56.3125C29.4035 56.3125 28.0523 55.7528 27.056 54.7565C26.0597 53.7602 25.5 52.409 25.5 51H36.125Z" fill="#02711A"/>
<path fill-rule="evenodd" clip-rule="evenodd" d="M56.3125 9.5625H64.8125V11.6875C64.8125 12.2511 64.5886 12.7916 64.1901 13.1901C63.7916 13.5886 63.2511 13.8125 62.6875 13.8125H58.4375C57.8739 13.8125 57.3334 13.5886 56.9349 13.1901C56.5364 12.7916 56.3125 12.2511 56.3125 11.6875V9.5625Z" fill="#02711A"/>
<path fill-rule="evenodd" clip-rule="evenodd" d="M26.5625 47.4365V49.5615H35.0625V47.4365H26.5625Z" fill="#02711A"/>
</svg>
