<svg width="124" height="124" viewBox="0 0 124 124" fill="none" xmlns="http://www.w3.org/2000/svg">
<path d="M26.2289 18.7454L0.484375 49.4063H43.5211L26.2531 18.7454H26.2289Z" fill="#4B6C85"/>
<path d="M26.2529 18.7454L43.5209 49.4063H43.6662L61.467 18.7454H26.2529Z" fill="#0A1951"/>
<path d="M123.516 49.4063L97.7715 18.7454L80.2129 49.4063H123.516Z" fill="#4B6C85"/>
<path d="M62.2176 18.7454H61.4668L43.666 49.4063H80.0426L62.2176 18.7454Z" fill="#254965"/>
<path d="M80.2123 49.4063L97.7709 18.7454H62.2178L80.0428 49.4063H80.2123Z" fill="#0A1951"/>
<path d="M123.516 49.4062H80.1398L62 122.644L123.516 49.4062Z" fill="#0A1951"/>
<path d="M0.484375 49.4062L61.8062 122.402L43.7148 49.4062H0.484375Z" fill="#0A1951"/>
<path d="M43.7148 49.4062L61.8062 122.402L62 122.644L80.1398 49.4062H43.7148Z" fill="#4B6C85"/>
<path d="M12.4727 28.7234C12.4727 22.9109 6.29688 16.7351 0.484375 16.7351C6.29688 16.7351 12.4727 10.5593 12.4727 4.74683C12.4727 10.5593 18.6484 16.7351 24.4609 16.7351C18.6727 16.7351 12.4727 22.9109 12.4727 28.7234Z" fill="#FFD05C"/>
<path d="M23.3953 13.4414C23.3953 10.4625 20.1984 7.26562 17.1953 7.26562C20.1984 7.26562 23.3711 4.06875 23.3711 1.08984C23.3711 4.09297 26.568 7.26562 29.5469 7.26562C26.568 7.26562 23.3953 10.4625 23.3953 13.4414Z" fill="#F2705B"/>
</svg>
