<svg width="124" height="124" viewBox="0 0 124 124" fill="none" xmlns="http://www.w3.org/2000/svg">
<g clip-path="url(#clip0_1_7384)">
<path d="M99.0553 25.8685C102.024 28.9473 101.917 33.8453 98.8173 36.7927L72.1243 62.1721C75.1726 59.3021 80.2161 59.4412 83.138 62.5698C85.8037 65.4242 85.4871 69.7793 82.6563 72.4445L79.0261 75.8624C82.5628 72.5327 88.7853 73.2531 91.264 77.9937C92.9843 81.284 92.1192 85.2467 89.3857 87.8204L85.4246 91.55C88.3558 88.7902 93.1319 88.8127 96.0923 91.6L96.1015 91.6088C99.3292 94.6478 99.3512 99.5546 96.1503 102.568L81.2499 116.597C70.7041 126.527 53.5339 126.459 42.899 116.446L30.8104 105.064C22.5066 97.2457 20.4167 85.3381 25.6254 75.5217C29.4143 68.6752 30.484 61.5704 29.099 53.8456C28.6086 51.3648 29.4363 48.831 31.3146 47.0627C35.8242 42.8168 43.5993 44.9663 45.0738 50.8667L47.4147 64.3373L88.1425 25.6327C91.2247 22.7018 96.1034 22.8072 99.0553 25.8685Z" fill="#0A1951"/>
<path d="M49.2707 20.5426L49.4125 -0.00109863L57.8908 0.0571918L57.7491 20.6009L49.2707 20.5426ZM60.7974 24.0535L74.0887 10.815L80.072 16.8215L66.7807 30.0606L60.7974 24.0535ZM26.9961 17.3806L32.9661 11.36L46.083 24.3664L40.1136 30.3871L26.9961 17.3806Z" fill="#4B6C85"/>
</g>
<defs>
<clipPath id="clip0_1_7384">
<rect width="124" height="124" fill="white"/>
</clipPath>
</defs>
</svg>
