<svg width="246" height="166" viewBox="0 0 246 166" fill="none" xmlns="http://www.w3.org/2000/svg">
<g opacity="0.5">
<path d="M59.5844 25.0795C59.5844 25.0795 141.145 21.2611 173.202 21.8975C205.259 22.5338 213.387 35.2577 212.272 61.8297C211.156 88.4016 203.836 139.95 178.011 147.587C152.185 155.224 41.7125 145.837 36.7822 141.541C31.8521 137.245 28.6645 32.7163 59.5844 25.0795Z" fill="#E4ECF9"/>
<path d="M212.325 60.3501C213.075 34.7855 204.659 22.5219 173.203 21.8975C141.146 21.2611 59.5855 25.0795 59.5855 25.0795C48.7443 27.7571 42.0963 42.3465 38.2461 60.3501H212.325Z" fill="#D1DCF8"/>
<path d="M173.287 83.806C173.287 56.8582 151.403 35.0127 124.408 35.0127C97.4123 35.0127 75.5283 56.8582 75.5283 83.806C75.5283 85.1515 75.5838 86.484 75.6908 87.802H173.124C173.231 86.484 173.287 85.1515 173.287 83.806Z" fill="#FFE9D4"/>
<path d="M160.252 85.728C160.252 85.728 154.909 80.0857 147.855 81.0607C140.801 82.0358 140.558 83.5583 138.15 83.8063C135.741 84.0544 133.829 82.9039 132.199 83.3377C130.57 83.7715 128.516 85.9637 127.028 86.1758C125.54 86.3879 123.061 85.8222 120.582 86.1758C118.102 86.5294 115.198 87.8729 115.835 88.2973C116.473 88.7216 163.085 89.3579 163.156 88.5802C163.227 87.8023 160.252 85.728 160.252 85.728Z" fill="#FFF6F0"/>
<path d="M154.592 86.92C154.592 86.92 163.629 78.8573 168.044 76.8416C172.459 74.8261 179.449 86.9216 177.749 87.256C176.049 87.5904 161.881 86.4951 159.756 86.7598C157.631 87.0246 154.592 86.92 154.592 86.92Z" fill="#53619B"/>
<path d="M132.2 87.8028C132.2 87.8028 134.75 86.9542 136.167 86.7421C137.584 86.5299 145.66 86.4593 148.564 86.3178C151.469 86.1764 157.277 85.8228 159.969 85.8228C162.661 85.8228 166.132 85.6107 168.187 85.8228C170.241 86.035 173.287 85.5399 173.641 86.035C173.996 86.5299 174.137 88.3686 173.641 88.7221C173.146 89.0756 132.2 87.8028 132.2 87.8028Z" fill="#53619B"/>
<path d="M75.6904 87.8027C77.7269 112.881 98.7598 132.6 124.407 132.6C150.055 132.6 171.088 112.881 173.124 87.8027H75.6904Z" fill="#5CBEC6"/>
<path d="M166.239 109.058C165.841 108.903 165.449 108.77 165.069 108.664C159.756 107.179 155.789 106.33 147.855 104.279C139.921 102.229 137.725 99.4 133.262 96.7128C128.799 94.0256 118.74 93.3185 112.365 92.682C107.103 92.1568 102.131 88.9184 100.554 87.8027H91.9123C91.1945 89.036 94.9949 88.7368 96.8508 91.7628C98.976 95.2278 101.172 98.7635 109.602 99.6276C118.032 100.492 123.203 108.275 130.641 111.775C138.079 115.276 142.542 110.714 144.936 113.684C146.138 115.176 149.48 119.577 152.741 123.57C158.17 119.708 162.774 114.766 166.239 109.058Z" fill="#60C6CF"/>
<path d="M132.2 108.274H127.737V133.308H132.2V108.274Z" fill="white"/>
<path d="M169.567 106.047H79.5654V110.502H169.567V106.047Z" fill="white"/>
<path d="M124.407 35.0133C151.402 35.0133 173.286 56.8588 173.286 83.8066C173.286 110.754 151.402 132.6 124.407 132.6C97.4113 132.6 75.5273 110.754 75.5273 83.8066C75.5273 56.8588 97.4113 35.0133 124.407 35.0133ZM124.407 27.6943C116.821 27.6943 109.459 29.1789 102.524 32.107C95.8299 34.9334 89.8192 38.9784 84.6593 44.1293C79.4993 49.2803 75.4473 55.2803 72.6157 61.963C69.6826 68.8855 68.1953 76.2349 68.1953 83.8067C68.1953 91.3786 69.6825 98.728 72.6157 105.65C75.4472 112.333 79.4993 118.333 84.6593 123.484C89.8192 128.635 95.8299 132.68 102.524 135.507C109.459 138.435 116.821 139.919 124.407 139.919C131.992 139.919 139.354 138.435 146.289 135.507C152.983 132.68 158.994 128.635 164.154 123.484C169.314 118.333 173.366 112.333 176.198 105.65C179.131 98.728 180.618 91.3786 180.618 83.8067C180.618 76.2349 179.131 68.8856 176.198 61.963C173.366 55.2803 169.314 49.2802 164.154 44.1293C158.994 38.9784 152.983 34.9335 146.289 32.107C139.354 29.1789 131.992 27.6943 124.407 27.6943Z" fill="#A5B6E0"/>
<path d="M124.408 32.8394C124.361 32.8394 124.313 32.8362 124.267 32.832C124.221 32.8277 124.173 32.8203 124.127 32.8108C124.036 32.7927 123.946 32.7651 123.86 32.7291C123.773 32.6941 123.69 32.6496 123.612 32.5976C123.573 32.5721 123.535 32.5436 123.498 32.5149C123.462 32.4851 123.427 32.4533 123.393 32.4193C123.36 32.3866 123.329 32.3515 123.299 32.3154C123.269 32.2793 123.241 32.2412 123.216 32.202C123.164 32.1245 123.119 32.0418 123.083 31.9548C123.048 31.8689 123.02 31.7788 123.001 31.6875C122.993 31.6409 122.985 31.5942 122.981 31.5475C122.976 31.5009 122.974 31.4542 122.974 31.4075C122.974 31.0299 123.127 30.6607 123.393 30.3945C123.427 30.3616 123.462 30.3298 123.498 30.3001C123.535 30.2704 123.573 30.2428 123.612 30.2162C123.69 30.1654 123.773 30.1208 123.86 30.0847C123.946 30.0486 124.036 30.0222 124.127 30.0031C124.173 29.9936 124.221 29.9872 124.267 29.9819C124.36 29.9735 124.456 29.9735 124.549 29.9819C124.595 29.9872 124.643 29.9936 124.689 30.0031C124.78 30.0222 124.87 30.0487 124.956 30.0847C125.043 30.1208 125.126 30.1654 125.204 30.2162C125.243 30.2428 125.281 30.2704 125.318 30.3001C125.354 30.3297 125.389 30.3616 125.423 30.3945C125.689 30.6607 125.843 31.0299 125.843 31.4075C125.843 31.4542 125.84 31.5009 125.835 31.5475C125.831 31.5942 125.823 31.6409 125.815 31.6875C125.796 31.7788 125.768 31.8689 125.733 31.9548C125.697 32.0419 125.652 32.1245 125.6 32.202C125.575 32.2413 125.547 32.2794 125.517 32.3154C125.488 32.3515 125.456 32.3866 125.423 32.4193C125.389 32.4533 125.354 32.4851 125.318 32.5149C125.281 32.5436 125.243 32.5721 125.204 32.5976C125.126 32.6496 125.043 32.6941 124.956 32.7291C124.87 32.7652 124.78 32.7928 124.689 32.8108C124.643 32.8203 124.596 32.8277 124.549 32.832C124.503 32.8362 124.455 32.8394 124.408 32.8394ZM123.012 136.208C123.011 135.417 123.653 134.775 124.445 134.775C125.237 134.774 125.88 135.415 125.881 136.206C125.881 136.996 125.24 137.638 124.447 137.639C123.655 137.639 123.013 136.998 123.012 136.208ZM97.4808 130.458C96.7955 130.062 96.5606 129.186 96.9559 128.502C97.3523 127.817 98.23 127.582 98.9164 127.978C99.6018 128.373 99.8366 129.249 99.4414 129.934C99.1757 130.393 98.6933 130.65 98.1971 130.65C97.9538 130.65 97.7072 130.588 97.4808 130.458ZM149.441 129.899C149.043 129.214 149.277 128.337 149.962 127.941C150.649 127.545 151.527 127.778 151.923 128.463C152.32 129.147 152.087 130.023 151.401 130.42C151.175 130.55 150.927 130.613 150.683 130.613C150.189 130.613 149.706 130.357 149.441 129.899ZM77.7272 110.777C77.3299 110.093 77.5635 109.217 78.249 108.82C78.9344 108.423 79.8121 108.656 80.2095 109.34C80.6069 110.024 80.3732 110.9 79.6877 111.297C79.4614 111.428 79.2138 111.491 78.9695 111.491C78.4753 111.491 77.994 111.234 77.7272 110.777ZM169.168 111.233C168.481 110.838 168.246 109.961 168.643 109.277C169.039 108.593 169.917 108.359 170.603 108.754C171.289 109.15 171.523 110.026 171.127 110.71C170.861 111.17 170.379 111.426 169.884 111.426C169.641 111.426 169.393 111.364 169.168 111.233ZM70.4814 83.874C70.4804 83.0837 71.1221 82.4421 71.9138 82.441C72.7065 82.44 73.3495 83.0795 73.3505 83.8708C73.3515 84.6621 72.7097 85.3038 71.918 85.3049C71.1253 85.306 70.4825 84.6653 70.4814 83.874ZM175.466 83.7965C175.466 83.0053 176.108 82.3646 176.9 82.3646C177.692 82.3646 178.335 83.0053 178.335 83.7965C178.335 84.5867 177.693 85.2274 176.9 85.2286C176.109 85.2286 175.466 84.5879 175.466 83.7965ZM78.1873 58.9066C77.502 58.5109 77.266 57.6348 77.6613 56.9507C78.0578 56.2654 78.9344 56.03 79.6208 56.4256C80.3072 56.8202 80.5431 57.6964 80.1467 58.3816C79.881 58.8409 79.3987 59.0976 78.9025 59.0976C78.6592 59.0976 78.4137 59.0361 78.1873 58.9066ZM168.632 58.3169V58.3158C168.235 57.6317 168.468 56.7555 169.155 56.3599C169.84 55.9642 170.718 56.1976 171.114 56.8817C171.512 57.5658 171.277 58.4421 170.592 58.8388C170.365 58.9692 170.119 59.0319 169.874 59.0319C169.379 59.0318 168.898 58.7751 168.632 58.3169ZM96.8497 39.1783C96.4512 38.4941 96.685 37.6179 97.3693 37.2202C98.0547 36.8235 98.9324 37.0558 99.3309 37.7399C99.7283 38.4241 99.4955 39.3003 98.8101 39.697V39.698C98.5837 39.8285 98.3362 39.8911 98.0918 39.8911C97.5967 39.8911 97.1154 39.6355 96.8497 39.1783ZM149.939 39.6587C149.254 39.262 149.019 38.387 149.415 37.7018C149.811 37.0176 150.69 36.7843 151.376 37.1799C152.061 37.5756 152.296 38.4518 151.898 39.1359C151.633 39.5952 151.151 39.8519 150.656 39.8519C150.412 39.8518 150.165 39.7892 149.939 39.6587Z" fill="#50456D"/>
<path d="M124.407 32.8394C124.36 32.8394 124.313 32.8362 124.266 32.832C124.22 32.8277 124.172 32.8203 124.127 32.8108C124.035 32.7927 123.945 32.7651 123.859 32.7291C123.772 32.6941 123.689 32.6496 123.611 32.5976C123.572 32.5721 123.534 32.5436 123.498 32.5149C123.461 32.4851 123.426 32.4533 123.392 32.4193C123.359 32.3866 123.328 32.3515 123.298 32.3154C123.268 32.2793 123.24 32.2412 123.215 32.202C123.163 32.1245 123.118 32.0418 123.082 31.9548C123.047 31.8689 123.019 31.7788 123 31.6875C122.992 31.6409 122.984 31.5942 122.98 31.5475C122.975 31.5009 122.973 31.4542 122.973 31.4075C122.973 31.0299 123.126 30.6607 123.392 30.3945C123.426 30.3616 123.461 30.3298 123.498 30.3001C123.534 30.2704 123.572 30.2428 123.611 30.2162C123.689 30.1654 123.772 30.1208 123.859 30.0847C123.945 30.0486 124.035 30.0222 124.127 30.0031C124.172 29.9936 124.22 29.9872 124.266 29.9819C124.359 29.9735 124.455 29.9735 124.548 29.9819C124.594 29.9872 124.642 29.9936 124.688 30.0031C124.779 30.0222 124.869 30.0487 124.955 30.0847C125.043 30.1208 125.125 30.1654 125.203 30.2162C125.242 30.2428 125.28 30.2704 125.317 30.3001C125.353 30.3297 125.388 30.3616 125.422 30.3945C125.689 30.6607 125.842 31.0299 125.842 31.4075C125.842 31.4542 125.839 31.5009 125.834 31.5475C125.83 31.5942 125.822 31.6409 125.814 31.6875C125.795 31.7788 125.767 31.8689 125.732 31.9548C125.696 32.0419 125.651 32.1245 125.599 32.202C125.574 32.2413 125.546 32.2794 125.516 32.3154C125.487 32.3515 125.455 32.3866 125.422 32.4193C125.388 32.4533 125.353 32.4851 125.317 32.5149C125.28 32.5436 125.242 32.5721 125.203 32.5976C125.125 32.6496 125.042 32.6941 124.955 32.7291C124.869 32.7652 124.779 32.7928 124.688 32.8108C124.642 32.8203 124.595 32.8277 124.548 32.832C124.502 32.8362 124.454 32.8394 124.407 32.8394Z" fill="#50456D"/>
<path d="M152.265 79.5602C152.041 78.5701 151.604 77.7814 151.225 77.2429C151.251 77.268 151.277 77.2934 151.303 77.3191C151.368 77.3821 151.432 77.4464 151.496 77.5112C151.571 77.5872 151.704 77.574 151.774 77.6492C151.823 77.7022 151.739 77.7952 151.856 77.8955C151.903 77.936 152.044 77.8581 152.08 77.9021C152.13 77.9621 152.065 78.1485 152.103 78.2013C152.144 78.2604 152.178 78.3141 152.201 78.361C152.222 78.4025 152.349 78.3701 152.38 78.4073C152.444 78.4858 152.427 78.6259 152.518 78.6799C152.864 78.8841 153.316 78.8856 153.212 78.4805C153.174 78.3293 153.074 78.2352 152.996 78.0871C152.948 77.9951 152.932 77.8473 152.871 77.7586C152.819 77.6815 152.698 77.6406 152.639 77.567C152.597 77.5145 152.618 77.4281 152.573 77.3779C152.379 77.1599 152.162 76.965 151.95 76.8082C151.757 76.6655 151.568 76.5545 151.403 76.4866C151.127 76.373 150.917 76.3299 150.769 76.317C150.835 76.1352 150.752 75.792 150.62 75.5856C150.279 75.056 149.489 74.8909 149.043 74.9998C148.723 75.0776 148.767 75.2678 148.995 75.4387C149.086 75.5064 149.365 75.4989 149.365 75.4989C149.365 75.4989 149.474 75.6813 149.54 75.7172C149.616 75.7591 149.693 75.8069 149.767 75.8571C149.773 75.861 149.778 75.8648 149.784 75.8687C149.193 75.7512 148.049 75.7994 147.59 76.3376C147.064 76.9542 147 77.3309 147.367 77.6341C147.497 77.741 147.706 77.5878 147.959 77.3494C148.016 77.296 148.07 77.0793 148.07 77.0793C148.07 77.0793 148.273 77.0406 148.346 76.97C148.402 76.915 148.448 76.6843 148.448 76.6843C148.448 76.6843 148.661 76.6752 148.734 76.6152C149.013 76.3861 149.301 76.2203 149.57 76.2544C149.665 76.2665 149.748 76.2832 149.821 76.3024C149.63 76.368 149.408 76.4911 149.178 76.6978C149.116 76.7534 149.054 76.8149 148.992 76.8831C148.941 76.9384 148.89 76.9979 148.84 77.062C148.791 77.1249 148.744 77.1909 148.701 77.259C148.659 77.3272 148.619 77.3976 148.583 77.4695C148.535 77.5659 148.493 77.665 148.457 77.7645C148.428 77.844 148.404 77.924 148.383 78.0032C148.362 78.086 148.346 78.1681 148.334 78.2484C148.318 78.3576 148.31 78.4633 148.312 78.5629C148.317 78.8807 148.414 79.1349 148.613 79.2318C148.768 79.3069 148.902 79.1566 149.024 78.904C149.05 78.8492 149.031 78.6936 149.031 78.6936C149.031 78.6936 149.156 78.5866 149.182 78.5123C149.201 78.46 149.162 78.3158 149.162 78.3158C149.162 78.3158 149.3 78.159 149.332 78.062C149.357 77.9818 149.291 77.7908 149.291 77.7908C149.291 77.7908 149.458 77.6738 149.482 77.6029C149.5 77.5521 149.518 77.5033 149.536 77.457C149.601 77.2876 149.667 77.152 149.735 77.0794C149.973 76.825 150.153 76.6847 150.274 76.5944C150.171 76.8478 149.927 77.4863 149.804 78.1275C149.794 78.1785 149.875 78.3055 149.875 78.3055L149.75 78.4715C149.75 78.4715 149.729 78.7181 149.73 78.8345C149.731 79.0083 149.841 79.3088 149.841 79.3088C149.841 79.3088 149.758 79.5363 149.771 79.6135C149.779 79.6662 149.883 79.7956 149.883 79.7956C149.883 79.7956 149.828 79.9472 149.85 80.0186C149.93 80.2817 150.058 80.4292 150.254 80.435C150.403 80.4394 150.488 80.1962 150.54 79.8559C150.546 79.8201 150.551 79.7833 150.556 79.7457C150.564 79.6791 150.572 79.6098 150.579 79.5385C150.598 79.3385 150.611 79.1242 150.622 78.9167C150.626 78.8385 150.63 78.7612 150.634 78.6861C150.648 78.4201 150.662 78.1807 150.687 78.0187C150.725 77.776 150.73 77.4559 150.715 77.1579C150.988 77.7928 151.385 78.8332 151.618 79.9808C151.812 80.9301 151.48 87.1545 151.48 87.1545C151.48 87.1545 152.419 86.9375 152.638 87.0705C153.132 87.3699 152.546 80.8073 152.265 79.5602Z" fill="#53619B"/>
<path d="M161.356 80.1616C161.112 79.2849 159.629 78.8318 159.22 78.8936C158.811 78.9556 158.102 79.377 158.102 79.377C158.102 79.377 158.075 79.39 158.044 79.4149C157.95 79.1795 157.734 78.8021 157.283 78.628C156.361 78.2726 155.978 78.6623 155.763 79.0111C155.594 79.2865 155.516 79.7793 155.647 79.9627C155.284 80.2462 154.975 80.6183 154.936 81.0319C154.889 81.5375 155.249 81.3272 155.629 81.0198C155.652 81.0009 155.647 80.9086 155.671 80.8891C155.71 80.8563 155.778 80.8959 155.817 80.8625C155.851 80.8325 155.886 80.8025 155.92 80.773C155.963 80.7358 155.923 80.6606 155.963 80.626C155.997 80.5971 156.111 80.6082 156.142 80.5825C156.24 80.5001 156.323 80.4375 156.376 80.4142C156.455 80.38 156.61 80.3476 156.799 80.3149C156.874 80.3018 156.899 80.1299 156.982 80.1165C157.036 80.1077 157.146 80.2578 157.201 80.2488C157.337 80.2267 157.475 80.2038 157.602 80.1795C156.965 80.6355 155.293 81.9257 154.236 83.5903C153.013 85.5164 152.574 86.7914 152.574 86.7914L153.596 87.0304C153.596 87.0304 154.204 85.074 154.724 84.076C155.708 82.1889 157.501 80.5853 157.894 80.2474C157.935 80.4841 158.002 80.7539 158.07 80.9715C158.08 81.0027 158.151 81.008 158.151 81.008C158.151 81.008 158.106 81.0799 158.109 81.0889C158.144 81.1894 158.138 81.3519 158.115 81.5439C158.111 81.5834 158.166 81.6705 158.166 81.6705C158.166 81.6705 158.086 81.7578 158.078 81.805C158.058 81.9371 158.035 82.0752 158.016 82.2115C158.01 82.2525 158.095 82.3405 158.095 82.3405C158.095 82.3405 157.985 82.4527 157.98 82.5102C157.944 82.9457 157.998 83.2936 158.371 83.2515C158.812 83.2017 158.999 82.7663 159.055 82.2778C159.059 82.2365 158.976 82.1567 158.976 82.1567C158.976 82.1567 159.071 82.073 159.072 82.033C159.083 81.6883 159.04 81.3446 158.985 81.1127C158.937 80.9105 158.829 80.6938 158.706 80.4933C158.862 80.614 159.02 80.7244 159.155 80.8103C159.184 80.8287 159.242 80.7688 159.242 80.7688C159.242 80.7688 159.266 80.8784 159.279 80.8861C159.318 80.9089 159.353 80.9283 159.384 80.9441C159.484 80.9952 159.571 81.1224 159.653 81.2833C159.67 81.3169 159.789 81.2447 159.789 81.2447C159.789 81.2447 159.738 81.4637 159.755 81.5028C159.793 81.5929 159.831 81.6868 159.87 81.7795C159.889 81.8275 160.045 81.7283 160.045 81.7283C160.045 81.7283 159.982 82.043 160.009 82.099C160.123 82.3334 160.244 82.5058 160.394 82.4953C160.808 82.4661 161.165 81.4669 160.602 80.8022C160.243 80.3786 159.293 80.0071 158.651 79.7932C158.853 79.7938 159.071 79.7883 159.268 79.7856C159.312 79.785 159.407 79.7127 159.407 79.7127C159.407 79.7127 159.458 79.7842 159.487 79.7844C159.637 79.7853 159.76 79.7911 159.829 79.8076C159.903 79.8252 160.037 79.9002 160.197 79.9945C160.226 80.0118 160.3 79.9413 160.3 79.9413C160.3 79.9413 160.334 80.0755 160.357 80.0895C160.446 80.1428 160.54 80.1978 160.632 80.2495C160.649 80.2593 160.725 80.1962 160.725 80.1962C160.725 80.1962 160.747 80.3126 160.778 80.3285C161.163 80.5269 161.481 80.6102 161.356 80.1616ZM156.814 79.4074C156.677 79.4111 156.433 79.4915 156.166 79.6303C156.224 79.5252 156.281 79.4182 156.346 79.3343C156.355 79.3229 156.32 79.2568 156.32 79.2568C156.32 79.2568 156.397 79.2754 156.409 79.2637C156.423 79.2502 156.437 79.238 156.452 79.2273C156.46 79.2221 156.46 79.1585 156.46 79.1585C156.46 79.1585 156.508 79.1944 156.526 79.1883C156.546 79.1816 156.566 79.1775 156.587 79.1763C156.652 79.1729 156.72 79.1822 156.791 79.2002C156.814 79.2062 156.878 79.1668 156.878 79.1668C156.878 79.1668 156.913 79.2389 156.939 79.249C156.981 79.2654 157.023 79.2839 157.065 79.3038C157.086 79.3138 157.159 79.2511 157.159 79.2511C157.159 79.2511 157.166 79.3543 157.185 79.3643C157.274 79.4118 157.361 79.4622 157.442 79.5087C157.225 79.4511 156.988 79.4027 156.814 79.4074ZM146.043 77.3205C145.602 76.8102 144.202 76.5078 143.826 76.5941C143.521 76.6642 143.212 76.7848 142.992 76.8812C143.062 76.6858 143.191 76.2473 143.012 76.1249C142.784 75.9683 142.451 76.0068 142.184 76.169C141.917 76.3311 141.511 76.6227 141.461 76.7536C141.412 76.8844 141.684 76.9829 141.699 76.9844C141.715 76.9859 141.929 76.8747 141.918 76.9188C141.907 76.963 141.708 77.0195 141.795 77.0877C141.816 77.1048 141.851 77.1281 141.892 77.1534C141.436 77.2342 140.876 77.4233 140.473 77.7582C139.721 78.3828 140.582 79.3952 140.845 79.3939C141.109 79.3926 141.252 78.8689 141.172 78.8319C141.092 78.7948 140.946 78.6693 141.05 78.6685C141.154 78.6676 141.213 78.7405 141.23 78.7165C141.247 78.6925 141.237 78.2749 141.298 78.2478C141.358 78.2207 141.513 78.2403 141.457 78.1269C141.401 78.0136 141.329 77.8684 141.434 77.9264C141.54 77.9843 141.558 78.1388 141.654 78.1224C141.676 78.1186 141.75 78.0731 141.849 78.0033C141.811 78.2272 141.797 78.49 141.797 78.6937C141.579 79.1992 141.315 79.8936 141.062 80.7701C140.477 82.7899 140.581 86.3886 140.647 86.5252C140.712 86.6617 141.451 86.6464 141.677 86.4677C141.793 86.3755 141.567 84.2141 141.64 82.8407C141.688 81.9408 141.795 81.0242 141.922 80.243C141.924 80.2572 141.924 80.2651 141.924 80.2651C141.924 80.2651 142.139 80.1877 142.187 80.1923C142.234 80.1969 142.042 80.3964 142.048 80.4492C142.054 80.502 142.492 81.4316 142.729 81.4693C142.965 81.5069 143.049 80.3512 143.013 80.2139C142.976 80.0766 142.804 80.0342 142.761 79.9677C142.718 79.9012 142.931 79.9366 142.966 79.918C143.001 79.8994 142.97 79.297 142.95 79.2034C142.929 79.1098 142.76 79.0585 142.737 78.9739C142.714 78.8891 142.757 78.9557 142.9 78.887C142.906 78.8838 142.912 78.8773 142.916 78.8679C142.998 78.8895 143.054 78.7771 143.079 78.8046C143.108 78.8366 143.034 78.9813 143.005 79.1129C142.975 79.2445 143.181 79.4287 143.21 79.4606C143.239 79.4925 143.388 79.4116 143.409 79.4404C143.43 79.4693 143.287 79.573 143.288 79.7169C143.29 79.8608 143.419 80.1271 143.551 80.2102C143.683 80.2934 143.829 80.0752 143.983 79.4709C144.012 79.3577 144.017 79.2287 144.005 79.0925C144.142 79.2533 144.343 79.4386 144.496 79.4821C144.743 79.5519 144.656 79.3071 144.712 79.285C144.767 79.2629 144.663 79.5423 144.7 79.6119C144.737 79.6815 145.723 80.2668 145.86 80.0895C145.996 79.9121 145.445 79.0356 145.32 78.9458C145.194 78.8559 144.987 78.6685 145.022 78.6499C145.056 78.6313 145.089 78.3662 144.64 78.0482C144.361 77.851 143.939 77.6248 143.583 77.4462C143.79 77.5037 143.944 77.5831 143.944 77.5831C143.944 77.5831 144.401 77.7761 144.562 77.7511C144.723 77.7261 144.603 77.3912 144.656 77.3902C144.709 77.3892 144.817 77.7188 144.916 77.8269C145.015 77.9351 145.354 77.8994 145.407 77.8984C145.46 77.8974 145.429 77.5682 145.473 77.571C145.517 77.5738 145.575 77.9136 145.71 78.0063C145.846 78.099 146.2 78.1749 146.384 78.1293C146.569 78.0839 146.484 77.8308 146.043 77.3205Z" fill="#53619B"/>
<path d="M149.258 84.0248C149.264 83.4506 148.539 82.4709 148.25 82.315C148.015 82.1882 147.749 82.0919 147.554 82.0299C147.709 81.9443 148.038 81.7359 147.993 81.5574C147.935 81.3289 147.701 81.1664 147.438 81.1204C147.176 81.0743 146.752 81.0324 146.646 81.0883C146.541 81.1441 146.659 81.36 146.668 81.3699C146.678 81.3797 146.878 81.429 146.845 81.4509C146.813 81.4729 146.654 81.3973 146.671 81.4895C146.675 81.5126 146.684 81.5469 146.697 81.5864C146.359 81.382 145.894 81.1879 145.447 81.1759C144.614 81.1535 144.594 82.285 144.764 82.4321C144.933 82.5792 145.319 82.3244 145.289 82.2559C145.259 82.1874 145.236 82.0247 145.303 82.0826C145.37 82.1406 145.367 82.2203 145.391 82.2145C145.416 82.2087 145.645 81.9362 145.699 81.9527C145.753 81.9692 145.841 82.0687 145.869 81.9649C145.897 81.8611 145.933 81.7273 145.968 81.8238C146.003 81.9202 145.927 82.0292 145.998 82.0726C146.014 82.0827 146.087 82.0951 146.19 82.1061C146.039 82.2277 145.882 82.3883 145.767 82.5184C145.343 82.7198 144.783 83.0159 144.126 83.4342C142.613 84.3981 140.651 86.7595 140.616 86.8837C140.581 87.0079 141.063 87.4132 141.308 87.4256C141.434 87.432 142.508 85.9216 143.329 85.0839C143.867 84.535 144.452 84.0088 144.974 83.5802C144.967 83.5901 144.963 83.5957 144.963 83.5957C144.963 83.5957 145.144 83.6669 145.172 83.6964C145.199 83.7259 144.964 83.7457 144.938 83.7828C144.912 83.8199 144.668 84.6608 144.799 84.818C144.929 84.9752 145.634 84.2824 145.688 84.1743C145.742 84.0661 145.656 83.9423 145.666 83.8755C145.676 83.8087 145.793 83.9512 145.825 83.9588C145.858 83.9665 146.178 83.5636 146.218 83.4923C146.257 83.4209 146.178 83.293 146.211 83.2259C146.244 83.1589 146.234 83.2256 146.364 83.2618C146.37 83.2635 146.377 83.2624 146.385 83.2588C146.425 83.3185 146.525 83.278 146.525 83.3097C146.525 83.3464 146.397 83.3977 146.304 83.4654C146.211 83.533 146.239 83.7666 146.239 83.8032C146.24 83.8399 146.381 83.8718 146.378 83.9022C146.375 83.9326 146.225 83.9184 146.145 84.0112C146.065 84.1041 145.997 84.3472 146.035 84.4745C146.072 84.6018 146.289 84.5445 146.728 84.2441C146.81 84.1878 146.886 84.1082 146.956 84.0145C146.953 84.1943 146.976 84.4255 147.05 84.5395C147.168 84.7226 147.251 84.5176 147.299 84.5345C147.347 84.5514 147.123 84.6716 147.107 84.7371C147.092 84.8026 147.393 85.7309 147.58 85.6942C147.768 85.6575 147.909 84.7867 147.879 84.6589C147.85 84.5311 147.823 84.2944 147.856 84.3021C147.888 84.3098 148.059 84.1586 147.95 83.7025C147.883 83.4197 147.741 83.038 147.614 82.7238C147.714 82.8766 147.767 83.0141 147.767 83.0141C147.767 83.0141 147.951 83.3943 148.068 83.4688C148.185 83.5432 148.297 83.2615 148.332 83.2908C148.366 83.3201 148.249 83.5912 148.252 83.7161C148.254 83.841 148.491 84.0086 148.526 84.0379C148.561 84.0672 148.726 83.8386 148.752 83.8652C148.779 83.8918 148.624 84.1416 148.659 84.2772C148.694 84.4128 148.877 84.6602 149.021 84.7346C149.165 84.809 149.253 84.599 149.258 84.0248Z" fill="#53619B"/>
<path d="M88.1377 69.5583H132.2C132.2 69.5583 127.95 67.5076 125.116 67.3662C122.282 67.2248 120.441 64.679 117.394 64.7497C114.348 64.8205 109.956 67.6491 108.469 67.7905C106.981 67.9319 103.793 67.2248 102.447 67.7197C101.101 68.2147 97.6302 68.144 96.7093 68.2147C95.7884 68.2854 89.7671 66.4469 88.1377 69.5583Z" fill="white"/>
<path d="M163.158 64.3607H136.627C136.627 64.3607 136.786 62.9288 138.486 62.7166C140.187 62.5045 140.984 63.4061 142.152 62.7166C143.321 62.0272 144.515 57.9434 149.258 57.9434C154 57.9434 154.666 61.868 156.166 61.8149C157.666 61.7619 157.826 61.1785 159.366 61.9211C160.907 62.6635 163.017 62.2923 163.158 64.3607Z" fill="#FFF6F0"/>
<path d="M128.355 87.8027C131.268 88.7687 136.202 90.485 139.452 92.0457C144.313 94.3793 149.131 93.2479 154.089 94.1671C159.048 95.0864 158.552 95.0158 167.691 95.1572C169.049 95.1782 170.491 95.1583 171.968 95.1064C172.531 92.7341 172.922 90.295 173.124 87.8028L128.355 87.8027Z" fill="#61CFD1"/>
<mask id="mask0_32_2054" style="mask-type:luminance" maskUnits="userSpaceOnUse" x="33" y="21" width="180" height="130">
<path d="M59.5844 25.0795C59.5844 25.0795 141.145 21.2611 173.202 21.8975C205.259 22.5338 213.387 35.2577 212.272 61.8297C211.156 88.4016 203.836 139.95 178.011 147.587C152.185 155.224 41.7125 145.837 36.7822 141.541C31.8521 137.245 28.6645 32.7163 59.5844 25.0795Z" fill="white"/>
</mask>
<g mask="url(#mask0_32_2054)">
<path d="M40.0838 115.621C40.0838 115.621 46.6498 81.8997 54.2888 80.3586C65.3928 78.1184 59.9736 120.136 54.9263 124.538C49.879 128.94 39.2557 122.657 40.0838 115.621Z" fill="#FFC8AF"/>
<path d="M104.286 68.6713C104.286 68.6713 104.576 69.1951 104.788 69.4602C105.187 69.9583 105.61 70.1054 105.34 70.5541C104.923 71.2453 104.108 71.3354 103.993 71.1801C103.878 71.0248 104.286 68.6713 104.286 68.6713ZM88.3857 83.1632L95.4313 68.3015L99.9804 69.8336L96.4037 85.4053C96.4037 85.4053 89.9788 84.8058 88.3857 83.1632Z" fill="#FFC8AF"/>
<path d="M44.7131 103.876C37.3906 116.245 38.5702 126.207 45.9514 130.173C56.3205 135.744 60.5197 128.473 62.7299 126.028C63.2378 125.466 64.2373 122.671 65.4752 118.7C51.8593 116.336 45.9494 106.286 44.7131 103.876Z" fill="#FFC8AF"/>
<path d="M52.1945 93.7973C49.0978 97.2778 46.6188 100.658 44.7139 103.876C45.9502 106.287 51.8601 116.337 65.476 118.7C69.6253 105.392 76.4562 78.8664 76.4562 78.8664C76.4562 78.8664 67.1943 76.9383 52.1945 93.7973Z" fill="#FE4C40"/>
<path d="M96.4048 63.8933L93.8728 68.5901C92.9374 70.7475 93.3358 73.2758 95.2089 74.7004C96.9367 76.0145 98.0773 76.8363 100.415 76.955C102.363 77.0539 103.659 75.3952 104.092 72.8988C104.653 69.6602 104.248 66.518 103.937 64.849C103.604 63.0622 102.469 61.8745 101.103 61.5248C99.5591 61.1299 99.7255 63.364 96.4048 63.8933Z" fill="#FFC8AF"/>
<path d="M104.305 71.1961C104.305 71.1961 104.453 71.3514 104.279 71.6422L104.078 72.9739C104.078 72.9739 104.729 74.3329 104.895 75.3539C105.061 76.3748 104.835 77.5947 103.414 77.8134C101.992 78.0322 100.06 77.6544 99.1234 77.1372C98.187 76.62 98.1272 75.0024 98.3597 73.8357C98.5921 72.6689 99.1721 72.1379 99.4134 71.1662C99.6548 70.1947 99.1735 69.1979 99.4856 69.0454C99.7977 68.8929 100.354 68.4593 100.453 68.6713C100.553 68.8835 101.063 71.0198 101.243 71.2452C101.422 71.4706 102.559 70.8372 104.305 71.1961Z" fill="#CE4949"/>
<path d="M104.279 71.642C104.032 71.6856 103.031 71.8336 102.61 71.6277C102.61 71.6277 103.148 73.6348 104.078 72.9736C104.198 72.8882 104.316 71.6354 104.279 71.642Z" fill="white"/>
<path d="M99.9801 66.7411C99.9801 66.7411 100.687 69.4445 100.556 69.6469C100.426 69.8493 100.005 70.0951 99.6962 69.9264C99.3873 69.7576 98.2901 68.2075 98.662 67.7098C99.0339 67.212 98.7425 65.8053 99.9801 66.7411ZM103.148 66.5093C103.148 66.5093 104.236 65.8847 104.305 66.0215C104.374 66.1583 104.474 66.298 104.357 66.3716C104.24 66.4453 103.474 66.9511 103.319 66.8302C103.164 66.7092 103.148 66.5093 103.148 66.5093Z" fill="#CE4949"/>
<path d="M104.124 68.3533C104.109 68.5726 103.987 68.7431 103.85 68.7341C103.714 68.725 103.616 68.5398 103.63 68.3204C103.645 68.101 103.767 67.9306 103.904 67.9395C104.04 67.9485 104.138 68.1339 104.124 68.3533Z" fill="#393351"/>
<path d="M115.08 92.2345C113.45 89.75 100.24 81.3622 92.9806 78.982C84.141 76.0838 68.6413 77.3137 63.797 85.1945C55.953 97.9554 36.3841 158.167 35.71 170.093C45.3227 172.123 80.5017 187.739 103.019 179.422C102.823 168.514 105.538 150.592 110.002 134.373C114.771 117.044 121.135 101.466 115.08 92.2345Z" fill="#FE4C40"/>
<path d="M99.9811 67.3653C99.9811 67.3653 100.406 65.2438 101.349 64.7797C102.292 64.3156 104.125 63.4936 104.523 62.8969C104.922 62.3002 103.939 58.7601 102.106 57.991C100.273 57.222 96.7267 57.9645 95.2656 59.8472C93.8046 61.7301 90.2714 63.3211 90.1254 63.9045C89.9793 64.4879 90.1254 64.6205 90.1254 64.6205C90.1254 64.6205 89.5276 65.2702 89.7136 65.8669C89.8996 66.4636 91.8787 72.4323 91.8521 73.1074C91.8256 73.7825 91.095 75.6255 92.2506 75.7846C93.4061 75.9437 96.2353 72.7218 97.3908 71.3959C98.5464 70.07 99.4898 69.3144 99.9811 67.3653Z" fill="#CE4949"/>
<path d="M97.9209 66.9587C96.1144 67.7095 98.1159 72.0502 99.2648 71.627C100.068 71.3313 99.6884 66.2241 97.9209 66.9587Z" fill="#FFC8AF"/>
<path d="M57.7428 86.2233C57.7428 86.2233 58.4439 84.8232 59.3894 81.9417C60.3349 79.0603 63.2642 74.302 62.1571 73.5409C61.0499 72.7798 59.3898 76.7847 58.6304 77.0376C57.871 77.2906 57.5577 67.4888 56.3389 67.3729C55.12 67.2569 55.334 71.627 55.334 71.627C55.334 71.627 54.8233 68.144 54.0462 67.6937C53.2691 67.2434 52.9156 69.198 52.9156 69.198C52.9156 69.198 51.5687 68.7423 51.2447 69.4422C50.9206 70.1421 51.2789 73.0713 51.2789 73.0713C51.2789 73.0713 49.5927 71.7559 49.4687 73.3357C49.3448 74.9156 51.2188 85.632 52.7347 86.0915C54.2505 86.5512 57.7428 86.2233 57.7428 86.2233Z" fill="#FFC8AF"/>
<path d="M168.598 102.239C168.598 102.239 169.034 100.735 170.297 97.9778C171.561 95.2203 172.642 89.7406 173.972 89.9311C175.303 90.1216 173.801 94.1884 174.188 94.8885C174.574 95.5885 181.464 88.5987 182.439 89.3389C183.413 90.0791 180.286 93.1452 180.286 93.1452C180.286 93.1452 183.028 90.9317 183.905 91.1271C184.782 91.3225 183.714 92.998 183.714 92.998C183.714 92.998 185.013 93.5752 184.776 94.3089C184.538 95.0426 182.284 96.9522 182.284 96.9522C182.284 96.9522 184.417 97.1275 183.435 98.3722C182.452 99.617 173.793 106.222 172.367 105.533C170.941 104.844 168.598 102.239 168.598 102.239Z" fill="#FFC8AF"/>
<path d="M173.087 99.7879C167.986 97.1007 139.972 116.299 139.972 116.299L139.022 115.416C137.286 120.025 133.012 129.019 124.92 133.364C128.786 136.032 133.072 138.094 137.481 139.063C152.453 142.353 169.06 113.84 173.762 105.728C174.853 103.845 175.406 101.01 173.087 99.7879Z" fill="#FFC8AF"/>
<path d="M139.669 115.416L113.753 91.946C113.753 91.946 105.322 99.4288 108.953 113.203C110.645 119.622 116.869 129.292 124.921 134.848C133.984 130.797 137.933 120.026 139.669 115.416Z" fill="#FE4C40"/>
<mask id="mask1_32_2054" style="mask-type:luminance" maskUnits="userSpaceOnUse" x="108" y="91" width="32" height="44">
<path d="M139.669 115.416L113.753 91.946C113.753 91.946 105.322 99.4288 108.953 113.203C110.645 119.622 116.869 129.292 124.921 134.848C133.984 130.797 137.933 120.026 139.669 115.416Z" fill="white"/>
</mask>
<g mask="url(#mask1_32_2054)">
<path d="M125.187 121.733C126.587 121.965 128.219 117.985 129.621 115.962C130.24 115.068 130.486 113.969 130.302 112.898C130.173 112.144 130.041 111.614 130.077 111.065C130.144 110.034 130.888 109.075 132.219 109.013C133.549 108.951 134.059 110.189 133.249 111.627C133.125 111.846 133.007 112.096 132.895 112.361C132.323 113.718 132.112 115.197 132.226 116.665C132.436 119.343 132.121 123.62 132.971 124.015C134.202 124.587 135.562 123.388 136.823 122.389C138.084 121.389 140.744 122.41 141.464 120.378C142.184 118.345 139.841 117.913 138.003 116.204C136.165 114.495 134.27 113.678 134.539 112.416C134.808 111.154 137.089 111.975 137.089 111.975C137.089 111.975 140.58 114.014 142.371 113.245C144.162 112.476 142.33 111.437 141.915 108.86C141.501 106.284 144.15 104.71 142.423 103.319C140.696 101.928 135.809 108.036 134.003 106.799C132.198 105.561 134.714 100.326 132.944 99.1743C131.174 98.0229 130.568 99.9889 128.78 101.148C126.991 102.307 125.123 101.014 124.234 103.177C123.345 105.34 128.914 108.688 128.512 110.166C128.11 111.644 120.394 111.138 119.067 112.976C117.741 114.814 120.124 115.39 121.856 116.457C123.589 117.523 123.297 121.418 125.187 121.733Z" fill="#FE4C40"/>
<path d="M132.831 111.423C132.831 111.423 133.34 110.724 132.832 110.014C132.325 109.303 131.217 109.532 130.843 110.366C130.468 111.199 130.923 111.931 130.904 112.956C130.885 113.98 130.761 115.838 130.059 117.125C129.356 118.412 128.603 119.807 129.069 119.859C129.269 119.881 130.524 117.46 131.269 115.507C131.656 114.49 132.217 112.4 132.831 111.423Z" fill="#FE4C40"/>
</g>
<path d="M142.113 130.73C142.091 130.73 142.068 130.729 142.045 130.728C141.554 130.69 141.187 130.263 141.225 129.774C141.733 123.126 139.173 116.696 139.147 116.631C138.963 116.176 139.183 115.658 139.639 115.475C140.095 115.291 140.614 115.511 140.798 115.966C140.91 116.243 143.541 122.835 143 129.909C142.965 130.376 142.574 130.73 142.113 130.73Z" fill="#C66C67"/>
<path d="M84.7246 78.7989C84.7246 78.7989 86.8774 76.5239 88.3867 76.6653C89.8959 76.8067 98.6092 79.1757 100.239 80.7667C101.868 82.3578 102.151 84.2849 102.328 84.9478C102.505 85.6107 84.7246 78.7989 84.7246 78.7989Z" fill="#FE4C40"/>
<path d="M102.087 84.4691C101.986 84.4691 101.884 84.4377 101.796 84.3726C94.4775 78.9138 85.5027 78.6255 85.4129 78.6232C85.1448 78.6164 84.9329 78.3941 84.9396 78.1265C84.9463 77.859 85.1664 77.6523 85.4369 77.6541C85.8159 77.6634 94.8034 77.9467 102.378 83.596C102.593 83.7562 102.637 84.0599 102.476 84.2745C102.381 84.4018 102.235 84.4691 102.087 84.4691Z" fill="#BD2116"/>
<path d="M113 123.456C112.767 123.456 112.535 123.356 112.375 123.162C109.497 119.68 107.794 111.755 107.666 111.142C107.539 110.674 106.283 105.763 108.075 100.286C109.903 94.6987 112.478 92.086 112.587 91.9775C112.903 91.6621 113.415 91.6621 113.731 91.9776C114.047 92.2931 114.047 92.8047 113.731 93.1201C113.708 93.1429 111.311 95.6003 109.614 100.788C107.928 105.94 109.219 110.687 109.232 110.734L109.246 110.789C109.263 110.869 110.948 118.897 113.624 122.134C113.908 122.478 113.859 122.987 113.515 123.271C113.364 123.396 113.181 123.456 113 123.456Z" fill="#BD2116"/>
<mask id="mask2_32_2054" style="mask-type:luminance" maskUnits="userSpaceOnUse" x="35" y="77" width="83" height="105">
<path d="M115.08 92.2345C113.45 89.75 100.24 81.3622 92.9806 78.982C84.141 76.0838 68.6413 77.3137 63.797 85.1945C55.953 97.9554 36.3841 158.167 35.71 170.093C45.3227 172.123 80.5017 187.739 103.019 179.422C102.823 168.514 105.538 150.592 110.002 134.373C114.771 117.044 121.135 101.466 115.08 92.2345Z" fill="white"/>
</mask>
<g mask="url(#mask2_32_2054)">
<path d="M90.6444 146.987C90.2079 148.334 93.9113 150.531 95.71 152.214C96.5044 152.957 97.5574 153.361 98.6458 153.337C99.4121 153.32 99.9565 153.268 100.495 153.384C101.507 153.602 102.347 154.479 102.213 155.801C102.078 157.124 100.777 157.446 99.4717 156.434C99.2723 156.279 99.0424 156.126 98.7963 155.976C97.5354 155.212 96.1015 154.785 94.6301 154.683C91.9456 154.495 87.7539 153.555 87.237 154.336C86.4893 155.468 87.4772 156.987 88.282 158.379C89.0867 159.771 87.6833 162.247 89.5917 163.257C91.5 164.267 92.2721 162.017 94.2361 160.454C96.2001 158.891 97.2887 157.14 98.4994 157.591C99.7102 158.043 98.5618 160.174 98.5618 160.174C98.5618 160.174 96.027 163.321 96.5256 165.203C97.0242 167.084 98.3232 165.429 100.937 165.398C103.552 165.368 104.721 168.215 106.353 166.715C107.986 165.214 102.652 159.49 104.145 157.889C105.637 156.289 110.454 159.543 111.855 157.965C113.256 156.387 111.398 155.5 110.512 153.563C109.627 151.627 111.183 149.972 109.171 148.776C107.158 147.58 103.022 152.586 101.616 151.972C100.211 151.357 101.848 143.813 100.222 142.233C98.5962 140.653 97.6744 142.92 96.3626 144.474C95.0506 146.028 91.234 145.167 90.6444 146.987Z" fill="#FE4C40"/>
<path d="M99.734 156.051C99.734 156.051 100.352 156.657 101.13 156.26C101.909 155.864 101.845 154.736 101.074 154.244C100.303 153.752 99.5114 154.093 98.499 153.924C97.4866 153.754 95.6642 153.358 94.4924 152.475C93.3207 151.592 92.0494 150.643 91.9292 151.096C91.8778 151.289 94.0914 152.885 95.9175 153.908C96.8677 154.441 98.8561 155.301 99.734 156.051ZM64.1302 134.881C63.2049 133.807 59.3979 135.82 57.0224 136.478C55.9733 136.768 55.0795 137.455 54.5334 138.395C54.1488 139.057 53.9103 139.548 53.5306 139.947C52.8174 140.695 51.6303 140.956 50.5692 140.153C49.5079 139.35 49.9103 138.073 51.4548 137.487C51.6909 137.398 51.9419 137.282 52.1976 137.15C53.5076 136.473 54.6191 135.473 55.4729 134.272C57.0306 132.082 60.0169 128.998 59.6173 128.151C59.0391 126.925 57.2251 126.976 55.6156 126.937C54.0061 126.899 52.6185 124.413 50.7613 125.514C48.9041 126.615 50.4266 128.444 50.7414 130.932C51.056 133.42 51.987 135.259 50.9708 136.056C49.9547 136.853 48.7295 134.765 48.7295 134.765C48.7295 134.765 47.3567 130.966 45.488 130.412C43.6192 129.857 44.3591 131.826 43.0244 134.07C41.6897 136.314 38.6454 135.828 39.079 138.001C39.5126 140.173 47.1853 138.607 47.7775 140.712C48.3698 142.817 43.0787 145.229 43.699 147.245C44.3193 149.261 46.046 148.138 48.1631 148.392C50.2802 148.645 50.8856 150.832 52.9561 149.74C55.0265 148.647 52.8979 142.516 54.1553 141.638C55.4126 140.76 61.0132 146.082 63.2111 145.518C65.4089 144.955 63.9491 142.989 63.3028 141.062C62.6563 139.135 65.3799 136.331 64.1302 134.881Z" fill="#FE4C40"/>
<path d="M51.6451 137.91C51.6451 137.91 50.8054 138.121 50.7394 138.991C50.6736 139.861 51.6713 140.394 52.4935 139.993C53.3157 139.592 53.4358 138.739 54.108 137.965C54.7802 137.19 56.0671 135.843 57.4324 135.304C58.7977 134.765 60.2715 134.175 59.9464 133.837C59.8076 133.693 57.2902 134.749 55.4648 135.773C54.5149 136.305 52.7439 137.552 51.6451 137.91Z" fill="#FE4C40"/>
<path d="M79.7008 107.671C81.1001 107.904 82.7322 103.924 84.1346 101.9C84.754 101.007 84.9993 99.9073 84.8156 98.8363C84.6863 98.0821 84.5543 97.5523 84.5901 97.0034C84.6574 95.9725 85.4019 95.0134 86.7322 94.9517C88.0626 94.8899 88.5729 96.1278 87.7625 97.565C87.6387 97.7847 87.5204 98.0342 87.4087 98.2992C86.8371 99.6566 86.6252 101.135 86.7399 102.603C86.9493 105.281 86.6343 109.559 87.485 109.954C88.7159 110.526 90.076 109.327 91.3368 108.327C92.5976 107.328 95.2578 108.349 95.9776 106.316C96.6975 104.283 94.3546 103.852 92.5167 102.143C90.6788 100.434 88.7837 99.6165 89.0526 98.3547C89.3215 97.0928 91.6023 97.9131 91.6023 97.9131C91.6023 97.9131 95.0941 99.9527 96.8848 99.1835C98.6756 98.4143 96.844 97.3753 96.4291 94.7987C96.0143 92.222 98.6638 90.6486 96.9368 89.2574C95.2098 87.8663 90.3225 93.9748 88.5171 92.7371C86.7117 91.4993 89.2274 86.2642 87.4576 85.1128C85.6878 83.9614 85.0819 85.9273 83.2935 87.0863C81.505 88.2453 79.6365 86.9527 78.7478 89.1156C77.8589 91.2786 83.4278 94.6261 83.0256 96.1043C82.6234 97.5825 74.9075 97.0764 73.581 98.9143C72.2546 100.752 74.6372 101.328 76.37 102.395C78.1028 103.462 77.8108 107.357 79.7008 107.671Z" fill="#FE4C40"/>
<path d="M87.3443 97.3614C87.3443 97.3614 87.8535 96.6622 87.3461 95.9521C86.8385 95.2419 85.7303 95.4707 85.3562 96.3042C84.9821 97.1378 85.4371 97.8695 85.4179 98.8941C85.3985 99.9187 85.2749 101.776 84.5723 103.063C83.8698 104.35 83.1163 105.745 83.5829 105.797C83.7822 105.819 85.0378 103.399 85.7826 101.445C86.17 100.429 86.7301 98.3388 87.3443 97.3614Z" fill="#FE4C40"/>
</g>
</g>
</g>
</svg>
