<svg width="29" height="46" viewBox="0 0 29 46" fill="none" xmlns="http://www.w3.org/2000/svg">
<path d="M28.2875 42.1375C27.8375 41.6875 27.125 41.6875 26.7125 42.1375C25.925 42.925 24.875 43.375 23.75 43.375C22.625 43.375 21.575 42.925 20.7875 42.1375C20.375 41.725 19.625 41.725 19.2125 42.1375C18.425 42.925 17.375 43.375 16.25 43.375C15.3125 43.375 14.45 43.075 13.7375 42.5125C15.0125 35.65 18.2375 29.35 23.1125 24.2875L24.575 22.75C24.8375 22.4875 24.95 22.1125 24.875 21.7375C24.8 21.3625 24.5375 21.0625 24.2 20.9125L21.125 19.75V10.75C21.125 10.1125 20.6375 9.625 20 9.625H15.5V5.125C15.5 4.4875 15.0125 4 14.375 4H8.375V-0.5C8.375 -1.1375 7.8875 -1.625 7.25 -1.625H2.75C2.1125 -1.625 1.625 -1.1375 1.625 -0.5V4H-4.375C-5.0125 4 -5.5 4.4875 -5.5 5.125V9.625H-10C-10.6375 9.625 -11.125 10.1125 -11.125 10.75V14.4625C-11.125 15.025 -10.75 15.5125 -10.225 15.625C-9.5125 15.775 -8.875 15.2125 -8.875 14.5375V11.9125H-4.375C-3.7375 11.9125 -3.25 11.425 -3.25 10.7875V6.25H13.25V10.75C13.25 11.3875 13.7375 11.875 14.375 11.875H18.875V18.85L5.4125 13.45C5.15 13.3375 4.85 13.3375 4.5875 13.45L-14.1625 20.95C-14.5 21.1 -14.7625 21.4 -14.8375 21.775C-14.9125 22.15 -14.8 22.525 -14.5375 22.7875L-12.8125 24.5875C-9.0625 28.4875 -6.625 33.4 -4.7125 38.5C-4.5625 38.95 -4.1125 39.2125 -3.6625 39.2125C-3.5125 39.2125 -3.3625 39.175 -3.25 39.1375C-2.6875 38.9125 -2.425 38.275 -2.6125 37.7125C-4.375 32.125 -7.4125 26.95 -11.4625 22.7125L-11.7625 22.375L2.8625 16.525C3.35 16.375 3.875 16.75 3.875 17.275V42.4375C2.225 43.75 -0.175 43.675 -1.7125 42.1375C-2.1625 41.6875 -2.875 41.6875 -3.2875 42.1375C-4.9 43.75 -7.5625 43.75 -9.2125 42.1375C-9.6625 41.6875 -10.375 41.6875 -10.7875 42.1375C-11.575 42.925 -12.625 43.375 -13.75 43.375C-14.3875 43.375 -14.875 43.8625 -14.875 44.5C-14.875 45.1375 -14.3875 45.625 -13.75 45.625C-12.4 45.625 -11.0875 45.2125 -10 44.425C-7.75 46.0375 -4.75 46.0375 -2.5 44.425C-0.25 46.0375 2.75 46.0375 5 44.425C7.2125 46.0375 10.25 46.0375 12.5 44.425C13.5875 45.2125 14.9 45.625 16.25 45.625C17.6 45.625 18.9125 45.2125 20 44.425C21.0875 45.2125 22.4 45.625 23.75 45.625C25.475 45.625 27.0875 44.95 28.2875 43.75C28.7375 43.3 28.7375 42.5875 28.2875 42.1375Z" fill="white"/>
</svg>
