<svg width="166" height="166" viewBox="0 0 166 166" fill="none" xmlns="http://www.w3.org/2000/svg">
<g opacity="0.5">
<path d="M124.994 96.2901C124.994 96.4489 124.746 96.5922 124.246 96.6581H122.975C122.475 96.5922 122.228 96.4489 122.228 96.2862C122.228 96.1236 122.475 95.9836 122.975 95.9138H124.246C124.746 95.9836 124.994 96.1236 124.994 96.2901ZM129.974 96.2901C129.974 96.4489 129.726 96.5922 129.226 96.6581H127.955C127.455 96.5922 127.208 96.4489 127.208 96.2862C127.208 96.1236 127.455 95.9836 127.955 95.9138H129.226C129.726 95.9836 129.974 96.1236 129.974 96.2901ZM134.954 96.2901C134.954 96.4489 134.706 96.5922 134.206 96.6581H132.935C132.435 96.5922 132.188 96.4489 132.188 96.2862C132.188 96.1236 132.435 95.9836 132.935 95.9138H134.206C134.706 95.9836 134.954 96.1236 134.954 96.2901ZM139.934 96.2901C139.934 96.4489 139.686 96.5922 139.186 96.6581H137.915C137.415 96.5922 137.168 96.4489 137.168 96.2862C137.168 96.1236 137.415 95.9836 137.915 95.9138H139.186C139.686 95.9836 139.934 96.1236 139.934 96.2901ZM142.805 94.1736C142.964 94.1736 143.108 94.4209 143.173 94.9212V96.4716L143.16 96.6448C142.698 96.6094 142.366 96.5579 142.31 96.4954C142.201 96.4345 142.147 96.3626 142.147 96.2862C142.147 96.2099 142.201 96.139 142.31 96.0776C142.472 96.0168 142.468 95.9653 142.443 95.9282C142.439 95.9229 142.434 95.9181 142.429 95.9138V94.9212C142.499 94.4209 142.638 94.1736 142.805 94.1736H142.805ZM142.805 89.1936C142.964 89.1936 143.108 89.4409 143.173 89.9412V91.2127C143.107 91.7124 142.964 91.9597 142.801 91.9597C142.638 91.9597 142.499 91.7124 142.429 91.2127V89.9412C142.499 89.4409 142.638 89.1936 142.805 89.1936H142.805ZM142.805 84.2136C142.964 84.2136 143.108 84.4609 143.173 84.9612V86.2327C143.107 86.7324 142.964 86.9797 142.801 86.9797C142.638 86.9797 142.499 86.7324 142.429 86.2327V84.9612C142.499 84.4609 142.638 84.2136 142.805 84.2136H142.805ZM142.805 79.2336C142.964 79.2336 143.108 79.4809 143.173 79.9812V81.2527C143.107 81.7524 142.964 81.9997 142.801 81.9997C142.638 81.9997 142.499 81.7524 142.429 81.2527V79.9812C142.499 79.4809 142.638 79.2336 142.805 79.2336H142.805ZM142.805 74.2536C142.964 74.2536 143.108 74.5009 143.173 75.0012V76.2727C143.107 76.7724 142.964 77.0197 142.801 77.0197C142.638 77.0197 142.499 76.7724 142.429 76.2727V75.0012C142.499 74.5009 142.638 74.2536 142.805 74.2536H142.805ZM142.805 69.2736C142.964 69.2736 143.108 69.5209 143.173 70.0212V71.2927C143.107 71.7924 142.964 72.0397 142.801 72.0397C142.638 72.0397 142.499 71.7924 142.429 71.2927V70.0212C142.499 69.5209 142.638 69.2736 142.805 69.2736H142.805ZM142.805 64.2936C142.964 64.2936 143.108 64.5409 143.173 65.0412V66.3127C143.107 66.8124 142.964 67.0597 142.801 67.0597C142.638 67.0597 142.499 66.8124 142.429 66.3127V65.0412C142.499 64.5409 142.638 64.2936 142.805 64.2936H142.805ZM142.805 59.3136C142.964 59.3136 143.108 59.5609 143.173 60.0612V61.3327C143.107 61.8324 142.964 62.0797 142.801 62.0797C142.638 62.0797 142.499 61.8324 142.429 61.3327V60.0612C142.499 59.5609 142.638 59.3136 142.805 59.3136H142.805ZM142.805 54.3336C142.964 54.3336 143.108 54.5809 143.173 55.0812V56.3527C143.107 56.8524 142.964 57.0997 142.801 57.0997C142.638 57.0997 142.499 56.8524 142.429 56.3527V55.0812C142.499 54.5809 142.638 54.3336 142.805 54.3336H142.805ZM142.805 49.3536C142.964 49.3536 143.108 49.6009 143.173 50.1012V51.3727C143.107 51.8724 142.964 52.1197 142.801 52.1197C142.638 52.1197 142.499 51.8724 142.429 51.3727V50.1012C142.499 49.6009 142.638 49.3536 142.805 49.3536H142.805ZM142.805 44.3736C142.964 44.3736 143.108 44.6209 143.173 45.1212V46.3927C143.107 46.8924 142.964 47.1397 142.801 47.1397C142.638 47.1397 142.499 46.8924 142.429 46.3927V45.1212C142.499 44.6209 142.638 44.3736 142.805 44.3736H142.805ZM142.805 39.3936C142.964 39.3936 143.108 39.6409 143.173 40.1412V41.4127C143.107 41.9124 142.964 42.1597 142.801 42.1597C142.638 42.1597 142.499 41.9124 142.429 41.4127V40.1412C142.499 39.6409 142.638 39.3936 142.805 39.3936H142.805ZM138.986 38.225C138.986 38.0662 139.233 37.9223 139.734 37.8564H141.005C141.505 37.9228 141.752 38.0662 141.752 38.2288C141.752 38.3915 141.505 38.531 141.005 38.6007H139.734C139.233 38.531 138.986 38.3921 138.986 38.225ZM134.006 38.225C134.006 38.0662 134.253 37.9223 134.754 37.8564H136.025C136.525 37.9228 136.772 38.0662 136.772 38.2288C136.772 38.3915 136.525 38.531 136.025 38.6007H134.754C134.253 38.531 134.006 38.3921 134.006 38.225ZM129.026 38.225C129.026 38.0662 129.273 37.9223 129.774 37.8564H131.045C131.545 37.9228 131.792 38.0662 131.792 38.2288C131.792 38.3915 131.545 38.531 131.045 38.6007H129.774C129.273 38.531 129.026 38.3921 129.026 38.225ZM124.046 38.225C124.046 38.0662 124.293 37.9223 124.794 37.8564H126.065C126.565 37.9228 126.812 38.0662 126.812 38.2288C126.812 38.3915 126.565 38.531 126.065 38.6007H124.794C124.293 38.531 124.046 38.3921 124.046 38.225Z" fill="#BBCAEA"/>
<path d="M120.075 140.476H68.3321C67.2986 140.476 66.3075 140.065 65.5768 139.334C64.8461 138.603 64.4355 137.612 64.4355 136.579V28.3136C64.4357 27.2802 64.8463 26.2892 65.577 25.5584C66.3077 24.8277 67.2987 24.4171 68.3321 24.417H120.075C121.109 24.417 122.1 24.8275 122.831 25.5582C123.562 26.289 123.972 27.2801 123.973 28.3136V136.579C123.973 137.091 123.872 137.597 123.676 138.07C123.48 138.543 123.193 138.973 122.831 139.334C122.469 139.696 122.04 139.983 121.567 140.179C121.094 140.375 120.587 140.476 120.075 140.476Z" fill="#3A4146"/>
<path d="M66.1812 134.094V31.0393C66.1812 30.2087 66.5112 29.4121 67.0985 28.8248C67.6859 28.2374 68.4825 27.9075 69.3131 27.9075H119.096C119.927 27.9075 120.723 28.2374 121.31 28.8248C121.898 29.4121 122.228 30.2087 122.228 31.0393V134.094C122.228 134.924 121.898 135.721 121.31 136.308C120.723 136.896 119.927 137.226 119.096 137.226H69.3125C68.4819 137.226 67.6853 136.896 67.098 136.308C66.5106 135.721 66.1807 134.924 66.1807 134.094H66.1812Z" fill="#F3F6FD"/>
<path d="M125.032 48.7096V61.2083C125.032 61.6842 124.644 62.0693 124.168 62.0693H123.973V47.8486H124.168C124.644 47.8486 125.032 48.2338 125.032 48.7096ZM63.377 61.2083V48.7102C63.377 48.2343 63.7643 47.8492 64.2402 47.8492H64.436V62.0699H64.2402C63.7643 62.0699 63.377 61.6842 63.377 61.2083ZM63.377 71.8295V65.148C63.377 64.6722 63.7643 64.2871 64.2402 64.2871H64.436V72.6905H64.2402C63.7643 72.6905 63.377 72.3049 63.377 71.8295Z" fill="#2E363A"/>
<path d="M127.625 59.0664V83.9304C127.625 84.7094 127.315 85.4563 126.764 86.0068C126.212 86.5573 125.465 86.8663 124.686 86.8658H63.4116C62.633 86.8657 61.8864 86.5564 61.3359 86.0059C60.7853 85.4555 60.4759 84.7089 60.4756 83.9304V59.0664C60.4759 58.2878 60.7853 57.5413 61.3359 56.9908C61.8864 56.4404 62.633 56.1311 63.4116 56.1309H124.685C125.465 56.1305 126.212 56.4395 126.763 56.99C127.314 57.5404 127.624 58.2873 127.625 59.0664H127.625ZM118.346 91.6577V109.649C118.346 110.213 118.121 110.754 117.722 111.152C117.323 111.55 116.783 111.774 116.219 111.774H71.8803C71.3169 111.774 70.7765 111.55 70.3781 111.151C69.9796 110.753 69.7557 110.213 69.7555 109.649V91.6577C69.7555 91.0942 69.9794 90.5537 70.3779 90.1552C70.7764 89.7568 71.3168 89.5329 71.8803 89.5329H116.219C116.498 89.5327 116.775 89.5876 117.033 89.6943C117.291 89.801 117.525 89.9575 117.723 90.1548C117.92 90.3521 118.077 90.5863 118.184 90.8442C118.291 91.1021 118.346 91.3785 118.346 91.6577ZM118.346 33.2926V51.2848C118.346 51.8486 118.121 52.389 117.722 52.7874C117.323 53.1857 116.783 53.4094 116.219 53.4091H71.8803C71.3168 53.4091 70.7764 53.1852 70.3779 52.7867C69.9794 52.3883 69.7555 51.8478 69.7555 51.2843V33.2932C69.7557 32.7298 69.9796 32.1894 70.3781 31.7911C70.7765 31.3927 71.3169 31.1689 71.8803 31.1689H116.219C116.498 31.1688 116.775 31.2236 117.033 31.3303C117.291 31.437 117.525 31.5935 117.723 31.7908C117.92 31.9881 118.077 32.2224 118.184 32.4803C118.291 32.7382 118.346 33.0146 118.346 33.2937V33.2926Z" fill="#E4ECF9"/>
<path d="M116.22 106.432C116.22 106.824 116.144 107.212 115.994 107.574C115.844 107.936 115.624 108.264 115.346 108.54C115.07 108.818 114.741 109.038 114.379 109.188C114.017 109.338 113.629 109.415 113.238 109.415H94.8228C94.2327 109.415 93.6556 109.241 93.1648 108.913C92.674 108.586 92.2914 108.12 92.0656 107.574C91.8399 107.029 91.781 106.429 91.8965 105.85C92.0121 105.272 92.2968 104.74 92.7146 104.323C92.9908 104.046 93.3194 103.825 93.6812 103.675C94.0431 103.525 94.4311 103.448 94.8228 103.449H113.238C114.029 103.449 114.787 103.763 115.347 104.323C115.906 104.882 116.22 105.641 116.22 106.432L116.22 106.432Z" fill="white"/>
<path d="M95.688 104.738L96.1085 106.033H97.4697L96.3686 106.833L96.7891 108.127L95.688 107.327L94.5868 108.127L95.0074 106.833L93.9062 106.033H95.2675L95.688 104.738ZM99.9758 104.738L100.396 106.033H101.757L100.656 106.833L101.077 108.127L99.9758 107.327L98.8746 108.127L99.2952 106.833L98.194 106.033H99.5552L99.9758 104.738Z" fill="#FFCF3D"/>
<path d="M104.263 104.738L104.684 106.033H106.045L104.944 106.833L105.364 108.127L104.263 107.327L103.162 108.127L103.583 106.833L102.481 106.033H103.843L104.263 104.738ZM108.551 104.738L108.971 106.033H110.333L109.232 106.833L109.652 108.127L108.551 107.327L107.45 108.127L107.87 106.833L106.769 106.033H108.13L108.551 104.738ZM112.838 104.738L113.259 106.033H114.62L113.519 106.833L113.939 108.127L112.838 107.327L111.737 108.127L112.158 106.833L111.056 106.033H112.418L112.838 104.738Z" fill="#D1DCF8"/>
<path d="M80.8786 108.549C85.2401 108.549 88.7758 105.014 88.7758 100.652C88.7758 96.2906 85.2401 92.7549 80.8786 92.7549C76.5171 92.7549 72.9814 96.2906 72.9814 100.652C72.9814 105.014 76.5171 108.549 80.8786 108.549Z" fill="white"/>
<g clip-path="url(#clip0_32_1695)">
<path d="M79.2344 98.1436C79.373 98.1436 79.4854 98.0312 79.4854 97.8926C79.4854 97.754 79.373 97.6416 79.2344 97.6416C79.0958 97.6416 78.9834 97.754 78.9834 97.8926C78.9834 98.0312 79.0958 98.1436 79.2344 98.1436Z" fill="#444B54"/>
<path d="M80.3213 98.1436C80.4599 98.1436 80.5723 98.0312 80.5723 97.8926C80.5723 97.754 80.4599 97.6416 80.3213 97.6416C80.1827 97.6416 80.0703 97.754 80.0703 97.8926C80.0703 98.0312 80.1827 98.1436 80.3213 98.1436Z" fill="#444B54"/>
<path d="M81.4092 98.1436C81.5478 98.1436 81.6602 98.0312 81.6602 97.8926C81.6602 97.754 81.5478 97.6416 81.4092 97.6416C81.2706 97.6416 81.1582 97.754 81.1582 97.8926C81.1582 98.0312 81.2706 98.1436 81.4092 98.1436Z" fill="#444B54"/>
<path d="M85.5171 104.896C85.4167 104.796 85.2577 104.796 85.1657 104.896C84.9899 105.072 84.7557 105.172 84.5047 105.172C84.2537 105.172 84.0194 105.072 83.8437 104.896C83.7516 104.804 83.5843 104.804 83.4923 104.896C83.3166 105.072 83.0823 105.172 82.8313 105.172C82.6221 105.172 82.4297 105.105 82.2707 104.98C82.5552 103.449 83.2747 102.043 84.3624 100.913L84.6887 100.57C84.7473 100.512 84.7724 100.428 84.7557 100.344C84.7389 100.261 84.6804 100.194 84.6051 100.16L83.919 99.901V97.8929C83.919 97.7507 83.8102 97.6419 83.668 97.6419H82.6639V96.6379C82.6639 96.4956 82.5552 96.3869 82.4129 96.3869H81.0742V95.3828C81.0742 95.2406 80.9654 95.1318 80.8232 95.1318H79.8192C79.6769 95.1318 79.5682 95.2406 79.5682 95.3828V96.3869H78.2295C78.0872 96.3869 77.9785 96.4956 77.9785 96.6379V97.6419H76.9744C76.8322 97.6419 76.7234 97.7507 76.7234 97.8929V98.7213C76.7234 98.8468 76.8071 98.9555 76.9242 98.9806C77.0832 99.0141 77.2254 98.8886 77.2254 98.738V98.1523H78.2295C78.3717 98.1523 78.4805 98.0435 78.4805 97.9013V96.8889H82.1619V97.8929C82.1619 98.0352 82.2707 98.1439 82.4129 98.1439H83.417V99.7002L80.4132 98.4953C80.3547 98.4702 80.2877 98.4702 80.2292 98.4953L76.0457 100.169C75.9704 100.202 75.9118 100.269 75.8951 100.353C75.8784 100.436 75.9035 100.52 75.962 100.579L76.3469 100.98C77.1836 101.85 77.7274 102.947 78.1542 104.084C78.1876 104.185 78.288 104.243 78.3884 104.243C78.4219 104.243 78.4554 104.235 78.4805 104.227C78.606 104.176 78.6645 104.034 78.6227 103.909C78.2295 102.662 77.5517 101.507 76.6481 100.562L76.5812 100.487L79.8443 99.1814C79.953 99.148 80.0702 99.2316 80.0702 99.3488V104.963C79.702 105.256 79.1666 105.239 78.8235 104.896C78.7231 104.796 78.5641 104.796 78.4721 104.896C78.1123 105.256 77.5183 105.256 77.1501 104.896C77.0497 104.796 76.8908 104.796 76.7987 104.896C76.623 105.072 76.3887 105.172 76.1377 105.172C75.9955 105.172 75.8867 105.281 75.8867 105.423C75.8867 105.565 75.9955 105.674 76.1377 105.674C76.4389 105.674 76.7318 105.582 76.9744 105.406C77.4764 105.766 78.1458 105.766 78.6478 105.406C79.1498 105.766 79.8192 105.766 80.3212 105.406C80.8148 105.766 81.4926 105.766 81.9946 105.406C82.2372 105.582 82.5301 105.674 82.8313 105.674C83.1325 105.674 83.4253 105.582 83.668 105.406C83.9106 105.582 84.2035 105.674 84.5047 105.674C84.8895 105.674 85.2493 105.524 85.5171 105.256C85.6175 105.155 85.6175 104.996 85.5171 104.896Z" fill="#444B54"/>
<path d="M79.2334 100.653C79.3721 100.653 79.4844 100.541 79.4844 100.402C79.4844 100.264 79.3721 100.151 79.2334 100.151C79.0948 100.151 78.9824 100.264 78.9824 100.402C78.9824 100.541 79.0948 100.653 79.2334 100.653Z" fill="#444B54"/>
<path d="M75.3018 105.331C75.4404 105.331 75.5528 105.219 75.5528 105.08C75.5528 104.942 75.4404 104.829 75.3018 104.829C75.1632 104.829 75.0508 104.942 75.0508 105.08C75.0508 105.219 75.1632 105.331 75.3018 105.331Z" fill="#444B54"/>
</g>
<path d="M114.938 94.2741H92.5353C92.3511 94.2741 92.1744 94.2009 92.0442 94.0707C91.914 93.9405 91.8408 93.7639 91.8408 93.5797V93.2538C91.8408 92.8703 92.1518 92.5593 92.5353 92.5593H114.938C115.321 92.5593 115.632 92.8703 115.632 93.2538V93.5797C115.632 93.9631 115.321 94.2741 114.938 94.2741H114.938ZM114.938 97.8542H92.5353C92.3511 97.8542 92.1744 97.781 92.0442 97.6508C91.914 97.5206 91.8408 97.3439 91.8408 97.1597V96.8338C91.8408 96.4504 92.1518 96.1394 92.5353 96.1394H114.938C115.321 96.1394 115.632 96.4504 115.632 96.8338V97.1597C115.632 97.5432 115.321 97.8542 114.938 97.8542H114.938ZM102.018 99.7195H92.6979C92.4759 99.7274 92.2657 99.8212 92.1115 99.9811C91.9573 100.141 91.8711 100.354 91.8711 100.577C91.8711 100.799 91.9573 101.012 92.1115 101.172C92.2657 101.332 92.4759 101.426 92.6979 101.434H102.018C102.24 101.426 102.45 101.332 102.604 101.172C102.758 101.012 102.845 100.799 102.845 100.577C102.845 100.354 102.758 100.141 102.604 99.9811C102.45 99.8212 102.24 99.7274 102.018 99.7195Z" fill="#D1DCF8"/>
<path d="M116.22 47.7334C116.221 48.1251 116.144 48.5131 115.994 48.8749C115.844 49.2368 115.624 49.5654 115.346 49.8417C115.07 50.1192 114.741 50.3393 114.38 50.4893C114.018 50.6394 113.63 50.7164 113.238 50.7159H94.8232C94.2332 50.7164 93.6563 50.5418 93.1656 50.2142C92.6749 49.8866 92.2924 49.4207 92.0667 48.8756C91.8409 48.3305 91.782 47.7306 91.8974 47.152C92.0129 46.5734 92.2974 46.042 92.715 45.6252C92.9913 45.3475 93.3198 45.1272 93.6816 44.9772C94.0435 44.8271 94.4315 44.7502 94.8232 44.751H113.238C114.029 44.751 114.788 45.0652 115.347 45.6245C115.906 46.1838 116.221 46.9424 116.221 47.7334H116.22Z" fill="white"/>
<path d="M95.688 46.0391L96.1085 47.3339H97.4697L96.3686 48.134L96.7891 49.4288L95.688 48.6281L94.5868 49.4282L95.0074 48.1334L93.9062 47.3339H95.2675L95.688 46.0391ZM99.9758 46.0391L100.396 47.3339H101.757L100.656 48.134L101.077 49.4288L99.9758 48.6281L98.8746 49.4282L99.2952 48.1334L98.194 47.3339H99.5552L99.9758 46.0391ZM104.264 46.0391L104.684 47.3339H106.045L104.944 48.134L105.365 49.4288L104.264 48.6281L103.162 49.4282L103.583 48.1334L102.482 47.3339H103.843L104.264 46.0391ZM108.551 46.0391L108.972 47.3339H110.333L109.232 48.134L109.652 49.4288L108.551 48.6281L107.45 49.4282L107.871 48.1334L106.77 47.3339H108.131L108.551 46.0391Z" fill="#FFCF3D"/>
<path d="M112.838 46.0391L113.259 47.3339H114.62L113.519 48.134L113.94 49.4288L112.838 48.6281L111.737 49.4282L112.158 48.1334L111.057 47.3339H112.418L112.838 46.0391Z" fill="#D1DCF8"/>
<path d="M80.8786 49.852C85.2401 49.852 88.7758 46.3163 88.7758 41.9548C88.7758 37.5933 85.2401 34.0576 80.8786 34.0576C76.5171 34.0576 72.9814 37.5933 72.9814 41.9548C72.9814 46.3163 76.5171 49.852 80.8786 49.852Z" fill="white"/>
<path d="M114.938 35.5759H92.5353C92.3511 35.5759 92.1744 35.5027 92.0442 35.3725C91.914 35.2422 91.8408 35.0656 91.8408 34.8814V34.5555C91.8408 34.1721 92.1518 33.8611 92.5353 33.8611H114.938C115.321 33.8611 115.632 34.1721 115.632 34.5555V34.8814C115.632 35.2649 115.321 35.5759 114.938 35.5759H114.938ZM114.938 39.1559H92.5353C92.3511 39.1559 92.1744 39.0828 92.0442 38.9525C91.914 38.8223 91.8408 38.6457 91.8408 38.4615V38.1356C91.8408 37.7521 92.1518 37.4412 92.5353 37.4412H114.938C115.321 37.4412 115.632 37.7521 115.632 38.1356V38.4615C115.632 38.845 115.321 39.1559 114.938 39.1559H114.938ZM102.018 41.0212H92.6979C92.4759 41.0292 92.2657 41.123 92.1115 41.2829C91.9573 41.4427 91.8711 41.6562 91.8711 41.8783C91.8711 42.1005 91.9573 42.3139 92.1115 42.4738C92.2657 42.6337 92.4759 42.7275 92.6979 42.7354H102.018C102.24 42.7275 102.45 42.6337 102.604 42.4738C102.758 42.3139 102.845 42.1005 102.845 41.8783C102.845 41.6562 102.758 41.4427 102.604 41.2829C102.45 41.123 102.24 41.0292 102.018 41.0212Z" fill="#D1DCF8"/>
<path d="M122.658 80.0647C122.66 80.5954 122.556 81.121 122.353 81.6112C122.15 82.1015 121.851 82.5467 121.475 82.921C121.101 83.2968 120.656 83.5948 120.166 83.7978C119.675 84.0008 119.15 84.1049 118.62 84.1041H93.678C93.1475 84.1044 92.6221 84.0001 92.1319 83.7972C91.6417 83.5943 91.1963 83.2968 90.8211 82.9216C90.446 82.5465 90.1484 82.1011 89.9456 81.6109C89.7427 81.1207 89.6384 80.5953 89.6387 80.0647C89.6387 78.9525 90.0908 77.941 90.8223 77.2095C91.1964 76.8333 91.6415 76.5349 92.1316 76.3317C92.6218 76.1284 93.1474 76.0243 93.678 76.0254H118.62C119.15 76.0254 119.675 76.1299 120.165 76.3329C120.655 76.5359 121.101 76.8334 121.476 77.2085C121.851 77.5836 122.148 78.0289 122.351 78.5189C122.554 79.009 122.658 79.5343 122.658 80.0647Z" fill="white"/>
<path d="M94.8511 77.7693L95.4211 79.5234H97.2637L95.7724 80.6068L96.3424 82.3597L94.8511 81.2763L93.3594 82.3597L93.9293 80.6068L92.4375 79.5228H94.2812L94.8511 77.7693ZM100.658 77.7693L101.228 79.5234H103.071L101.58 80.6068L102.15 82.3597L100.658 81.2763L99.1666 82.3597L99.7365 80.6068L98.2447 79.5228H100.088L100.658 77.7693ZM106.466 77.7693L107.036 79.5234H108.879L107.387 80.6068L107.957 82.3597L106.466 81.2763L104.974 82.3597L105.544 80.6068L104.052 79.5228H105.896L106.466 77.7693ZM112.273 77.7693L112.843 79.5234H114.686L113.195 80.6068L113.765 82.3597L112.273 81.2763L110.781 82.3597L111.351 80.6068L109.86 79.5228H111.703L112.273 77.7693ZM118.08 77.7693L118.65 79.5234H120.493L119.002 80.6068L119.572 82.3597L118.08 81.2763L116.589 82.3597L117.159 80.6068L115.667 79.5228H117.51L118.08 77.7693Z" fill="#FFCF3D"/>
<path d="M120.922 63.5964H90.5799C90.3304 63.5964 90.0912 63.4973 89.9147 63.3209C89.7383 63.1445 89.6392 62.9053 89.6392 62.6558V62.2153C89.6392 61.9658 89.7383 61.7266 89.9147 61.5502C90.0912 61.3738 90.3304 61.2747 90.5799 61.2747H120.922C121.172 61.2747 121.411 61.3738 121.588 61.5502C121.764 61.7266 121.863 61.9658 121.863 62.2153V62.6563C121.863 62.9058 121.764 63.1451 121.588 63.3215C121.411 63.4979 121.172 63.597 120.922 63.597L120.922 63.5964ZM120.922 68.4453H90.5799C90.3304 68.4453 90.0912 68.3462 89.9147 68.1698C89.7383 67.9934 89.6392 67.7541 89.6392 67.5046V67.0642C89.6392 66.8147 89.7383 66.5754 89.9147 66.399C90.0912 66.2226 90.3304 66.1235 90.5799 66.1235H120.922C121.172 66.1235 121.411 66.2226 121.588 66.399C121.764 66.5754 121.863 66.8147 121.863 67.0642V67.5052C121.863 67.7547 121.764 67.9939 121.588 68.1703C121.411 68.3468 121.172 68.4459 120.922 68.4459L120.922 68.4453ZM103.423 70.9724H90.7996C90.4917 70.9724 90.1964 71.0947 89.9787 71.3124C89.761 71.5301 89.6387 71.8254 89.6387 72.1333C89.6387 72.4412 89.761 72.7364 89.9787 72.9541C90.1964 73.1719 90.4917 73.2942 90.7996 73.2942H103.423C103.731 73.2942 104.026 73.1719 104.244 72.9541C104.462 72.7364 104.584 72.4412 104.584 72.1333C104.584 71.8254 104.462 71.5301 104.244 71.3124C104.026 71.0947 103.731 70.9724 103.423 70.9724Z" fill="#D1DCF8"/>
<path d="M75.547 82.5823C81.6837 82.5823 86.6585 77.6076 86.6585 71.4709C86.6585 65.3342 81.6837 60.3594 75.547 60.3594C69.4103 60.3594 64.4355 65.3342 64.4355 71.4709C64.4355 77.6076 69.4103 82.5823 75.547 82.5823Z" fill="#D1DCF8"/>
<path d="M142.377 75.1902C145.578 75.1902 148.173 72.5952 148.173 69.3941C148.173 66.1929 145.578 63.5979 142.377 63.5979C139.176 63.5979 136.581 66.1929 136.581 69.3941C136.581 72.5952 139.176 75.1902 142.377 75.1902Z" fill="#71C687"/>
<path d="M141.285 72.1934C141.155 72.1932 141.03 72.1415 140.938 72.0495L139.048 70.1588C139.001 70.1135 138.964 70.0594 138.939 69.9998C138.914 69.9402 138.901 69.8761 138.9 69.8113C138.9 69.7466 138.913 69.6824 138.937 69.6225C138.962 69.5626 138.998 69.5082 139.044 69.4624C139.09 69.4166 139.144 69.3804 139.204 69.3558C139.264 69.3312 139.328 69.3187 139.393 69.3191C139.458 69.3195 139.522 69.3327 139.581 69.358C139.641 69.3833 139.695 69.4202 139.74 69.4666L141.285 71.0109L145.162 67.1337C145.207 67.0882 145.261 67.0521 145.321 67.0275C145.38 67.0029 145.444 66.9902 145.508 66.9902C145.573 66.9902 145.636 67.0029 145.696 67.0275C145.755 67.0521 145.809 67.0882 145.855 67.1337C145.9 67.1792 145.936 67.2332 145.961 67.2926C145.986 67.3521 145.998 67.4158 145.998 67.4801C145.998 67.5444 145.986 67.6081 145.961 67.6676C145.936 67.727 145.9 67.781 145.855 67.8265L141.631 72.0501C141.539 72.1419 141.415 72.1934 141.285 72.1934Z" fill="white"/>
<path d="M139.01 121.468C139.39 121.999 139.441 122.702 139.359 123.349C139.277 123.997 139.079 124.628 139.011 125.277C138.88 126.53 139.284 127.817 140.063 128.803H144.89C144.794 127.809 144.459 126.806 144.055 125.886C143.323 124.222 142.365 122.596 142.206 120.784C142.152 120.164 142.188 119.51 141.907 118.954C141.542 118.232 140.739 117.858 140.179 117.273C139.27 116.324 139.074 114.909 139.028 113.595C138.982 112.281 139.027 110.908 138.456 109.724L137.114 114.383C136.826 115.386 136.535 116.403 136.531 117.447C136.527 118.49 136.848 119.579 137.616 120.285C138.066 120.7 138.653 120.971 139.01 121.468Z" fill="#7CD194"/>
<path d="M144.449 120.887C144.716 122.04 144.528 123.242 144.526 124.425C144.526 125.891 144.811 127.343 145.367 128.699C145.381 128.73 145.394 128.765 145.408 128.802H146.646C146.716 128.372 146.733 127.887 146.854 127.582C147.227 126.645 147.847 125.832 148.402 124.99C148.957 124.148 149.465 123.233 149.562 122.229C149.734 120.453 148.608 118.599 149.283 116.947C149.832 115.605 151.455 114.791 151.626 113.352C151.726 112.517 151.29 111.713 151.227 110.874C151.155 109.912 151.574 108.991 151.87 108.072C152.166 107.154 152.324 106.081 151.789 105.277C151.529 104.884 151.098 104.59 150.627 104.566C150.157 104.542 149.667 104.826 149.517 105.272C149.314 105.879 149.745 106.52 149.715 107.159C149.68 107.901 149.045 108.466 148.409 108.849C147.773 109.232 147.056 109.554 146.641 110.17C146.214 110.804 146.197 111.631 146.319 112.385C146.441 113.139 146.686 113.875 146.732 114.638C146.779 115.401 146.584 116.236 145.989 116.715C145.481 117.125 144.749 117.225 144.323 117.719C143.962 118.137 143.91 118.747 144.006 119.291C144.102 119.835 144.324 120.349 144.449 120.887Z" fill="#61BA76"/>
<path d="M150.272 128.802C151.025 127.947 151.425 126.777 151.306 125.641C151.249 125.089 151.08 124.554 151.011 124.004C150.942 123.454 150.985 122.857 151.308 122.407C151.611 121.985 152.109 121.754 152.491 121.403C153.142 120.803 153.415 119.878 153.412 118.993C153.409 118.108 153.162 117.243 152.917 116.392L151.778 112.436C151.293 113.442 151.332 114.607 151.293 115.723C151.254 116.838 151.088 118.039 150.315 118.846C149.84 119.341 149.158 119.66 148.849 120.273C148.611 120.745 148.64 121.3 148.595 121.826C148.46 123.364 147.647 124.744 147.025 126.157C146.659 126.99 146.363 127.903 146.305 128.802H150.272H150.272ZM140.853 114.09C140.8 114.802 140.43 115.485 140.514 116.193C140.66 117.416 142.037 118.106 142.503 119.245C143.076 120.648 142.121 122.221 142.266 123.729C142.349 124.582 142.78 125.358 143.251 126.073C143.722 126.788 144.249 127.479 144.565 128.274C144.684 128.573 144.685 129.08 144.775 129.479H145.73C145.766 129.384 145.798 129.294 145.827 129.222C146.299 128.071 146.542 126.838 146.542 125.594C146.54 124.59 146.38 123.569 146.607 122.591C146.713 122.134 146.901 121.697 146.983 121.235C147.064 120.773 147.021 120.256 146.714 119.901C146.352 119.481 145.731 119.397 145.299 119.049C144.794 118.641 144.629 117.933 144.669 117.285C144.707 116.638 144.915 116.013 145.019 115.372C145.123 114.732 145.108 114.031 144.746 113.492C144.394 112.969 143.786 112.696 143.245 112.371C142.705 112.046 142.166 111.566 142.137 110.936C142.111 110.394 142.477 109.849 142.304 109.334C142.177 108.955 141.761 108.714 141.362 108.735C140.962 108.755 140.597 109.005 140.375 109.338C139.922 110.021 140.056 110.931 140.307 111.712C140.558 112.492 140.914 113.273 140.853 114.09Z" fill="#71C687"/>
<path d="M152.304 130.582L151.303 139.855C151.252 140.33 151.028 140.769 150.672 141.088C150.317 141.407 149.857 141.583 149.379 141.582H140.56C140.083 141.582 139.623 141.406 139.269 141.087C138.914 140.768 138.69 140.329 138.64 139.855L137.638 130.582H152.305H152.304Z" fill="#D1DCF8"/>
<path d="M152.019 133.237L152.306 130.583H137.637L137.924 133.237H152.019Z" fill="#BBCAEA"/>
<path d="M153.827 130.273C153.827 130.68 153.661 131.048 153.397 131.315C153.121 131.591 152.747 131.746 152.356 131.746H137.587C137.394 131.746 137.203 131.708 137.024 131.634C136.846 131.56 136.684 131.451 136.547 131.314C136.41 131.177 136.302 131.015 136.228 130.836C136.155 130.658 136.117 130.466 136.117 130.273C136.117 129.883 136.272 129.509 136.548 129.234C136.824 128.958 137.198 128.803 137.587 128.803H152.356C152.746 128.803 153.12 128.958 153.396 129.233C153.672 129.509 153.827 129.883 153.827 130.273Z" fill="#D1DCF8"/>
<path d="M34.2158 132.078H38.2801V138.697H34.2158V132.078Z" fill="#FEC9AC"/>
<path d="M34.2158 132.078V134.419C35.5772 134.499 36.9432 134.404 38.2801 134.134V132.078H34.2158Z" fill="#FFAB90"/>
<path d="M32.6544 141.132H45.5593C45.8675 141.132 46.148 141.003 46.3522 140.789C46.5564 140.575 46.6836 140.281 46.6836 139.959C46.6836 139.468 46.3926 139.03 45.9543 138.855C44.5959 138.322 42.221 137.73 41.7191 137.205C41.0468 136.504 39.8726 135.33 39.0332 135.39C38.1938 135.449 37.692 136.854 36.4038 137.674C35.4908 138.255 34.5042 136.819 34.0123 135.936C33.8452 135.639 33.4269 135.635 33.2697 135.936C32.2261 137.909 32.6544 141.132 32.6544 141.132Z" fill="#2E363A"/>
<path d="M23.7793 132.078H27.8435V138.697H23.7793V132.078Z" fill="#FEC9AC"/>
<path d="M23.7793 132.078V134.419C25.1406 134.499 26.5067 134.404 27.8435 134.134V132.078H23.7793Z" fill="#FFAB90"/>
<path d="M22.2183 141.132H35.1236C35.4313 141.132 35.7124 141.003 35.9166 140.789C36.1202 140.575 36.2475 140.281 36.2475 139.958C36.2475 139.468 35.9564 139.03 35.5182 138.855C34.1603 138.322 31.7854 137.73 31.2835 137.205C30.6112 136.504 29.437 135.33 28.5971 135.39C27.7577 135.449 27.2558 136.854 25.9682 137.674C25.0552 138.255 24.068 136.819 23.5761 135.936C23.409 135.639 22.9913 135.635 22.8336 135.936C21.79 137.909 22.2183 141.132 22.2183 141.132ZM42.6905 85.9072C42.6905 85.91 42.6877 85.9128 42.6905 85.9161C42.5577 86.7571 42.9992 132.783 40.968 133.395C39.3483 133.878 35.2891 133.398 33.6496 133.174C33.5522 133.162 33.4636 133.148 33.3829 133.136C33.3746 133.136 33.369 133.136 33.3607 133.133C33.0996 133.098 32.9468 133.072 32.9468 133.072L32.9026 131.535L32.6713 123.486C32.6713 123.486 32.2325 125.249 31.6742 127.246C31.4353 128.11 31.1815 128.969 30.9128 129.824C30.4153 131.407 29.9267 132.699 29.6318 132.839C28.8295 133.217 21.8187 132.318 21.5631 131.855C21.4331 131.62 21.6605 120.121 21.9217 108.714C22.1801 97.3645 22.4695 86.1048 22.4695 86.1048L42.6905 85.9072Z" fill="#3A4146"/>
<path d="M37.04 93.1213C37.04 93.1213 36.9404 120.133 33.3835 133.136C33.378 133.147 33.3752 133.162 33.3725 133.173L33.3614 133.132L32.9027 131.535L32.672 123.486C32.672 123.486 32.2332 125.249 31.6749 127.245L31.5166 126.689C32.2802 116.059 34.2307 104.814 37.04 93.1213Z" fill="#2E363A"/>
<path d="M29.5882 132.989L29.1201 132.692C29.9595 131.367 30.7049 126.5 31.7363 119.765C32.8352 112.591 34.3392 102.767 36.7412 92.2285L37.2807 92.3519C34.8831 102.871 33.3802 112.684 32.2835 119.849C31.2029 126.904 30.4891 131.566 29.5882 132.989Z" fill="#2E363A"/>
<path d="M21.9209 108.715C24.5813 102.818 28.2621 97.4235 32.7441 92.8945C35.6242 89.9889 38.9879 87.3772 42.6897 85.9169C42.6869 85.9147 42.6897 85.9114 42.6897 85.9092L22.4698 86.1073C22.4698 86.1073 22.1804 97.3648 21.9209 108.715Z" fill="#2E363A"/>
<path d="M60.9505 77.7333C60.9505 77.7333 59.9412 77.2481 57.4977 77.8069C56.4027 78.0559 53.9592 78.2313 51.4221 78.0908C48.2936 77.9121 45.0245 77.2481 43.9826 75.6384C42.1007 72.7201 42.0127 70.2301 42.0127 70.2301L49.0749 69.0388C49.0749 69.0388 50.1871 71.5819 50.8334 71.8774C51.027 71.9654 51.9046 72.1906 53.0578 72.4689C53.0605 72.4689 53.0633 72.4717 53.0633 72.4717C55.794 73.1246 60.0519 74.0576 60.354 74.0697C60.784 74.0869 63.7017 72.205 64.0614 73.0367C64.4188 73.8705 63.3243 74.4144 63.3243 74.4144C63.3243 74.4144 67.3305 74.28 67.4887 75.0497C67.647 75.8133 66.4556 78.5678 60.9505 77.7333Z" fill="#FFC8AF"/>
<g opacity="0.5">
<path d="M49.8971 73.1944C49.2359 74.1251 49.7273 75.416 50.3099 76.3993C50.6557 76.9791 51.0268 77.5435 51.4221 78.0908C48.2936 77.9121 45.0245 77.2481 43.9826 75.6384C42.1007 72.7201 42.0127 70.2301 42.0127 70.2301L49.0749 69.0388C49.0749 69.0388 50.1871 71.5819 50.8334 71.8774C51.027 71.9654 51.9046 72.1906 53.0578 72.4689C51.9196 72.3079 50.5556 72.2642 49.8971 73.1944Z" fill="#FFAB90"/>
</g>
<path d="M42.3135 71.9139L42.3528 72.0804L42.8618 74.229L42.8718 74.2622L43.1817 75.5614L44.4847 87.2833H21.1258C21.1291 87.234 21.1291 87.1787 21.1324 87.1228C21.1618 86.2546 21.221 85.2426 21.2957 84.1713C21.5281 80.8967 21.9099 77.1252 22.0759 75.5515C22.1284 75.0751 22.1544 74.8006 22.1544 74.8006C22.0943 74.8194 22.0334 74.8357 21.9718 74.8493C20.3229 75.3229 18.8532 75.4436 17.5933 75.3689C14.0929 75.173 12.1729 73.4654 12.1729 73.4654C12.1955 73.3868 12.2188 73.3049 12.2415 73.2302C12.2547 73.191 12.2642 73.1483 12.2774 73.1091L12.2741 73.1124C12.2741 73.1124 12.6952 68.9591 13.8445 65.2595C14.6839 62.5659 15.9051 60.1135 17.6293 59.673C18.0764 59.0527 18.602 58.4612 18.9545 57.7922C20.2903 56.1533 21.8213 54.9387 23.6108 54.3151C24.3844 53.9333 25.5475 53.5637 26.9413 53.2438C29.8602 52.571 33.7816 52.1078 37.2101 52.1339C40.4559 52.1532 43.2541 52.6136 44.3348 53.7468C46.121 55.6276 47.5967 60.8157 48.4621 64.793C48.5042 64.995 48.5468 65.1942 48.5861 65.3906C48.6547 65.7005 48.7133 66.0043 48.7687 66.2914C49.0564 67.7639 49.2357 68.9364 49.2816 69.4814C49.4548 71.542 42.3135 71.9139 42.3135 71.9139Z" fill="#FE4C40"/>
<path d="M48.7698 66.2913C49.0576 67.7643 49.2341 68.9352 49.2794 69.4824C49.4532 71.5419 42.313 71.9154 42.313 71.9154L42.3534 72.0809L42.8635 74.2289L42.8718 74.2604L43.1823 75.5597L44.4843 87.2837C38.4463 89.3272 30.0721 88.6211 21.127 87.2837C21.1297 87.2322 21.1297 87.1786 21.1325 87.1243L21.3123 87.1326C26.7654 86.4686 31.5152 83.0612 35.3449 79.1265C37.0309 77.3945 38.6377 75.4568 39.2846 73.1261C40.1649 69.9522 39.1424 66.573 39.3731 63.2878C39.6863 64.5616 40.1279 65.9007 41.1565 66.713C42.7833 67.995 45.1283 67.4766 47.1143 66.8956C47.6787 66.7296 48.2541 66.5619 48.7698 66.2913Z" fill="#EA241F"/>
<path d="M37.8973 40.0641C36.6265 42.5116 35.8543 45.187 35.6254 47.9353C35.476 49.717 35.5695 51.5818 36.327 53.1809C37.4005 55.4468 39.6415 56.8357 41.9068 57.6446C42.7329 57.9396 43.5928 58.1764 44.4632 58.1465C45.3336 58.1166 46.2256 57.7896 46.811 57.1051C47.3964 56.4207 47.6067 55.3461 47.1828 54.5382C46.9272 54.0507 46.4862 53.711 46.1005 53.3314C45.7154 52.9518 45.3568 52.4671 45.359 51.9093C45.3624 50.9012 46.4961 50.2593 46.6356 49.2627C46.7562 48.4062 46.1044 47.6553 45.447 47.1424C44.7897 46.63 44.0266 46.1464 43.7461 45.3341C43.4014 44.3364 43.9121 43.2657 44.129 42.2288C44.4223 40.8189 44.1389 39.285 43.3654 38.0976C42.8879 37.3661 41.1919 35.5699 40.2103 36.0347C39.7582 36.2494 39.4411 37.3262 39.2016 37.7517C38.7688 38.5236 38.3079 39.2778 37.8973 40.0641Z" fill="#2E363A"/>
<path d="M38.1414 54.8653V54.872C38.1403 54.923 38.1313 54.9736 38.1149 55.0219C38.1115 55.0286 38.1115 55.0352 38.1115 55.0418C38.0036 57.0792 36.9462 60.6383 33.5764 60.6383C33.4751 60.6382 33.3738 60.6349 33.2726 60.6283C29.1879 60.3771 27.1046 54.4509 26.9414 53.2424C27.1506 53.1937 27.3658 53.1483 27.5883 53.1024L27.6796 53.0825H27.6862L27.9667 53.0238C30.5397 52.5115 33.681 52.1617 36.5511 52.1357C36.5052 52.4849 36.4726 52.8053 36.4919 52.9425C36.5019 53.0045 36.5345 53.0925 36.5805 53.2037C36.8184 53.7459 38.0208 54.774 38.1414 54.8653Z" fill="#EA241F"/>
<path d="M40.6388 47.2764C39.9039 50.4669 37.4294 50.8354 36.8672 50.8747C36.7953 50.8847 36.7533 50.8847 36.7533 50.8847C36.7533 50.8847 36.6321 51.5509 36.5507 52.1352C36.5048 52.4843 36.4722 52.8047 36.4915 52.942C36.5015 53.0039 36.5341 53.0919 36.5801 53.2031C36.818 53.7454 38.0198 54.7735 38.1405 54.8648V54.8714C38.1377 54.888 38.1277 54.94 38.1145 55.0214C38.1111 55.028 38.1111 55.0347 38.1111 55.0413C37.9285 55.9587 36.8938 60.1967 33.3115 59.9781C29.4813 59.743 27.5159 53.5882 27.5878 53.1019C27.5878 53.0786 27.5972 53.0687 27.6105 53.0725C27.6327 53.0793 27.6559 53.0825 27.6791 53.0819H27.6858C27.7577 53.0819 27.8518 53.0626 27.9663 53.0233C28.4201 52.8761 29.1549 52.4716 29.7658 52.1612C30.5947 51.7534 30.2615 46.3429 30.2615 46.3429C27.7837 45.784 28.394 43.688 28.456 43.0223C28.5152 42.3462 29.1029 41.8792 30.4513 40.1749C31.7965 38.4706 38.8653 37.7624 39.9499 39.0289C41.0366 40.2988 41.4743 43.6653 40.6388 47.2764Z" fill="#FFC8AF"/>
<path d="M29.0209 54.2334C29.0209 54.2334 27.621 55.4242 27.5861 55.8442C27.5507 56.2647 32.3813 63.23 34.3412 63.79L35.1812 60.0799L36.3709 63.23L39.1364 55.9493L37.9816 55.0042C37.9816 55.0042 35.4612 59.6594 35.0766 59.6245C34.6915 59.5897 30.2111 56.6476 29.0209 54.2334Z" fill="white"/>
<path d="M36.9811 48.7534C37.0055 48.8602 36.7819 49.0494 36.2507 49.0555C35.8036 48.9979 35.3947 48.8972 34.9841 48.5907C34.754 48.3727 34.7042 48.0833 34.7517 47.9322C34.7971 47.769 34.8934 47.7292 34.9449 47.7524C35.0594 47.8044 35.0699 48.0036 35.3422 48.1624C35.5712 48.3411 35.9641 48.4667 36.305 48.4999C36.7183 48.5885 36.9562 48.6239 36.9811 48.7534ZM34.2781 42.5256C34.2537 42.5107 34.2504 42.4542 34.2881 42.3607C34.3268 42.2694 34.4098 42.1383 34.568 42.0176C34.7058 41.9243 34.8621 41.8618 35.0263 41.8344C35.1904 41.807 35.3586 41.8153 35.5192 41.8588C35.7046 41.9225 35.8213 42.0193 35.8844 42.0946C35.9475 42.1709 35.9602 42.2263 35.9409 42.2495C35.8983 42.3032 35.7538 42.1975 35.4528 42.1388C35.3277 42.1046 35.1967 42.0979 35.0688 42.1192C34.9409 42.1405 34.8191 42.1893 34.7119 42.2622C34.4419 42.416 34.3362 42.5638 34.2781 42.5256ZM38.2267 41.8522C38.2007 41.8057 38.3285 41.643 38.6887 41.56C38.9956 41.5165 39.3086 41.5566 39.5945 41.6762C39.9254 41.8478 40.0123 42.0376 39.9763 42.0774C39.9343 42.1311 39.7898 42.042 39.4949 41.9446C39.2516 41.8429 38.9852 41.8088 38.7241 41.8461C38.4165 41.866 38.256 41.9158 38.2261 41.8516L38.2267 41.8522ZM36.84 46.8084C36.8633 46.7863 36.9396 46.851 37.0829 46.9573C37.1538 47.0076 37.2467 47.0674 37.3557 47.0917C37.4598 47.1155 37.6081 47.095 37.6844 47.0048C37.8227 46.8731 37.7231 46.4747 37.6888 46.1649C37.6401 45.8408 37.5762 45.5191 37.4974 45.201C37.3314 44.4462 37.2251 44.0722 37.2855 44.0473C37.3353 44.0257 37.54 44.3632 37.7602 45.1274C37.8822 45.6196 37.9692 46.1197 38.0208 46.6241C38.0286 46.7127 38.033 46.8084 38.0164 46.9119C38.0004 47.0142 37.9555 47.1266 37.8753 47.2096C37.6739 47.3955 37.4481 47.3745 37.2938 47.3213C37.1691 47.2713 37.0594 47.1901 36.975 47.0856C36.8472 46.9263 36.819 46.8278 36.84 46.8084Z" fill="#4F2D2A"/>
<path d="M39.0674 44.4472C39.2394 44.4472 39.3789 44.1814 39.3789 43.8535C39.3789 43.5256 39.2394 43.2598 39.0674 43.2598C38.8953 43.2598 38.7559 43.5256 38.7559 43.8535C38.7559 44.1814 38.8953 44.4472 39.0674 44.4472Z" fill="#4F2D2A"/>
<path d="M35.416 44.7736C35.5881 44.7736 35.7275 44.5078 35.7275 44.1799C35.7275 43.852 35.5881 43.5862 35.416 43.5862C35.244 43.5862 35.1045 43.852 35.1045 44.1799C35.1045 44.5078 35.244 44.7736 35.416 44.7736Z" fill="#4F2D2A"/>
<path d="M39.1607 34.4892C37.0553 33.0096 34.412 32.3478 31.9093 32.6865L31.8783 32.6904C30.174 32.9261 28.7171 34.0339 27.9441 35.5716L27.8462 35.7641C26.9155 37.568 25.1243 38.7798 24.4736 40.7502C23.7897 42.8219 24.0016 44.8753 22.6791 46.74C21.5398 48.3464 19.441 49.2721 19.1013 51.377C18.7748 53.4 19.9335 55.335 19.1605 57.3502C18.5391 58.9698 16.7341 60.0759 16.7662 61.8831C16.7933 63.3694 16.5465 64.6005 15.5306 65.5534C15.4437 66.1156 15.3093 66.6694 15.1289 67.209C16.1033 67.3949 17.1204 67.2488 17.9216 66.6529C19.6341 65.3736 19.721 62.7878 20.3297 60.663C21.059 58.1094 22.7926 55.8977 25.0253 54.6715C26.3953 53.919 28.431 53.53 29.5875 52.4455C31.3427 50.7965 31.1645 47.6547 29.7507 45.6716C29.3003 45.0374 28.685 44.4747 28.5351 43.6967C28.3934 42.9696 28.7487 42.1662 29.3634 41.8154C29.9809 41.4624 30.8076 41.5913 31.3023 42.1175C31.647 42.481 31.7378 44.6081 32.1987 44.7735C32.2601 44.7669 32.326 44.7204 32.3957 44.6484C32.8754 42.885 33.7464 41.2023 35.1291 40.0818C36.2729 39.1533 37.7353 38.6608 39.184 38.7117C39.2897 38.7162 39.4905 38.7455 39.6637 38.813C40.7316 37.4352 41.0636 35.8272 39.1607 34.4892Z" fill="#2E363A"/>
<g opacity="0.5">
<path d="M29.0513 43.1186C29.1476 42.6964 29.484 42.3472 29.8841 42.2554C30.0545 42.2155 30.2565 42.231 30.3688 42.3716C30.5016 42.5376 30.4468 42.7998 30.3201 42.9692C30.1928 43.1396 30.0102 43.2503 29.8575 43.3941C29.7048 43.538 29.5753 43.7455 29.6124 43.9585C29.6373 44.1013 29.743 44.3221 29.5415 44.3768C29.3921 44.4178 29.3601 44.2717 29.2953 44.1638C29.1 43.8362 28.9611 43.5181 29.0518 43.118L29.0513 43.1186Z" fill="#FFAB90"/>
</g>
<g opacity="0.5">
<path d="M31.9531 49.0566C32.5596 50.5163 33.6253 51.7497 34.9411 52.5211C35.4602 52.821 36.0113 53.0523 36.5812 53.2044C36.5433 53.1209 36.5138 53.0338 36.4932 52.9444C36.4423 52.5753 36.7533 50.8849 36.7533 50.8849C36.7533 50.8849 36.7942 50.8849 36.8684 50.8749C35.1171 50.7421 33.4029 50.1085 31.9531 49.0566Z" fill="#FFAB90"/>
</g>
<path d="M46.4519 48.7592C46.6195 49.0646 46.5415 49.4486 46.3927 49.7635C46.2433 50.0789 46.0275 50.3616 45.9102 50.6897C45.6069 51.5363 46.0264 52.4825 46.6129 53.1648C47.1994 53.8471 47.952 54.3744 48.5081 55.081C49.0636 55.7882 49.3989 56.7886 48.9862 57.5876C48.7427 58.0585 48.274 58.3932 48.0765 58.8852C47.843 59.4662 48.0394 60.1285 48.3144 60.6912C48.5889 61.2534 48.9452 61.7924 49.0476 62.4104C49.1505 63.0274 48.8982 63.7678 48.3044 63.9648C48.1124 64.0284 47.8928 64.0262 47.7157 63.9282C47.5613 63.8425 47.4534 63.6942 47.3494 63.552C46.3163 62.1365 44.9878 60.7134 43.2459 60.5214C42.5232 60.4411 41.7779 60.5839 41.074 60.4041C40.2241 60.1872 39.5203 59.4745 39.3139 58.6223C39.2143 58.2101 39.2226 57.7746 39.0926 57.3712C38.8026 56.4699 37.8725 55.8629 37.6666 54.9388C37.4547 53.9871 38.0977 53.0409 38.8673 52.4421C39.6376 51.8434 40.5594 51.4506 41.2799 50.7932C42.0383 50.097 42.524 49.1535 42.6499 48.1317C42.9746 48.075 43.3075 48.0868 43.6273 48.1661C43.9472 48.2455 44.247 48.3908 44.5075 48.5926M41.9616 73.9336L39.7162 85.2681C39.6011 85.848 39.0367 86.3194 38.4573 86.3194H30.7793C30.1999 86.3194 29.8226 85.848 29.9377 85.2681L32.1858 73.9336C32.3004 73.3515 32.8626 72.8823 33.4419 72.8823H41.12C41.6993 72.8823 42.0767 73.3515 41.9616 73.9336Z" fill="#2E363A"/>
<path d="M34.9485 83.5274C32.6101 84.9605 29.7411 85.0159 28.4136 84.8548C27.0834 84.696 15.3411 83.2612 13.6922 77.6283C12.0449 71.9965 14.4364 71.9434 14.4364 71.9434C14.5969 71.9434 19.6986 72.5271 20.3875 73.802C20.5336 74.0726 20.9519 74.4953 21.5252 74.99C23.6605 76.8437 27.9522 79.7299 28.4131 79.6474C28.9969 79.5423 30.4975 76.9671 31.2943 76.4895C32.0911 76.0098 31.2821 79.0642 31.2821 79.0642C31.2821 79.0642 34.0516 77.3666 35.6988 77.7639C36.1764 77.8779 36.5106 78.2901 36.686 78.8506C37.1192 80.2268 36.6096 82.5082 34.9485 83.5274Z" fill="#FFC8AF"/>
<g opacity="0.5">
<path d="M34.9485 83.5274C32.6101 84.9605 29.7411 85.0159 28.4136 84.8548C27.0834 84.696 15.3411 83.2612 13.6922 77.6283C12.0449 71.9965 14.4364 71.9434 14.4364 71.9434C14.5969 71.9434 19.6986 72.5271 20.3875 73.802C20.5336 74.0726 20.9519 74.4953 21.5252 74.99C21.1085 76.339 21.4937 77.9243 22.3646 79.0747C23.4215 80.4719 25.0599 81.3201 26.7221 81.8823C28.2144 82.3875 29.7981 82.6985 31.3646 82.5353C32.9333 82.3709 34.4854 81.6898 35.4891 80.4769C35.9185 79.9584 36.2378 79.3558 36.686 78.8501C37.1192 80.2268 36.6096 82.5076 34.9485 83.5274Z" fill="#FFC8AF"/>
</g>
<path d="M43.0948 70.0531C43.1159 69.8794 43.6509 69.8622 44.6453 69.6691C45.4995 69.5525 46.3196 69.2575 47.0523 68.8032C47.9409 68.319 48.3637 67.992 48.4937 68.1148C48.6033 68.2089 48.3709 68.7628 47.4435 69.4362C46.6227 69.9451 45.704 70.2758 44.7471 70.4067C43.6017 70.4787 43.0694 70.1998 43.0948 70.0531ZM22.1982 72.0988C22.2812 72.1957 21.7262 72.9172 20.1011 73.5546C18.7061 74.0218 17.2207 74.1539 15.7652 73.9403C14.0554 73.5995 13.3814 72.9875 13.4478 72.874C13.5264 72.6997 14.2905 73.0246 15.8725 73.2033C17.2055 73.4014 18.5894 73.278 19.8665 72.8486C21.3937 72.3926 22.0881 71.9378 22.1982 72.0988Z" fill="white"/>
<path d="M23.4542 67.0993C23.5156 69.7581 23.01 72.3994 21.9713 74.8476C20.3223 75.3213 18.8532 75.4419 17.5933 75.3672C14.0929 75.1713 12.1729 73.4637 12.1729 73.4637C12.1955 73.3852 12.2188 73.3033 12.2415 73.2286C12.2547 73.1893 12.2642 73.1467 12.2774 73.1074L12.2741 73.1107C12.2741 73.1107 12.6952 68.9574 13.8445 65.2578C14.4255 66.7568 15.5294 68.0499 16.9398 68.8235C18.0598 69.441 19.3922 69.7348 20.6427 69.4637C21.8933 69.1926 23.0364 68.3111 23.4542 67.0993Z" fill="#EA241F"/>
<path d="M19.0689 50.9722C19.661 52.9587 19.3234 55.2002 18.1736 56.9244C17.4449 58.0178 16.4312 58.8832 15.4844 59.794C14.5382 60.7053 13.6241 61.7124 13.1842 62.9502C12.7443 64.188 12.8788 65.7102 13.8222 66.6243C14.5504 67.3304 15.605 67.56 16.6055 67.7277C17.1793 67.824 17.7658 67.9092 18.3402 67.8184C18.9145 67.7277 19.4845 67.4333 19.7733 66.9287C20.185 66.2077 19.9382 65.267 20.273 64.5078C20.6858 63.5727 21.8118 63.2186 22.8155 63.0221C23.8193 62.8257 24.9403 62.6182 25.5379 61.7882C26.2794 60.7601 25.8605 59.2539 26.4703 58.1429C27.0236 57.1347 28.2731 56.7108 28.962 55.7895C29.6514 54.8671 29.6647 53.6221 29.6481 52.4712C29.6315 51.2389 29.5894 49.9247 28.8867 48.9121C28.433 48.2592 27.7479 47.8022 27.2549 47.178C26.5489 46.2849 26.2883 45.1041 26.3115 43.9659C26.3347 42.8277 26.6175 41.7122 26.8991 40.6094" fill="#2E363A"/>
<g clip-path="url(#clip1_32_1695)">
<path d="M73.6087 68.1275C73.782 68.1275 73.9224 67.987 73.9224 67.8138C73.9224 67.6405 73.782 67.5 73.6087 67.5C73.4354 67.5 73.2949 67.6405 73.2949 67.8138C73.2949 67.987 73.4354 68.1275 73.6087 68.1275Z" fill="#444B54"/>
<path d="M74.9681 68.1275C75.1413 68.1275 75.2818 67.987 75.2818 67.8138C75.2818 67.6405 75.1413 67.5 74.9681 67.5C74.7948 67.5 74.6543 67.6405 74.6543 67.8138C74.6543 67.987 74.7948 68.1275 74.9681 68.1275Z" fill="#444B54"/>
<path d="M76.3274 68.1275C76.5007 68.1275 76.6412 67.987 76.6412 67.8138C76.6412 67.6405 76.5007 67.5 76.3274 67.5C76.1541 67.5 76.0137 67.6405 76.0137 67.8138C76.0137 67.987 76.1541 68.1275 76.3274 68.1275Z" fill="#444B54"/>
<path d="M81.4627 76.5676C81.3372 76.4421 81.1385 76.4421 81.0235 76.5676C80.8038 76.7872 80.511 76.9127 80.1972 76.9127C79.8835 76.9127 79.5906 76.7872 79.371 76.5676C79.256 76.4525 79.0468 76.4525 78.9317 76.5676C78.7121 76.7872 78.4193 76.9127 78.1055 76.9127C77.844 76.9127 77.6035 76.829 77.4048 76.6722C77.7604 74.7582 78.6598 73.0012 80.0194 71.5892L80.4273 71.1604C80.5005 71.0872 80.5319 70.9826 80.511 70.8781C80.4901 70.7735 80.4169 70.6898 80.3227 70.648L79.4651 70.3237V67.8137C79.4651 67.6359 79.3292 67.4999 79.1514 67.4999H77.8963V66.2449C77.8963 66.0671 77.7604 65.9311 77.5826 65.9311H75.9092V64.6761C75.9092 64.4983 75.7732 64.3623 75.5954 64.3623H74.3404C74.1626 64.3623 74.0266 64.4983 74.0266 64.6761V65.9311H72.3532C72.1754 65.9311 72.0395 66.0671 72.0395 66.2449V67.4999H70.7844C70.6066 67.4999 70.4707 67.6359 70.4707 67.8137V68.8491C70.4707 69.006 70.5753 69.1419 70.7217 69.1733C70.9204 69.2151 71.0982 69.0582 71.0982 68.87V68.1379H72.3532C72.531 68.1379 72.667 68.0019 72.667 67.8241V66.5586H77.2688V67.8137C77.2688 67.9915 77.4048 68.1274 77.5826 68.1274H78.8376V70.0727L75.0829 68.5667C75.0097 68.5353 74.9261 68.5353 74.8529 68.5667L69.6235 70.6584C69.5294 70.7003 69.4562 70.7839 69.4353 70.8885C69.4143 70.9931 69.4457 71.0977 69.5189 71.1709L70 71.6729C71.0459 72.7606 71.7257 74.1307 72.2591 75.5531C72.3009 75.6786 72.4264 75.7518 72.5519 75.7518C72.5938 75.7518 72.6356 75.7413 72.667 75.7309C72.8239 75.6681 72.8971 75.4903 72.8448 75.3334C72.3532 73.7751 71.5061 72.3318 70.3765 71.15L70.2929 71.0559L74.3718 69.4243C74.5077 69.3825 74.6541 69.4871 74.6541 69.6335V76.6512C74.194 77.0173 73.5246 76.9964 73.0958 76.5676C72.9703 76.4421 72.7716 76.4421 72.6565 76.5676C72.2068 77.0173 71.4642 77.0173 71.0041 76.5676C70.8786 76.4421 70.6798 76.4421 70.5648 76.5676C70.3452 76.7872 70.0523 76.9127 69.7386 76.9127C69.5608 76.9127 69.4248 77.0487 69.4248 77.2265C69.4248 77.4043 69.5608 77.5402 69.7386 77.5402C70.1151 77.5402 70.4811 77.4252 70.7844 77.2055C71.412 77.6553 72.2486 77.6553 72.8762 77.2055C73.5037 77.6553 74.3404 77.6553 74.9679 77.2055C75.585 77.6553 76.4321 77.6553 77.0596 77.2055C77.3629 77.4252 77.729 77.5402 78.1055 77.5402C78.482 77.5402 78.8481 77.4252 79.1514 77.2055C79.4547 77.4252 79.8207 77.5402 80.1972 77.5402C80.6783 77.5402 81.1281 77.352 81.4627 77.0173C81.5882 76.8918 81.5882 76.6931 81.4627 76.5676Z" fill="#444B54"/>
<path d="M73.6087 71.2652C73.782 71.2652 73.9224 71.1247 73.9224 70.9515C73.9224 70.7782 73.782 70.6377 73.6087 70.6377C73.4354 70.6377 73.2949 70.7782 73.2949 70.9515C73.2949 71.1247 73.4354 71.2652 73.6087 71.2652Z" fill="#444B54"/>
<path d="M68.6927 77.1119C68.866 77.1119 69.0064 76.9714 69.0064 76.7981C69.0064 76.6249 68.866 76.4844 68.6927 76.4844C68.5194 76.4844 68.3789 76.6249 68.3789 76.7981C68.3789 76.9714 68.5194 77.1119 68.6927 77.1119Z" fill="#444B54"/>
</g>
<g clip-path="url(#clip2_32_1695)">
<path d="M79.2354 39.2413C79.374 39.2413 79.4864 39.1289 79.4864 38.9903C79.4864 38.8516 79.374 38.7393 79.2354 38.7393C79.0968 38.7393 78.9844 38.8516 78.9844 38.9903C78.9844 39.1289 79.0968 39.2413 79.2354 39.2413Z" fill="#444B54"/>
<path d="M80.3223 39.2413C80.4609 39.2413 80.5733 39.1289 80.5733 38.9903C80.5733 38.8516 80.4609 38.7393 80.3223 38.7393C80.1837 38.7393 80.0713 38.8516 80.0713 38.9903C80.0713 39.1289 80.1837 39.2413 80.3223 39.2413Z" fill="#444B54"/>
<path d="M81.4102 39.2413C81.5488 39.2413 81.6612 39.1289 81.6612 38.9903C81.6612 38.8516 81.5488 38.7393 81.4102 38.7393C81.2716 38.7393 81.1592 38.8516 81.1592 38.9903C81.1592 39.1289 81.2716 39.2413 81.4102 39.2413Z" fill="#444B54"/>
<path d="M85.519 45.9937C85.4186 45.8933 85.2596 45.8933 85.1676 45.9937C84.9919 46.1694 84.7576 46.2698 84.5066 46.2698C84.2556 46.2698 84.0213 46.1694 83.8456 45.9937C83.7536 45.9017 83.5863 45.9017 83.4942 45.9937C83.3185 46.1694 83.0842 46.2698 82.8332 46.2698C82.6241 46.2698 82.4316 46.2029 82.2726 46.0774C82.5571 44.5462 83.2767 43.1406 84.3644 42.011L84.6907 41.668C84.7493 41.6094 84.7744 41.5258 84.7576 41.4421C84.7409 41.3584 84.6823 41.2915 84.607 41.258L83.9209 40.9986V38.9906C83.9209 38.8483 83.8122 38.7396 83.6699 38.7396H82.6659V37.7355C82.6659 37.5933 82.5571 37.4845 82.4149 37.4845H81.0762V36.4805C81.0762 36.3383 80.9674 36.2295 80.8252 36.2295H79.8211C79.6789 36.2295 79.5701 36.3383 79.5701 36.4805V37.4845H78.2314C78.0892 37.4845 77.9804 37.5933 77.9804 37.7355V38.7396H76.9764C76.8341 38.7396 76.7254 38.8483 76.7254 38.9906V39.8189C76.7254 39.9444 76.809 40.0532 76.9262 40.0783C77.0851 40.1118 77.2274 39.9862 77.2274 39.8356V39.25H78.2314C78.3737 39.25 78.4824 39.1412 78.4824 38.9989V37.9865H82.1639V38.9906C82.1639 39.1328 82.2726 39.2416 82.4149 39.2416H83.4189V40.7978L80.4152 39.593C80.3566 39.5679 80.2897 39.5679 80.2311 39.593L76.0476 41.2664C75.9723 41.2999 75.9138 41.3668 75.897 41.4505C75.8803 41.5341 75.9054 41.6178 75.964 41.6764L76.3489 42.078C77.1855 42.9481 77.7294 44.0442 78.1561 45.1821C78.1896 45.2825 78.29 45.3411 78.3904 45.3411C78.4239 45.3411 78.4573 45.3327 78.4824 45.3244C78.6079 45.2741 78.6665 45.1319 78.6247 45.0064C78.2314 43.7597 77.5537 42.6051 76.6501 41.6596L76.5831 41.5843L79.8462 40.2791C79.955 40.2456 80.0721 40.3293 80.0721 40.4464V46.0606C79.704 46.3535 79.1685 46.3368 78.8255 45.9937C78.7251 45.8933 78.5661 45.8933 78.4741 45.9937C78.1143 46.3535 77.5202 46.3535 77.1521 45.9937C77.0517 45.8933 76.8927 45.8933 76.8007 45.9937C76.625 46.1694 76.3907 46.2698 76.1397 46.2698C75.9974 46.2698 75.8887 46.3786 75.8887 46.5208C75.8887 46.6631 75.9974 46.7718 76.1397 46.7718C76.4409 46.7718 76.7337 46.6798 76.9764 46.5041C77.4784 46.8639 78.1477 46.8639 78.6498 46.5041C79.1518 46.8639 79.8211 46.8639 80.3231 46.5041C80.8168 46.8639 81.4945 46.8639 81.9965 46.5041C82.2392 46.6798 82.532 46.7718 82.8332 46.7718C83.1344 46.7718 83.4273 46.6798 83.6699 46.5041C83.9126 46.6798 84.2054 46.7718 84.5066 46.7718C84.8915 46.7718 85.2513 46.6212 85.519 46.3535C85.6194 46.2531 85.6194 46.0941 85.519 45.9937Z" fill="#444B54"/>
<path d="M79.2354 41.751C79.374 41.751 79.4864 41.6387 79.4864 41.5C79.4864 41.3614 79.374 41.249 79.2354 41.249C79.0968 41.249 78.9844 41.3614 78.9844 41.5C78.9844 41.6387 79.0968 41.751 79.2354 41.751Z" fill="#444B54"/>
<path d="M75.3028 46.429C75.4414 46.429 75.5538 46.3166 75.5538 46.178C75.5538 46.0394 75.4414 45.927 75.3028 45.927C75.1641 45.927 75.0518 46.0394 75.0518 46.178C75.0518 46.3166 75.1641 46.429 75.3028 46.429Z" fill="#444B54"/>
</g>
</g>
<defs>
<clipPath id="clip0_32_1695">
<rect width="10.7097" height="10.7097" fill="white" transform="translate(74.9668 95.0479)"/>
</clipPath>
<clipPath id="clip1_32_1695">
<rect width="13.3871" height="13.3871" fill="white" transform="translate(68.2744 64.2578)"/>
</clipPath>
<clipPath id="clip2_32_1695">
<rect width="10.7097" height="10.7097" fill="white" transform="translate(74.9678 36.1455)"/>
</clipPath>
</defs>
</svg>
