<svg width="260" height="166" viewBox="0 0 260 166" fill="none" xmlns="http://www.w3.org/2000/svg">
<g opacity="0.5">
<path d="M40.4357 117.575C40.4357 117.575 36.2757 107.44 25.8635 103.364C25.8635 103.364 27.8231 115.852 33.7008 119.605C33.7008 119.605 26.4754 110.868 12.3938 108.287C12.3938 108.287 16.1898 128.666 31.6191 131.011C31.6191 131.011 24.7611 126.321 9.57715 125.457C9.57715 125.457 17.4144 138.367 30.3945 139.009C30.3945 139.009 19.3731 137.676 11.6589 140.638C16.9455 143.536 30.9171 146.055 42.0789 145.167L40.4357 117.575Z" fill="#61BA76"/>
<mask id="mask0_32_1952" style="mask-type:luminance" maskUnits="userSpaceOnUse" x="9" y="103" width="34" height="43">
<path d="M40.4357 117.575C40.4357 117.575 36.2757 107.44 25.8635 103.364C25.8635 103.364 27.8231 115.852 33.7008 119.605C33.7008 119.605 26.4754 110.868 12.3938 108.287C12.3938 108.287 16.1898 128.666 31.6191 131.011C31.6191 131.011 24.7611 126.321 9.57715 125.457C9.57715 125.457 17.4144 138.367 30.3945 139.009C30.3945 139.009 19.3731 137.676 11.6589 140.638C16.9455 143.536 30.9171 146.055 42.0789 145.167L40.4357 117.575Z" fill="white"/>
</mask>
<g mask="url(#mask0_32_1952)">
<path d="M36.5514 109.798L33.5068 146.738H44.7475L41.2349 112.611L36.5514 109.798Z" fill="#3E5409"/>
<path d="M38.5354 131.925C34.7126 127.718 12.3621 108.709 12.2962 108.206C12.5588 108.205 35.4787 127.755 38.5354 131.925ZM42.0758 140.736C36.3809 135.974 9.67196 125.879 9.45703 125.41C9.5957 125.241 37.3394 135.938 42.0758 140.736ZM42.9 128.445C41.6996 125.038 25.7573 103.748 25.785 103.26C26.5529 103.962 42.3323 125.128 42.9 128.445ZM44.3196 142.737C38.6533 141.658 11.8334 141.021 11.5266 140.633C11.5206 140.473 39.78 141.261 44.3196 142.737Z" fill="#3E5409"/>
</g>
<path d="M216.659 119.192C216.659 119.192 218.813 106.927 224.632 102.892C224.632 102.892 226.937 112.858 224.632 116.921C224.632 116.921 232.152 109.616 239.671 105.948C239.671 105.948 239.793 121.108 229.848 124.775C229.848 124.775 236.155 121.596 249.253 124.163C249.253 124.163 238.944 134.676 231.788 134.676C231.788 134.676 242.947 135.165 249.253 139.688C245.353 142.374 226.204 146.512 213.353 145.265L216.659 119.192Z" fill="#61BA76"/>
<mask id="mask1_32_1952" style="mask-type:luminance" maskUnits="userSpaceOnUse" x="213" y="102" width="37" height="44">
<path d="M216.659 119.192C216.659 119.192 218.813 106.927 224.632 102.892C224.632 102.892 226.937 112.858 224.632 116.921C224.632 116.921 232.152 109.616 239.671 105.948C239.671 105.948 239.793 121.108 229.848 124.775C229.848 124.775 236.155 121.596 249.253 124.163C249.253 124.163 238.944 134.676 231.788 134.676C231.788 134.676 242.947 135.165 249.253 139.688C245.353 142.374 226.204 146.512 213.353 145.265L216.659 119.192Z" fill="white"/>
</mask>
<g mask="url(#mask1_32_1952)">
<path d="M218.411 109.303C218.411 109.303 221.501 140.175 225.659 146.403L211.162 146.523L210.925 112.838L218.411 109.303Z" fill="#3E5409"/>
<path d="M217.977 131.751C220.691 125.743 239.465 105.877 239.762 105.855C239.744 106.341 221.364 125.669 217.977 131.751ZM216.407 128.559C217.007 126.267 219.3 121.357 221.412 113.663C223.292 107.809 224.252 102.89 224.668 102.766C224.245 105.663 218.513 125.143 216.407 128.559ZM217.214 136.736C220.761 131.959 245.337 124.758 249.38 124.131C245.203 125.395 221.764 132.025 217.214 136.736ZM216.205 140.498C214.66 138.794 247.032 138.6 249.383 139.699C249.13 140.048 243.633 139.262 236.47 139.244C224.855 139.019 219.093 139.804 216.205 140.498Z" fill="#3E5409"/>
</g>
<path d="M149.846 75.661C137.713 64.6858 117.537 67.7262 109.099 81.9717L118.473 83.4779C125.146 76.1783 136.361 75.5011 143.828 81.6388L138.909 86.5314L156.528 89.5893L153.746 71.7871L149.846 75.661ZM114.053 131.489C126.186 142.465 146.362 139.424 154.8 125.179L145.426 123.675C138.753 130.976 127.538 131.652 120.071 125.51L124.99 120.617L107.371 117.559L110.153 135.366L114.053 131.489ZM137.027 33.0654L126.756 41.7035L114.226 37.0573C113.347 37.1333 116.02 48.8643 115.947 49.4086C116.018 49.8152 116.246 50.1767 116.581 50.4139C116.916 50.6511 117.331 50.7445 117.735 50.6737L138.284 47.0042C138.688 46.932 139.047 46.7011 139.282 46.3623C139.517 46.0235 139.609 45.6045 139.537 45.1974C139.273 44.6243 137.816 33.0995 137.027 33.0654Z" fill="white"/>
<path d="M137.026 33.0647C136.854 32.922 136.653 32.8186 136.437 32.7616C136.222 32.7046 135.996 32.6953 135.777 32.7345L115.228 36.4039C115.025 36.4399 114.832 36.5164 114.659 36.6288C114.486 36.7411 114.338 36.8872 114.222 37.0583L126.755 41.7046L137.026 33.0647Z" fill="#D1DCF8"/>
<path d="M112.786 49.3256C112.777 51.1184 110.074 51.1176 110.066 49.3256C110.074 47.5337 112.778 47.5337 112.786 49.3256ZM107.746 54.8561C107.738 56.648 105.035 56.648 105.027 54.8561C105.035 53.0641 107.738 53.0641 107.746 54.8561ZM105.027 62.2282C105.019 64.0201 102.315 64.0201 102.308 62.2282C102.315 60.4354 105.019 60.4363 105.027 62.2282ZM145.935 43.859C145.926 45.6509 143.223 45.6509 143.215 43.859C143.223 42.0662 145.927 42.0662 145.935 43.859ZM152.941 47.1668C152.933 48.9587 150.23 48.9587 150.222 47.1668C150.23 45.374 152.934 45.3748 152.941 47.1668ZM156.629 53.4853C156.621 55.2781 153.918 55.2781 153.91 53.4853C153.92 51.6933 156.622 51.6933 156.629 53.4853Z" fill="white"/>
<path d="M250.422 144.756H15.0322V145.581H250.422V144.756Z" fill="#38385C"/>
<path d="M165.563 145.168H215.682C217.577 145.168 219.113 143.619 219.113 141.709V46.6356C219.113 44.7253 217.577 43.1767 215.682 43.1767H165.563C163.668 43.1767 162.132 44.7253 162.132 46.6356V141.709C162.132 143.619 163.668 145.168 165.563 145.168Z" fill="#38385C"/>
<path d="M166.584 137.669H214.66V50.6777H166.584V137.669Z" fill="#E4ECF9"/>
<mask id="mask2_32_1952" style="mask-type:luminance" maskUnits="userSpaceOnUse" x="166" y="50" width="49" height="88">
<path d="M166.584 137.669H214.66V50.6777H166.584V137.669Z" fill="white"/>
</mask>
<g mask="url(#mask2_32_1952)">
<path d="M166.584 50.6776L210.309 54.0884L208.533 138.167L216.027 137.669L216 48.9844L166.584 50.6776Z" fill="#D1DCF8"/>
<path opacity="0.2" d="M164.764 70.26L216.028 121.497V137.669H166.585L164.764 70.26Z" fill="white"/>
</g>
<path d="M186.388 48.1547H195.483C195.693 48.1547 195.894 48.0707 196.043 47.9211C196.191 47.7715 196.275 47.5686 196.275 47.357C196.275 47.2522 196.254 47.1484 196.215 47.0515C196.175 46.9547 196.116 46.8667 196.043 46.7927C195.969 46.7186 195.882 46.6598 195.786 46.6198C195.69 46.5798 195.587 46.5592 195.483 46.5593H186.388C186.178 46.5593 185.977 46.6434 185.828 46.793C185.68 46.9426 185.597 47.1454 185.597 47.357C185.597 47.5686 185.68 47.7715 185.828 47.921C185.977 48.0706 186.178 48.1547 186.388 48.1547Z" fill="white"/>
<path d="M177.289 73.1644C185.06 65.3458 196.412 91.5869 197.025 92.3497C223.964 105.596 196.573 118.036 177.298 110.732C174.809 110.094 172.581 108.687 170.925 106.708C169.27 104.728 168.27 102.276 168.067 99.6956C167.311 89.9505 167.768 75.0499 177.289 73.1644Z" fill="#38385C"/>
<path d="M172.38 84.8675C174.373 65.9549 192.713 78.1803 184.698 91.4909L186.617 100.998L179.5 102.256L178.562 94.4868C175.074 93.8603 172.38 89.7942 172.38 84.8675Z" fill="#FFC8AF"/>
<mask id="mask3_32_1952" style="mask-type:luminance" maskUnits="userSpaceOnUse" x="172" y="75" width="15" height="28">
<path d="M172.38 84.8675C174.373 65.9549 192.713 78.1803 184.698 91.4909L186.617 100.998L179.5 102.256L178.562 94.4868C175.074 93.8603 172.38 89.7942 172.38 84.8675Z" fill="white"/>
</mask>
<g mask="url(#mask3_32_1952)">
<path d="M187.691 85.6072C187.691 85.6072 182.41 84.2364 180.671 82.7398L182.43 84.4959C182.43 84.4959 177.012 83.2011 175.815 79.8601C175.815 79.8601 173.672 82.5685 173.475 84.813C173.128 82.0661 171.868 76.1924 177.074 75.4541L187.214 83.6554L187.691 85.6072ZM184.7 91.4906C184.7 91.4906 182.914 93.9308 179.5 94.3973C179.5 94.3973 183.385 95.5069 185.876 94.2226L184.701 91.4906" fill="#FFC8AF"/>
<path d="M176.881 90.8799C176.881 90.8799 179.258 90.7384 180.102 89.4619C180.102 89.4619 179.73 91.7501 178.337 91.9668C177.004 92.1738 176.881 90.8799 176.881 90.8799Z" fill="white"/>
</g>
<path d="M178.237 74.3454C178.237 74.3454 177.884 84.0887 186.617 84.343C186.617 84.343 186.953 73.027 178.237 74.3454Z" fill="#38385C"/>
<path d="M178.527 75.2513C178.527 75.2513 178.299 81.3505 180.848 83.6544C180.848 83.6544 176.223 81.1993 176.961 75.7965C176.961 75.7965 177.183 75.2356 178.527 75.2513Z" fill="#38385C"/>
<path d="M177.696 75.1367C177.696 75.1367 173.882 80.3037 173.649 83.6551C173.649 83.6551 173.511 78.2811 175.167 75.252L177.696 75.1367Z" fill="#38385C"/>
<path d="M200.791 105.097C198.133 96.7612 185.764 96.1741 185.764 96.1741L178.647 97.4322C174.793 98.1049 163.242 115.029 160.218 118.883L171.166 125.707C171.773 132.112 172.386 137.668 172.386 137.668H198.039C198.039 137.668 203.449 113.433 200.791 105.097Z" fill="#FE4C40"/>
<mask id="mask4_32_1952" style="mask-type:luminance" maskUnits="userSpaceOnUse" x="160" y="96" width="42" height="42">
<path d="M200.791 105.097C198.133 96.7612 185.764 96.1741 185.764 96.1741L178.647 97.4322C174.793 98.1049 163.242 115.029 160.218 118.883L171.166 125.707C171.773 132.112 172.386 137.668 172.386 137.668H198.039C198.039 137.668 203.449 113.433 200.791 105.097Z" fill="white"/>
</mask>
<g mask="url(#mask4_32_1952)">
<path d="M171.167 125.707L170.263 109.544C170.263 109.544 166.69 120.233 165.812 120.043C164.934 119.854 159.882 117.405 159.882 117.405L159.295 118.702L171.328 127.56L171.167 125.706" fill="#DF4930"/>
</g>
<path d="M171.167 125.707L143.623 105.453L140.492 110.721L160.787 131.189C163.708 134.308 168.167 134.189 171.851 132.654L171.167 125.707Z" fill="#FFC8AF"/>
<mask id="mask5_32_1952" style="mask-type:luminance" maskUnits="userSpaceOnUse" x="140" y="105" width="32" height="29">
<path d="M171.167 125.707L143.623 105.453L140.492 110.721L160.787 131.189C163.708 134.308 168.167 134.189 171.851 132.654L171.167 125.707Z" fill="white"/>
</mask>
<g mask="url(#mask5_32_1952)">
<path d="M153.207 125.701C153.207 125.701 161.707 130.079 164.624 130.141C167.54 130.203 170.208 124.012 170.208 124.012L173.745 125.759L173.435 133.201L163.755 135.078L153.207 125.701Z" fill="#FFC8AF"/>
</g>
<path d="M132.816 119.607C112.844 119.246 112.847 89.3301 132.816 88.9719C152.787 89.3319 152.785 119.248 132.816 119.607Z" fill="#EECD76"/>
<mask id="mask6_32_1952" style="mask-type:luminance" maskUnits="userSpaceOnUse" x="117" y="88" width="31" height="32">
<path d="M132.816 119.607C112.844 119.246 112.847 89.3301 132.816 88.9719C152.787 89.3319 152.785 119.248 132.816 119.607Z" fill="white"/>
</mask>
<g mask="url(#mask6_32_1952)">
<path opacity="0.47" d="M122.858 90.6245C128.703 99.0992 127.459 109.855 123.378 116.286C123.378 116.286 115.338 112.637 114.288 108.282C113.239 103.926 122.858 90.6245 122.858 90.6245Z" fill="#EDA26A"/>
</g>
<path opacity="0.66" d="M145.206 104.288C144.927 120.704 120.701 120.701 120.426 104.288C120.704 87.8726 144.929 87.8753 145.206 104.288Z" fill="#EDA26A"/>
<path d="M135.922 105.527C135.353 103.741 133.175 102.588 132.234 101.104C131.551 99.8805 133.147 99.2541 133.296 100.417V101.361H136.069C136.004 99.3651 135.706 98.0414 134.004 97.4727V95.8555H131.264V97.526C129.928 98.1043 129.495 99.2445 129.468 100.893C129.342 102.564 130.871 103.975 132.068 105.047C132.669 105.647 133.118 106.037 133.347 106.761C133.455 107.309 133.77 108.794 132.812 108.755C131.787 108.772 132.28 106.659 132.169 106.023H129.473C129.434 107.953 129.399 110.36 131.268 111.008V112.613H134.008V111.172C136.24 110.65 136.455 107.505 135.922 105.527Z" fill="#EECD76"/>
<path d="M187.66 134.896C187.66 134.896 192.693 135.253 194.583 133.76C196.473 132.267 201.076 119.19 201.076 119.19C201.076 119.19 199.406 133.473 198.043 137.666H182.269C182.269 137.666 186.564 135.775 187.66 134.896ZM182.267 125.216L189.505 109.545C189.505 109.545 179.604 120.912 178.693 127.862L182.267 125.216Z" fill="#DF4930"/>
<path d="M191.365 126.388C190.519 123.208 186.729 121.914 184.096 123.863L159.206 142.29C157.955 142.297 150.584 142.377 150.934 143.338C151.318 144.387 155.637 144.661 155.637 144.661C155.637 144.661 146.724 149.511 146.943 150.062C147.163 150.613 155.035 153.919 156.075 153.369C157.017 152.869 162.079 147.922 163.012 147.007L186.133 135.799C189.685 134.336 192.603 129.621 191.365 126.388Z" fill="#FFC8AF"/>
<mask id="mask7_32_1952" style="mask-type:luminance" maskUnits="userSpaceOnUse" x="146" y="122" width="46" height="32">
<path d="M191.365 126.388C190.519 123.208 186.729 121.914 184.096 123.863L159.206 142.29C157.955 142.297 150.584 142.377 150.934 143.338C151.318 144.387 155.637 144.661 155.637 144.661C155.637 144.661 146.724 149.511 146.943 150.062C147.163 150.613 155.035 153.919 156.075 153.369C157.017 152.869 162.079 147.922 163.012 147.007L186.133 135.799C189.685 134.336 192.603 129.621 191.365 126.388Z" fill="white"/>
</mask>
<g mask="url(#mask7_32_1952)">
<path d="M186.281 121.918C186.281 121.918 188.317 126.971 188.048 129.399C187.779 131.827 163.012 147.002 163.012 147.002C163.012 147.002 186.998 138.981 188.625 137.537C192.683 132.579 196.828 123.937 186.281 121.918Z" fill="#FFC8AF"/>
</g>
<path d="M148.954 109.371C148.954 109.371 148.562 105.161 147.993 105.056C147.425 104.951 141.527 106.153 141.596 106.479C141.666 106.806 142.96 108.18 143.355 108.18C143.75 108.18 146.513 108.288 146.513 108.288L144.907 113.558C144.907 113.558 149.434 112.612 148.954 109.371Z" fill="#FFC8AF"/>
<path d="M146.512 108.288C146.512 108.288 149.017 112.824 144.184 114.441C144.184 114.441 146.712 109.566 146.512 108.288Z" fill="#FFC8AF"/>
<path d="M229.776 68.9942C229.476 86.7204 203.316 86.7177 203.018 68.9942C203.321 51.2671 229.479 51.2706 229.776 68.9942Z" fill="#64D3FF"/>
<path d="M213.261 69.5451C212.563 68.9274 211.399 66.6514 210.239 67.7104L209.401 68.4574C209.192 68.6443 209.064 68.9075 209.047 69.1891C209.03 69.4708 209.124 69.7478 209.31 69.9592L212.982 74.1433C213.074 74.2477 213.185 74.3328 213.31 74.3937C213.435 74.4547 213.571 74.4902 213.709 74.4983C213.847 74.5064 213.986 74.487 214.117 74.441C214.248 74.3951 214.369 74.3236 214.472 74.2307C215.386 73.4094 223.955 65.7795 225.085 64.7678C225.971 63.9352 225.019 63.0597 224.435 62.4211C224.249 62.2098 223.988 62.0814 223.709 62.0642C223.429 62.047 223.154 62.1424 222.945 62.3293L214.751 69.6325C214.648 69.7254 214.527 69.7969 214.396 69.8428C214.265 69.8888 214.126 69.9082 213.988 69.9001C213.85 69.892 213.714 69.8565 213.589 69.7955C213.464 69.7346 213.353 69.6495 213.261 69.5451ZM70.4322 28.9782H33.3008C33.8658 25.2065 37.8724 22.6754 41.4795 23.8313C40.9595 20.5113 44.1497 18.1655 46.9898 17.318C53.7801 14.4777 58.2625 19.7818 60.3754 25.9963C63.2467 22.2211 70.1696 24.2507 70.4322 28.9782ZM216.055 28.9782H179.501C181.129 26.5983 184.226 25.2834 187.034 25.8722C189.263 16.2617 203.175 16.0704 205.668 25.6101C207.63 24.387 209.939 23.4408 212.209 23.8628C214.478 24.2848 216.563 26.7092 216.055 28.9782ZM112.285 18.8338H95.0508C95.6089 16.8567 97.7955 15.6012 99.6848 16.3753C100.71 11.3953 108.156 11.1279 107.632 16.6488C108.101 16.3552 108.632 16.1754 109.182 16.1235C109.731 16.0717 110.286 16.1492 110.801 16.35C111.824 16.7588 112.011 17.7592 112.285 18.8338Z" fill="#E3EEFE"/>
<path d="M92.0866 43.1777H41.9673C40.0723 43.1777 38.5361 44.7263 38.5361 46.6366V141.71C38.5361 143.62 40.0723 145.169 41.9673 145.169H92.0866C93.9816 145.169 95.5177 143.62 95.5177 141.71V46.6366C95.5177 44.7263 93.9816 43.1777 92.0866 43.1777Z" fill="#38385C"/>
<path d="M91.0639 50.6768H42.9873V137.668H91.0639V50.6768Z" fill="#E4ECF9"/>
<mask id="mask8_32_1952" style="mask-type:luminance" maskUnits="userSpaceOnUse" x="42" y="50" width="50" height="88">
<path d="M91.0639 50.6768H42.9873V137.668H91.0639V50.6768Z" fill="white"/>
</mask>
<g mask="url(#mask8_32_1952)">
<path d="M91.0634 50.6768L47.3384 54.0877L49.1133 138.167L41.6201 137.668L41.6479 48.9836L91.0634 50.6768Z" fill="#D1DCF8"/>
<path opacity="0.2" d="M92.8843 70.2593L41.6201 121.496V137.668H91.0634L92.8843 70.2593Z" fill="white"/>
</g>
<path d="M71.26 48.1549H62.1652C61.9552 48.1549 61.7539 48.0709 61.6054 47.9213C61.4568 47.7718 61.3733 47.5689 61.373 47.3572C61.373 47.2524 61.3935 47.1486 61.4334 47.0518C61.4732 46.955 61.5315 46.867 61.6051 46.7929C61.6787 46.7188 61.766 46.6601 61.8621 46.62C61.9582 46.58 62.0612 46.5595 62.1652 46.5596H71.26C71.4698 46.5596 71.6711 46.6436 71.8195 46.7932C71.9679 46.9428 72.0512 47.1457 72.0512 47.3572C72.0512 47.5688 71.9679 47.7717 71.8195 47.9213C71.6711 48.0709 71.4698 48.1549 71.26 48.1549Z" fill="white"/>
<path d="M80.8252 78.0203L82.9468 88.0571C83.4157 89.3677 82.7102 91.565 81.5012 92.7899C81.2 93.0934 80.8311 93.3198 80.4254 93.4504C80.0197 93.5809 79.589 93.6118 79.169 93.5404L74.4812 92.7541L72.6006 101.21H63.5127L69.3584 78.1688L80.8252 78.0203Z" fill="#FFC8AF"/>
<mask id="mask9_32_1952" style="mask-type:luminance" maskUnits="userSpaceOnUse" x="63" y="78" width="21" height="24">
<path d="M80.8252 78.0203L82.9468 88.0571C83.4157 89.3677 82.7102 91.565 81.5012 92.7899C81.2 93.0934 80.8311 93.3198 80.4254 93.4504C80.0197 93.5809 79.589 93.6118 79.169 93.5404L74.4812 92.7541L72.6006 101.21H63.5127L69.3584 78.1688L80.8252 78.0203Z" fill="white"/>
</mask>
<g mask="url(#mask9_32_1952)">
<path d="M82.1198 82.4056C80.4105 82.6493 78.6868 82.7766 76.9605 82.7865C76.9605 82.7865 78.1123 83.0198 79.4149 83.1893C79.4149 83.1893 76.1502 84.4212 73.0155 83.3588C73.0155 83.3588 72.8803 84.367 72.2857 84.5024C71.6912 84.6379 70.5385 85.0101 70.5385 85.0101L70.4727 78.8611L81.9577 77.5837L82.1198 82.4056ZM80.7002 93.345C80.5572 93.4044 73.935 90.3684 73.935 90.3684L74.0485 94.6975C74.0485 94.6975 80.5355 94.6905 80.7002 93.345Z" fill="#FFC8AF"/>
</g>
<path d="M81.6581 88.1904C81.6581 88.1904 80.2584 89.1864 78.1914 88.3355C78.1914 88.3355 78.7885 90.0723 80.3234 89.7508C81.8583 89.4293 81.6581 88.1904 81.6581 88.1904Z" fill="white"/>
<path d="M73.7809 70.6821C66.019 69.804 62.217 75.6856 62.3062 78.9489C62.3929 82.0784 65.9584 91.571 65.9584 91.571L69.945 87.1527C69.945 87.1527 68.9388 86.5027 68.6008 85.574C68.2628 84.6453 68.7074 82.5921 69.7682 82.849C70.2276 82.9608 70.5361 85.0166 70.5361 85.0166C71.8092 84.2111 71.9453 83.9166 71.9557 81.8154C74.7533 82.7205 77.55 81.5131 77.55 81.5131C75.3972 81.3978 73.4767 80.6351 72.3682 80.1021C78.8665 81.7324 81.249 78.021 81.249 78.021C81.249 78.021 81.5436 71.5557 73.7809 70.6821Z" fill="#38385C"/>
<path d="M99.7921 122.639L79.0605 104.331C74.4386 99.7971 64.4572 97.4827 64.4572 97.4827C61.4603 102.736 54.7393 137.672 54.7393 137.672H84.9383C84.9383 137.672 84.7554 135.837 84.4625 133.042C87.1448 134.683 89.2525 135.873 89.2525 135.873L99.7921 122.639Z" fill="#FE4C40"/>
<mask id="mask10_32_1952" style="mask-type:luminance" maskUnits="userSpaceOnUse" x="54" y="97" width="46" height="41">
<path d="M99.7921 122.639L79.0605 104.331C74.4386 99.7971 64.4572 97.4827 64.4572 97.4827C61.4603 102.736 54.7393 137.672 54.7393 137.672H84.9383C84.9383 137.672 84.7554 135.837 84.4625 133.042C87.1448 134.683 89.2525 135.873 89.2525 135.873L99.7921 122.639Z" fill="white"/>
</mask>
<g mask="url(#mask10_32_1952)">
<path d="M84.4634 133.038L77.2666 126.54L80.2063 137.669H84.9383L84.4634 133.038Z" fill="#DF4930"/>
</g>
<path d="M73.707 100.773L76.4049 98.2716L64.5827 93.6777L64.457 97.4818L73.707 100.773Z" fill="white"/>
<path d="M125.453 102.79C125.106 101.432 122.547 96.7616 121.962 96.7432C121.411 96.7231 117.369 104.351 117.369 104.351C117.369 104.351 117.468 102.701 117.282 102.01C117.097 101.319 116.051 100.4 115.732 100.492C115.467 100.568 114.586 106.297 114.288 108.283L100.854 126.389L98.2666 124.538L91.0654 133.578C94.4394 135.385 99.9566 140.681 104.143 138.528C105.734 137.895 107.031 136.684 107.779 135.134L118.93 111.96C118.93 111.96 125.803 104.143 125.453 102.79Z" fill="#FFC8AF"/>
<mask id="mask11_32_1952" style="mask-type:luminance" maskUnits="userSpaceOnUse" x="91" y="96" width="35" height="44">
<path d="M125.453 102.79C125.106 101.432 122.547 96.7616 121.962 96.7432C121.411 96.7231 117.369 104.351 117.369 104.351C117.369 104.351 117.468 102.701 117.282 102.01C117.097 101.319 116.051 100.4 115.732 100.492C115.467 100.568 114.586 106.297 114.288 108.283L100.854 126.389L98.2666 124.538L91.0654 133.578C94.4394 135.385 99.9566 140.681 104.143 138.528C105.734 137.895 107.031 136.684 107.779 135.134L118.93 111.96C118.93 111.96 125.803 104.143 125.453 102.79Z" fill="white"/>
</mask>
<g mask="url(#mask11_32_1952)">
<path d="M99.7923 124.053C99.7923 124.053 96.8786 137.908 101.219 141.09L88.0654 133.268L95.5188 121.07L99.7923 124.053Z" fill="#FFC8AF"/>
</g>
<path d="M59.6504 61.5771H34.2328C33.8843 61.577 33.5392 61.6462 33.2172 61.7806C32.8951 61.915 32.6026 62.112 32.3561 62.3604C32.1097 62.6089 31.9142 62.9038 31.7809 63.2285C31.6476 63.5531 31.579 63.901 31.5791 64.2524V71.58C31.5791 72.2895 31.8587 72.9699 32.3564 73.4716C32.854 73.9733 33.529 74.2552 34.2328 74.2552H51.6988L55.9125 79.091C55.9902 79.1802 56.093 79.2434 56.2072 79.2722C56.3214 79.301 56.4416 79.294 56.5518 79.2521C56.6619 79.2102 56.7568 79.1355 56.8238 79.0379C56.8907 78.9403 56.9266 78.8244 56.9265 78.7057V74.2552C59.133 74.277 62.1629 74.6824 62.2998 71.58V64.2524C62.3001 63.5435 62.0211 62.8636 61.5244 62.362C61.0276 61.8604 60.3536 61.5781 59.6504 61.5771Z" fill="#64D3FF"/>
<path d="M40.0842 67.9907C40.0764 69.7311 37.4521 69.7303 37.4443 67.9907C37.4521 66.2504 40.0773 66.2512 40.0842 67.9907ZM47.8946 67.9907C47.8868 69.7311 45.2625 69.7303 45.2547 67.9907C45.2625 66.2504 47.8877 66.2512 47.8946 67.9907ZM55.705 67.9907C55.6972 69.7311 53.0729 69.7303 53.0651 67.9907C53.0729 66.2504 55.6981 66.2512 55.705 67.9907Z" fill="#E3EEFE"/>
</g>
</svg>
