<svg width="411" height="291" viewBox="0 0 411 291" fill="none" xmlns="http://www.w3.org/2000/svg">
<path d="M347.147 247.026H74.0373C69.0111 247.026 64.9414 242.95 64.9414 237.93V74.4289C64.9414 69.4027 69.0171 65.333 74.0373 65.333H347.147C352.173 65.333 356.243 69.4087 356.243 74.4289V237.93C356.243 242.95 352.173 247.026 347.147 247.026Z" fill="#3A4146"/>
<path d="M347.474 227.783H77.6554C75.1423 227.783 73.1045 225.745 73.1045 223.232V74.6672C73.1045 72.154 75.1423 70.1162 77.6554 70.1162H347.474C349.987 70.1162 352.025 72.154 352.025 74.6672V223.238C352.019 225.745 349.987 227.783 347.474 227.783Z" fill="#E4ECF9"/>
<path d="M322.129 229.19H99.0557V90.2025C99.0557 86.6972 101.896 83.8633 105.395 83.8633H315.784C319.289 83.8633 322.123 86.7032 322.123 90.2025V229.19H322.129Z" fill="#FFFFF8"/>
<path d="M322.129 93.7553H99.0557V89.3232C99.0557 86.311 101.497 83.8633 104.516 83.8633H316.675C319.687 83.8633 322.135 86.3051 322.135 89.3232V93.7553H322.129Z" fill="#B4B9DB"/>
<path d="M293.706 156.109H127.478C125.927 156.109 124.674 157.309 124.674 158.782C124.674 160.262 125.927 161.456 127.478 161.456H293.706C295.257 161.456 296.51 160.256 296.51 158.782C296.505 157.309 295.251 156.109 293.706 156.109Z" fill="#D1DCF8"/>
<path d="M293.706 174.656H127.478C125.927 174.656 124.674 175.857 124.674 177.33C124.674 178.809 125.927 180.004 127.478 180.004H293.706C295.257 180.004 296.51 178.803 296.51 177.33C296.505 175.857 295.251 174.656 293.706 174.656Z" fill="#D1DCF8"/>
<path d="M293.706 193.205H127.478C125.927 193.205 124.674 194.405 124.674 195.879C124.674 197.358 125.927 198.552 127.478 198.552H293.706C295.257 198.552 296.51 197.352 296.51 195.879C296.505 194.405 295.251 193.205 293.706 193.205Z" fill="#D1DCF8"/>
<path d="M293.831 211.753H127.353C125.874 211.753 124.68 212.954 124.68 214.427C124.68 215.906 125.88 217.1 127.353 217.1H293.831C295.31 217.1 296.504 215.9 296.504 214.427C296.504 212.954 295.31 211.753 293.831 211.753Z" fill="#D1DCF8"/>
<path d="M296.511 104.925H194.145V142.669H296.511V104.925Z" fill="#CAD0F9"/>
<path d="M182.713 104.925H124.377V142.669H182.713V104.925Z" fill="#CAD0F9"/>
<path d="M274.172 278.026H147.013C140.418 278.026 135.077 283.367 135.077 289.962H286.108C286.108 283.367 280.767 278.026 274.172 278.026Z" fill="#3A4146"/>
<path d="M244.032 259.729V247.026H177.152V259.729C177.152 269.835 168.959 278.027 158.854 278.027H262.325C252.225 278.027 244.032 269.835 244.032 259.729ZM210.589 270.423C206.026 270.423 202.325 266.721 202.325 262.159C202.325 257.596 206.026 253.894 210.589 253.894C215.152 253.894 218.853 257.596 218.853 262.159C218.853 266.721 215.158 270.423 210.589 270.423Z" fill="#B4B9DB"/>
<path d="M227.736 240.23H193.443C192.273 240.23 191.322 239.28 191.322 238.109C191.322 236.939 192.273 235.988 193.443 235.988H227.736C228.906 235.988 229.857 236.939 229.857 238.109C229.857 239.28 228.906 240.23 227.736 240.23Z" fill="white"/>
<path d="M22.1825 289.66C16.3245 288.115 12.8311 282.114 14.3699 276.256L49.809 141.808L71.019 147.398L35.5799 281.847C34.0411 287.711 28.0405 291.204 22.1825 289.66Z" fill="#FC785E"/>
<path d="M96.5896 7.40035C57.568 -2.88383 17.5898 20.4115 7.30562 59.4332C-2.97855 98.4548 20.3168 138.433 59.3384 148.717C98.3601 159.001 138.338 135.706 148.622 96.6844C158.907 57.6627 135.611 17.6905 96.5896 7.40035ZM131.066 92.0562C123.337 121.388 93.2923 138.896 63.9607 131.161C34.6291 123.432 17.1204 93.387 24.8559 64.0554C32.5853 34.7238 62.6299 17.2152 91.9615 24.9506C121.287 32.686 138.796 62.7305 131.066 92.0562Z" fill="#FC785E"/>
<g opacity="0.3">
<path d="M116.795 116.89C138.242 95.442 138.242 60.6684 116.794 39.2211C95.3457 17.7738 60.5721 17.7744 39.1248 39.2225C17.6775 60.6705 17.6781 95.4441 39.1262 116.891C60.5742 138.339 95.3478 138.338 116.795 116.89Z" fill="#BCD3F9"/>
</g>
<path d="M397.054 37.5581C398.414 48.6147 399.816 73.7102 399.816 73.7102L371.031 73.7756L373.129 34.5163L383.632 29.0801L397.054 37.5581Z" fill="#091B21"/>
<path d="M325.32 68.5833C324.892 72.659 348.348 77.3347 358.454 78.5764C368.554 79.8181 376.741 78.9982 377.258 74.0195C377.781 69.0408 369.944 66.5396 359.803 65.6662C349.667 64.7869 325.748 64.5017 325.32 68.5833Z" fill="#FFC8AF"/>
<path d="M371.857 205.925C366.172 206.157 361.835 174.716 361.032 161.236C360.23 147.761 362.12 136.996 369.059 136.71C375.998 136.431 378.749 147.007 379.04 160.505C379.325 174.009 377.543 205.694 371.857 205.925Z" fill="#FFC8AF"/>
<path d="M374.578 273.245C369.534 273.447 366.343 228.715 365.933 218.705C365.529 208.694 365.874 198.095 371.53 197.863C377.18 197.637 378.38 208.171 378.79 218.182C379.194 228.193 379.622 273.037 374.578 273.245Z" fill="#FFC8AF"/>
<path d="M398.39 205.902C392.722 206.419 386.793 175.246 385.307 161.825C383.822 148.403 385.159 137.561 392.074 136.925C398.99 136.289 402.275 146.716 403.25 160.179C404.224 173.647 404.058 205.385 398.39 205.902Z" fill="#FFC8AF"/>
<path d="M403.684 273.03C398.657 273.488 394.041 228.935 393.126 218.96C392.211 208.984 392.015 198.379 397.653 197.862C403.286 197.346 405.02 207.808 405.935 217.783C406.85 227.764 408.71 272.573 403.684 273.03Z" fill="#FFC8AF"/>
<path d="M401.271 147.06H361.281C361.281 147.06 364.751 129.284 364.935 122.868C365.084 117.598 367.181 100.85 367.181 100.85C367.181 100.85 362.363 93.5896 362.386 89.7813C362.428 84.0362 372.13 68.3515 372.13 68.3515L386.181 64.0322L395.716 66.3017C401.687 67.4424 401.865 73.1044 401.865 79.1822C401.865 97.5345 394.166 109.987 394.873 120.503C395.324 127.252 401.271 147.06 401.271 147.06Z" fill="#FFC8AF"/>
<path d="M408.264 118.049C404.271 118.993 396.643 96.3219 394.118 86.4655C391.593 76.6032 391.367 68.3865 396.239 67.2339C401.111 66.0813 404.592 73.5316 406.755 83.4771C408.917 93.4226 412.256 117.104 408.264 118.049Z" fill="#FFC8AF"/>
<path d="M390.751 52.2627V66.5869C390.751 66.5869 388.184 68.1197 382.183 68.1197C378.946 68.1197 378.221 66.5869 378.221 66.5869V62.1013L390.751 52.2627Z" fill="#FFC8AF"/>
<path d="M378.452 43.1687C377.21 43.5073 376.723 47.6424 376.943 47.6246C377.168 47.6068 377.947 44.3153 379.034 43.8103C380.127 43.3053 378.452 43.1687 378.452 43.1687Z" fill="#EDAD94"/>
<path d="M373.42 43.1687C374.257 43.8163 373.96 47.1849 373.936 47.4523C373.913 47.7196 373.378 43.6381 373.378 43.6381L373.42 43.1687Z" fill="#EDAD94"/>
<path d="M381.755 46.573C381.755 47.1493 381.286 47.6186 380.71 47.6186C380.133 47.6186 379.664 47.1493 379.664 46.573C379.664 45.9967 380.133 45.5273 380.71 45.5273C381.286 45.5273 381.755 45.9967 381.755 46.573Z" fill="#414042"/>
<path d="M382.884 45.729C382.338 45.4379 381.577 45.123 380.71 45.123C379.842 45.123 379.082 45.4379 378.535 45.729H382.884Z" fill="#414042"/>
<path d="M373.128 46.573C373.128 47.1493 372.659 47.6186 372.083 47.6186C371.506 47.6186 371.037 47.1493 371.037 46.573C371.037 45.9967 371.506 45.5273 372.083 45.5273C372.659 45.5273 373.128 45.9967 373.128 46.573Z" fill="#414042"/>
<path d="M373.598 45.729C373.218 45.4379 372.683 45.123 372.083 45.123C371.477 45.123 370.949 45.4379 370.568 45.729H373.598Z" fill="#414042"/>
<path d="M375.184 52.2746C376.23 52.2746 377.08 52.1855 377.08 52.4766C377.08 52.7617 376.23 53.1063 375.184 53.1063C374.139 53.1063 373.289 52.7617 373.289 52.4766C373.283 52.1855 374.133 52.2746 375.184 52.2746Z" fill="#FFC8AF"/>
<path d="M375.184 56.5641C375.951 56.5641 376.574 56.4987 376.574 56.7126C376.574 56.9265 375.951 57.4018 375.184 57.4018C374.418 57.4018 373.794 56.9206 373.794 56.7126C373.794 56.5047 374.412 56.5641 375.184 56.5641Z" fill="#EDAD94"/>
<path d="M379.164 54.7723C379.271 54.7723 379.366 54.8436 379.396 54.9446C379.431 55.0694 379.36 55.206 379.229 55.2417C379.158 55.2654 377.411 55.7526 375.659 55.7526C373.906 55.7526 372.106 55.2595 372.029 55.2417C371.904 55.206 371.827 55.0753 371.862 54.9446C371.898 54.8198 372.029 54.7426 372.159 54.7783C372.177 54.7842 373.971 55.2714 375.659 55.2714C377.346 55.2714 379.081 54.7842 379.099 54.7783C379.122 54.7783 379.146 54.7723 379.164 54.7723Z" fill="#EDAD94"/>
<path d="M378.416 43.6434C377.971 43.4176 378.642 42.9185 379.509 42.9661C380.377 43.0136 382.7 42.8591 383.84 43.9285C383.84 43.9285 383.722 44.0177 383.199 43.8216C382.67 43.6255 378.761 43.8156 378.416 43.6434Z" fill="#845E40"/>
<path d="M373.503 43.6434C373.806 43.4176 373.348 42.9185 372.76 42.9661C372.172 43.0136 370.592 42.8591 369.825 43.9285C369.825 43.9285 369.902 44.0177 370.265 43.8216C370.615 43.6255 373.271 43.8156 373.503 43.6434Z" fill="#845E40"/>
<path d="M391 44.7111C390.97 45.1508 390.959 45.5667 390.929 45.9647C390.929 46.1073 390.941 46.2499 390.941 46.4044C391.238 53.6467 390.471 59.2551 382.243 62.1604C380.746 62.3445 375.511 63.4793 373.527 61.2989C371.204 58.7323 369.368 52.1198 369.368 49.8087V49.7077C369.398 47.4559 369.719 46.8381 369.719 45.537C369.719 44.527 369.178 41.3544 369.166 39.9819C369.148 37.7302 370.016 34.9617 371.02 32.9951C372.903 29.3057 376.159 27.1074 381.191 27.1074C392.794 27.1074 391.333 36.9222 391 44.7111Z" fill="#FFC8AF"/>
<path d="M383.84 33.6608C378.998 37.8494 370.301 37.7424 369.374 42.8102L369.7 45.062C369.7 45.062 368.471 42.2577 368.18 41.2834C367.55 39.1683 368.881 34.7065 371.388 31.5101C376.17 25.4145 386.276 24.0837 390.471 29.7813C390.471 29.7813 396.323 28.6287 397.054 37.5523C397.559 43.7074 390.75 65.1194 390.75 65.1194C390.75 65.1194 389.182 63.7351 388.653 61.5071C386.615 52.9103 384.619 37.8969 383.543 32.0151" fill="#091B21"/>
<path d="M379.658 62.5126C382.005 62.1918 386.081 60.8134 388.017 58.6211C388.017 58.6211 387.578 60.7362 385.498 61.8353C383.425 62.9403 379.658 62.5126 379.658 62.5126Z" fill="#EDAD94"/>
<path d="M378.077 271.182L378.326 276.375C378.326 277.111 377.726 277.711 376.984 277.711H362.992C361.721 277.711 359.986 275.383 361.067 274.723C363.414 273.297 367.591 271.23 369.979 270.142C370.205 270.041 372.231 227.55 374.34 227.526C376.259 227.514 378.077 271.182 378.077 271.182Z" fill="#FFC8AF"/>
<path d="M406.85 270.874C406.85 270.874 406.85 271.13 406.85 271.522V275.776C406.85 276.227 404.498 278.17 403.505 278.586C399.982 280.083 394.522 279.168 394.255 277.944C393.988 276.726 397.677 272.359 397.677 272.348C398.652 271.13 399.192 270.025 399.192 270.025C399.192 270.025 401.093 227.474 403.096 227.533C405.282 227.605 406.85 270.874 406.85 270.874Z" fill="#FFC8AF"/>
<path d="M360.729 277.712H377.923C378.143 277.712 378.327 277.533 378.327 277.308V274.604C374.875 274.634 366.973 274.741 366.51 274.634C366.005 274.521 364.431 272.78 364.175 272.341C362.821 273.072 360.848 274.23 359.826 274.991C358.65 275.87 359.268 277.712 360.729 277.712Z" fill="#112B46"/>
<path d="M403.512 278.585C404.498 278.169 406.857 276.226 406.857 275.774V273.541L403.512 275.543C401.142 273.036 396.751 272.317 395.664 274.509C394.767 275.858 394.095 277.182 394.262 277.943C394.529 279.167 399.989 280.082 403.512 278.585Z" fill="#112B46"/>
<path d="M402.709 149.525C402.709 149.525 405.626 179.297 405.816 198.891C405.816 198.891 407.866 211.89 408.437 225.994C409.007 240.099 407.046 266.715 407.046 266.715H398.42L383.816 156.055H379.955V266.709H369.961C369.961 266.709 364.068 222.228 360.349 149.52H402.709V149.525Z" fill="#091B21"/>
<path d="M359.636 150.672L366.219 100.724C364.074 97.932 361.923 91.7116 361.923 88.9193C361.923 87.5172 363.046 84.4099 365.149 79.6808C365.767 78.2727 365.636 73.7693 365.636 73.7693C365.636 73.7693 365.749 70.9294 368.221 68.4579C370.134 66.5448 378.22 66.5805 378.22 66.5805C373.55 67.9232 372.445 74.3931 373.128 74.8922C373.811 75.3912 382.818 75.2486 384.488 74.8922C386.157 74.5357 389.187 66.4498 393.584 65.7903C393.584 65.7903 396.56 65.3982 399.822 67.436C403.084 69.4738 404.397 75.213 404.397 75.213C404.397 75.213 392.36 74.8981 393.12 81.9741C393.138 82.1463 393.162 82.3246 393.186 82.5028C394.136 89.6976 399.168 102.435 399.168 102.435C399.168 102.435 397.16 110.07 397.136 118.53C397.107 126.99 404.402 150.666 404.402 150.666H359.636V150.672Z" fill="#FE4C40"/>
<path d="M297.022 51.9608C295.353 55.1869 314.234 66.0889 319.7 68.9169C325.159 71.7449 331.184 74.2343 333.055 70.6102C334.927 66.992 329.419 63.5105 323.959 60.6824C318.494 57.8544 298.692 48.7288 297.022 51.9608Z" fill="#FFC8AF"/>
<path d="M300.646 54.9603C297.854 58.222 292.958 52.768 291.081 50.9678C288.651 48.6448 290.79 44.5157 292.019 43.4225C293.249 42.3293 295.667 47.1476 296.16 47.1417C296.653 47.1298 294.146 43.1373 295.406 42.2283C296.665 41.3253 300.664 46.197 301.501 48.7339C302.345 51.2708 302.399 52.9165 300.646 54.9603Z" fill="#FFC8AF"/>
<path d="M292.447 43.2684C293.255 43.2328 294.533 44.3319 295.055 45.1221C295.578 45.9182 294.984 47.6292 294.253 49.0908C293.523 50.5523 290.249 49.0908 290.249 49.0908L290.778 46.043L292.447 43.2684Z" fill="#FFC8AF"/>
<path d="M361.489 126.558C360.616 123.029 386.347 115.638 393.685 113.826C401.016 112.014 408.894 110.641 409.868 114.598C410.849 118.555 403.238 121.009 395.907 122.821C388.569 124.639 362.357 130.087 361.489 126.558Z" fill="#FFC8AF"/>
<path d="M368.167 124.727C369.504 128.808 361.679 131.054 359.113 131.482C354.936 132.183 353.421 127.454 353.124 125.838C352.827 124.222 358.905 124.923 359.154 124.495C359.404 124.067 354.817 124.085 355.078 122.558C355.245 121.59 360.907 120.693 363.509 121.293C366.117 121.893 367.329 122.166 368.167 124.727Z" fill="#FFC8AF"/>
</svg>
