<svg width="48" height="48" viewBox="0 0 48 48" fill="none" xmlns="http://www.w3.org/2000/svg">
<g clip-path="url(#clip0_1_7505)">
<path d="M19.125 13.875C19.7463 13.875 20.25 13.3713 20.25 12.75C20.25 12.1287 19.7463 11.625 19.125 11.625C18.5037 11.625 18 12.1287 18 12.75C18 13.3713 18.5037 13.875 19.125 13.875Z" fill="white"/>
<path d="M24 13.875C24.6213 13.875 25.125 13.3713 25.125 12.75C25.125 12.1287 24.6213 11.625 24 11.625C23.3787 11.625 22.875 12.1287 22.875 12.75C22.875 13.3713 23.3787 13.875 24 13.875Z" fill="white"/>
<path d="M28.875 13.875C29.4963 13.875 30 13.3713 30 12.75C30 12.1287 29.4963 11.625 28.875 11.625C28.2537 11.625 27.75 12.1287 27.75 12.75C27.75 13.3713 28.2537 13.875 28.875 13.875Z" fill="white"/>
<path d="M47.2875 44.1375C46.8375 43.6875 46.125 43.6875 45.7125 44.1375C44.925 44.925 43.875 45.375 42.75 45.375C41.625 45.375 40.575 44.925 39.7875 44.1375C39.375 43.725 38.625 43.725 38.2125 44.1375C37.425 44.925 36.375 45.375 35.25 45.375C34.3125 45.375 33.45 45.075 32.7375 44.5125C34.0125 37.65 37.2375 31.35 42.1125 26.2875L43.575 24.75C43.8375 24.4875 43.95 24.1125 43.875 23.7375C43.8 23.3625 43.5375 23.0625 43.2 22.9125L40.125 21.75V12.75C40.125 12.1125 39.6375 11.625 39 11.625H34.5V7.125C34.5 6.4875 34.0125 6 33.375 6H27.375V1.5C27.375 0.8625 26.8875 0.375 26.25 0.375H21.75C21.1125 0.375 20.625 0.8625 20.625 1.5V6H14.625C13.9875 6 13.5 6.4875 13.5 7.125V11.625H9C8.3625 11.625 7.875 12.1125 7.875 12.75V16.4625C7.875 17.025 8.25 17.5125 8.775 17.625C9.4875 17.775 10.125 17.2125 10.125 16.5375V13.9125H14.625C15.2625 13.9125 15.75 13.425 15.75 12.7875V8.25H32.25V12.75C32.25 13.3875 32.7375 13.875 33.375 13.875H37.875V20.85L24.4125 15.45C24.15 15.3375 23.85 15.3375 23.5875 15.45L4.8375 22.95C4.5 23.1 4.2375 23.4 4.1625 23.775C4.0875 24.15 4.2 24.525 4.4625 24.7875L6.1875 26.5875C9.9375 30.4875 12.375 35.4 14.2875 40.5C14.4375 40.95 14.8875 41.2125 15.3375 41.2125C15.4875 41.2125 15.6375 41.175 15.75 41.1375C16.3125 40.9125 16.575 40.275 16.3875 39.7125C14.625 34.125 11.5875 28.95 7.5375 24.7125L7.2375 24.375L21.8625 18.525C22.35 18.375 22.875 18.75 22.875 19.275V44.4375C21.225 45.75 18.825 45.675 17.2875 44.1375C16.8375 43.6875 16.125 43.6875 15.7125 44.1375C14.1 45.75 11.4375 45.75 9.7875 44.1375C9.3375 43.6875 8.625 43.6875 8.2125 44.1375C7.425 44.925 6.375 45.375 5.25 45.375C4.6125 45.375 4.125 45.8625 4.125 46.5C4.125 47.1375 4.6125 47.625 5.25 47.625C6.6 47.625 7.9125 47.2125 9 46.425C11.25 48.0375 14.25 48.0375 16.5 46.425C18.75 48.0375 21.75 48.0375 24 46.425C26.2125 48.0375 29.25 48.0375 31.5 46.425C32.5875 47.2125 33.9 47.625 35.25 47.625C36.6 47.625 37.9125 47.2125 39 46.425C40.0875 47.2125 41.4 47.625 42.75 47.625C44.475 47.625 46.0875 46.95 47.2875 45.75C47.7375 45.3 47.7375 44.5875 47.2875 44.1375Z" fill="white"/>
<path d="M19.125 25.125C19.7463 25.125 20.25 24.6213 20.25 24C20.25 23.3787 19.7463 22.875 19.125 22.875C18.5037 22.875 18 23.3787 18 24C18 24.6213 18.5037 25.125 19.125 25.125Z" fill="white"/>
<path d="M1.5 46.0875C2.12132 46.0875 2.625 45.5838 2.625 44.9625C2.625 44.3412 2.12132 43.8375 1.5 43.8375C0.87868 43.8375 0.375 44.3412 0.375 44.9625C0.375 45.5838 0.87868 46.0875 1.5 46.0875Z" fill="white"/>
</g>
<defs>
<clipPath id="clip0_1_7505">
<rect width="48" height="48" fill="white"/>
</clipPath>
</defs>
</svg>
