<svg width="68" height="68" viewBox="0 0 68 68" fill="none" xmlns="http://www.w3.org/2000/svg">
<path d="M61.2256 14.4895C61.2253 13.9947 61.1272 13.5048 60.9371 13.0479C60.7469 12.5911 60.4685 12.1763 60.1176 11.8273C59.7668 11.4784 59.3505 11.2021 58.8927 11.0144C58.4348 10.8267 57.9444 10.7313 57.4495 10.7336C56.9547 10.7358 56.4652 10.8358 56.0091 11.0277C55.553 11.2197 55.1393 11.4998 54.7917 11.852C54.4441 12.2042 54.1695 12.6215 53.9836 13.0801C53.7977 13.5387 53.7042 14.0295 53.7084 14.5243C53.7421 18.1907 53.8235 25.0313 53.8592 27.9853C53.8614 28.171 53.8267 28.3552 53.7571 28.5273C53.6875 28.6994 53.5845 28.856 53.4539 28.988C53.3233 29.12 53.1678 29.2247 52.9965 29.2961C52.8251 29.3675 52.6412 29.4042 52.4556 29.404H52.4162C52.2319 29.4044 52.0493 29.3685 51.8789 29.2982C51.7085 29.2279 51.5536 29.1247 51.4232 28.9944C51.2928 28.8642 51.1894 28.7094 51.1189 28.5391C51.0484 28.3688 51.0122 28.1862 51.0125 28.0019C51.0188 24.205 51.0645 13.6625 51.089 8.30502C51.0913 7.81011 50.9957 7.31964 50.8078 6.86179C50.6198 6.40394 50.3433 5.98774 49.994 5.6371C49.6447 5.28647 49.2296 5.0083 48.7725 4.8186C48.3154 4.6289 47.8253 4.53139 47.3304 4.53169H47.2238C46.7286 4.53138 46.2382 4.62899 45.7808 4.81892C45.3235 5.00885 44.9082 5.28734 44.5588 5.63838C44.2095 5.98942 43.933 6.40607 43.7453 6.86435C43.5577 7.32264 43.4624 7.81352 43.4652 8.30874C43.4908 12.8497 43.5335 21.3254 43.5502 24.668C43.551 24.8527 43.5153 25.0358 43.4451 25.2067C43.3749 25.3776 43.2716 25.5329 43.1412 25.6637C43.0107 25.7945 42.8556 25.8982 42.6849 25.9688C42.5142 26.0394 42.3312 26.0756 42.1465 26.0752H42.1327C41.9482 26.0757 41.7655 26.0398 41.5951 25.9695C41.4246 25.8992 41.2697 25.7959 41.1392 25.6656C41.0088 25.5352 40.9054 25.3804 40.835 25.2099C40.7645 25.0395 40.7285 24.8568 40.7289 24.6724C40.7426 19.6644 40.7592 10.9452 40.7735 4.87641C40.7746 4.38265 40.6783 3.89353 40.49 3.43707C40.3018 2.98061 40.0253 2.5658 39.6764 2.21639C39.3275 1.86699 38.9131 1.58987 38.457 1.40091C38.0008 1.21195 37.5118 1.11487 37.018 1.11524H36.8977C36.403 1.11485 35.9131 1.21219 35.4561 1.40168C34.9991 1.59117 34.5841 1.86907 34.2349 2.21942C33.8856 2.56977 33.609 2.98567 33.4209 3.44323C33.2329 3.90078 33.1371 4.39098 33.139 4.88568C33.164 11.0793 33.1862 20.0115 33.2082 25.1607C33.2083 25.3452 33.1719 25.5279 33.1012 25.6983C33.0306 25.8687 32.927 26.0236 32.7965 26.154C32.6659 26.2844 32.511 26.3877 32.3405 26.4582C32.1699 26.5286 31.9872 26.5647 31.8027 26.5645C31.6182 26.5643 31.4355 26.5276 31.2652 26.4567C31.0948 26.3858 30.9401 26.2821 30.8099 26.1513C30.6797 26.0206 30.5766 25.8655 30.5064 25.6949C30.4362 25.5242 30.4003 25.3414 30.4008 25.1569C30.4177 21.2907 30.4367 14.3461 30.4542 9.48205C30.456 8.98739 30.3601 8.49726 30.1719 8.03976C29.9838 7.58227 29.7072 7.16642 29.358 6.81609C29.0088 6.46575 28.5938 6.18782 28.1369 5.99825C27.68 5.80867 27.1902 5.71118 26.6955 5.71136H26.6101C26.1166 5.71095 25.6278 5.80783 25.1717 5.99646C24.7156 6.18508 24.3012 6.46176 23.9521 6.81067C23.603 7.15958 23.3261 7.57388 23.1372 8.02988C22.9484 8.48588 22.8513 8.97463 22.8514 9.46819C22.8548 16.3672 22.8557 31.8959 22.8605 40.5233L15.654 33.7723C14.6724 32.855 13.3785 32.3457 12.0351 32.3477C10.6916 32.3497 9.39928 32.8629 8.42041 33.783C7.44154 34.7032 6.8495 35.9613 6.76451 37.3021C6.67951 38.6428 7.10792 39.9657 7.96276 41.0021L25.0096 61.623C25.378 62.1565 25.7902 62.6585 26.2418 63.1238L26.3995 63.3224L26.4111 63.3165C27.5394 64.4485 28.8801 65.3464 30.3563 65.9588C31.8325 66.5711 33.4152 66.8858 35.0134 66.8847H49.0993C50.6945 66.885 52.2742 66.5709 53.7481 65.9606C55.2219 65.3502 56.5611 64.4555 57.6891 63.3275C58.8171 62.1995 59.7119 60.8603 60.3222 59.3864C60.9326 57.9126 61.2466 56.3329 61.2464 54.7376C61.2365 44.1816 61.2307 23.2411 61.2256 14.4895Z" fill="#014D8A"/>
</svg>
