<svg width="124" height="124" viewBox="0 0 124 124" fill="none" xmlns="http://www.w3.org/2000/svg">
<path d="M15.5 89.125H7.75V69.75H15.5V58.125H7.75V38.75H15.5V23.5716C15.5 19.1038 19.1038 15.5 23.5716 15.5H104.303C108.771 15.5 112.375 19.1038 112.375 23.5716V104.303C112.375 108.771 108.771 112.375 104.303 112.375H23.5716C22.5111 112.377 21.4606 112.17 20.4803 111.765C19.5001 111.36 18.6095 110.765 17.8596 110.015C17.1096 109.266 16.5152 108.375 16.1103 107.395C15.7053 106.414 15.498 105.364 15.5 104.303V89.125Z" fill="#0A1951"/>
<path d="M91.0163 30.9341C89.5322 30.9341 88.0481 31.5076 86.9088 32.6468L71.3856 48.1701C69.073 47.0793 66.5489 46.5105 63.9921 46.5038C61.4122 46.5098 58.8659 47.0882 56.5366 48.1972L40.9823 32.6468C40.443 32.1052 39.802 31.6754 39.0961 31.3821C38.3902 31.0889 37.6334 30.9379 36.869 30.9379C36.1046 30.9379 35.3478 31.0889 34.6419 31.3821C33.936 31.6754 33.295 32.1052 32.7557 32.6468L32.7014 32.7088C32.1606 33.2474 31.7315 33.8875 31.4387 34.5924C31.1458 35.2973 30.9951 36.0531 30.9951 36.8163C30.9951 37.5796 31.1458 38.3354 31.4387 39.0402C31.7315 39.7451 32.1606 40.3852 32.7014 40.9238L48.2557 56.4781C47.1415 58.8088 46.5592 61.358 46.5507 63.9413C46.5573 66.4982 47.1262 69.0223 48.2169 71.3348L32.7053 86.8581C32.1639 87.3968 31.7343 88.0371 31.4411 88.7423C31.148 89.4476 30.997 90.2038 30.997 90.9675C30.997 91.7313 31.148 92.4875 31.4411 93.1927C31.7343 93.8979 32.1639 94.5383 32.7053 95.077L32.7596 95.1312C33.2992 95.6724 33.9403 96.1018 34.6461 96.3947C35.3519 96.6877 36.1086 96.8385 36.8729 96.8385C37.6371 96.8385 38.3938 96.6877 39.0997 96.3947C39.8055 96.1018 40.4466 95.6724 40.9862 95.1312L56.4707 79.6467C58.8178 80.7806 61.3893 81.3738 63.9959 81.3827C66.58 81.3772 69.1305 80.7975 71.4631 79.6855L86.9127 95.1312C87.4513 95.672 88.0914 96.1012 88.7963 96.394C89.5012 96.6868 90.2569 96.8375 91.0202 96.8375C91.7835 96.8375 92.5392 96.6868 93.2441 96.394C93.949 96.1012 94.5891 95.672 95.1277 95.1312L95.1897 95.077C95.7305 94.5383 96.1596 93.8982 96.4525 93.1934C96.7453 92.4885 96.896 91.7327 96.896 90.9695C96.896 90.2062 96.7453 89.4504 96.4525 88.7456C96.1596 88.0407 95.7305 87.4006 95.1897 86.862L79.7362 71.3968C80.8465 69.0678 81.4262 66.5215 81.4334 63.9413C81.4275 61.334 80.8369 58.7611 79.7052 56.4122L95.1897 40.9277C95.7311 40.389 96.1607 39.7487 96.4539 39.0434C96.747 38.3382 96.898 37.582 96.898 36.8183C96.898 36.0545 96.747 35.2983 96.4539 34.5931C96.1607 33.8879 95.7311 33.2475 95.1897 32.7088L95.1316 32.6468C94.5935 32.1048 93.9536 31.6745 93.2487 31.3806C92.5438 31.0867 91.7878 30.9349 91.0241 30.9341H91.0163ZM63.9998 54.2538C66.5691 54.2538 69.0332 55.2745 70.8499 57.0912C72.6667 58.908 73.6873 61.372 73.6873 63.9413C73.6873 66.5106 72.6667 68.9747 70.8499 70.7914C69.0332 72.6082 66.5691 73.6288 63.9998 73.6288C61.4305 73.6288 58.9665 72.6082 57.1497 70.7914C55.333 68.9747 54.3123 66.5106 54.3123 63.9413C54.3123 61.372 55.333 58.908 57.1497 57.0912C58.9665 55.2745 61.4305 54.2538 63.9998 54.2538Z" fill="#4B6C85"/>
<path d="M67.8395 63.8833C67.8385 64.9072 67.4277 65.8889 66.6975 66.6126C65.9673 67.3363 64.9773 67.7428 63.9452 67.7428C62.913 67.7428 61.923 67.3363 61.1928 66.6126C60.4626 65.8889 60.0518 64.9072 60.0508 63.8833C60.0508 62.8586 60.4611 61.876 61.1914 61.1515C61.9218 60.4269 62.9123 60.0199 63.9452 60.0199C64.978 60.0199 65.9686 60.4269 66.6989 61.1515C67.4292 61.876 67.8395 62.8586 67.8395 63.8833Z" fill="#F9F9F9"/>
</svg>
