<svg width="71" height="64" viewBox="0 0 71 64" fill="none" xmlns="http://www.w3.org/2000/svg">
<g clip-path="url(#clip0_1_7566)">
<path d="M51.3481 12.5012C36.1584 10.4644 22.8349 15.7109 12.0585 30.898C13.2929 39.2634 2.31066 48.0725 1.3916 52.7964C4.70212 56.4492 10.9921 58.4261 17.6794 58.6692C24.5507 59.8738 38.1101 55.3607 44.0579 50.9986L68.846 27.8938H68.8474C68.9925 26.8326 69.3475 25.517 69.6165 24.1887C66.686 16.2809 60.0293 13.1054 51.3481 12.5012Z" fill="#C3DDDA"/>
<path d="M51.3482 12.5012L47.8165 11.0472C41.2357 7.98587 34.6125 8.55929 27.9336 13.9058L12.0586 25.5481L35.9437 35.3817L61.4657 16.6655L51.3482 12.5012Z" fill="#D6EAE8"/>
<path d="M69.9744 31.2937C70.6957 32.1118 70.5548 33.3779 69.6744 34.0223L39.2274 56.3489C32.0894 61.6267 24.3864 64.0459 21.7732 63.304C20.387 62.9112 19.8855 61.6338 19.7193 60.5231C19.5657 59.4916 18.7177 58.7059 17.6794 58.6692C23.7919 58.1152 29.71 56.5919 35.6577 52.2298L68.846 27.8938H68.8474C68.8038 28.2033 68.7784 28.4915 68.7784 28.7515C68.7784 29.687 69.3518 30.5899 69.9744 31.2937ZM35.9437 35.3817V38.3873C35.9437 41.6812 32.9557 45.3481 29.0381 48.0725L12.0586 41.082V30.898V25.5481L35.9437 35.3817ZM29.7171 42.3919V37.4999L26.7475 36.2776V41.1682L29.7171 42.3919ZM24.1117 40.083V35.1923L21.1407 33.9686V38.8607L24.1117 40.083ZM18.505 37.7754V32.8834L15.5353 31.6611V36.5531L18.505 37.7754Z" fill="#7098A9"/>
<path d="M53.598 17.2392L34.1308 31.5141L19.3193 25.4195L27.9337 19.1017L36.9637 22.8195L47.8166 14.8596L53.598 17.2392Z" fill="#7098A9"/>
<path d="M47.8166 11.0471V14.8596L36.9637 22.8195C35.8597 19.5695 35.3447 16.567 36.9637 14.4611C38.9586 10.0676 42.938 7.80216 47.8166 6.50128V11.0471ZM69.8745 20.4243C69.8774 20.4384 69.8788 20.4512 69.8802 20.4653L61.4658 26.6348V16.6655L51.3483 12.5012L52.7387 11.481C53.6741 10.7956 54.8969 10.6458 55.9689 11.0867L64.3622 14.5417C67.5163 15.8403 69.4322 17.8808 69.8745 20.4243ZM12.0587 30.898V41.0821C6.86897 45.3481 3.77257 49.7174 4.14589 53.8619C2.92029 53.6867 1.96235 53.3461 1.39181 52.7964C-2.13847 49.398 6.6323 42.9289 8.6651 40.6878C10.6993 38.4467 12.0587 30.898 12.0587 30.898Z" fill="#B8D3CF"/>
<path d="M36.9636 14.4611V22.8195L27.9336 19.1017V13.9058V10.7433C32.6168 10.4343 36.0673 11.2657 36.9636 14.4611ZM40.4234 3.52392L41.4729 7.84864C41.4729 8.7417 39.7908 9.62855 38.9018 9.62855C38.0115 9.62855 36.4585 8.45315 36.4585 7.56009L37.2031 3.94784V2.18009C37.2031 1.28844 37.9229 0.564941 38.8132 0.564941C39.2584 0.564941 39.6599 0.745815 39.9515 1.03832C40.2431 1.33083 40.4234 1.73497 40.4234 2.18009V3.52392Z" fill="#C3DDDA"/>
<path d="M18.5048 32.8834V37.7754L15.5352 36.5531V31.6611L18.5048 32.8834Z" fill="#D6EAE8"/>
<path d="M69.8802 20.4653C70.0633 21.5632 69.8816 22.8816 69.6168 24.1887L43.3016 43.4857L36.4707 44.9638L61.4659 26.6362V26.6348L69.8802 20.4653Z" fill="#7098A9"/>
<path d="M57.7127 22.7007V26.3097L54.8643 28.3983V24.7893L57.7127 22.7007Z" fill="#D6EAE8"/>
<path d="M50.3059 28.1326V31.7416L47.4561 33.8316V30.2226L50.3059 28.1326Z" fill="#D6EAE8"/>
<path d="M47.8165 6.50127L36.9636 14.4611L27.9336 10.7433L37.2031 3.94785V7.41412C37.2031 8.30718 37.9229 9.02927 38.8132 9.02927C39.7021 9.02927 40.4234 8.30718 40.4234 7.41412V3.52393L47.8165 6.50127Z" fill="#7098A9"/>
<path d="M42.8973 33.5645V37.1734L40.0488 39.2634V35.6544L42.8973 33.5645Z" fill="#D6EAE8"/>
<path d="M29.7177 37.4999V42.392L26.748 41.1682V36.2776L29.7177 37.4999Z" fill="#D6EAE8"/>
<path d="M12.0584 41.082L29.0379 48.0725C28.6449 48.3452 28.2434 48.6095 27.8334 48.8624C24.0665 51.1898 10.506 54.7691 4.14558 53.8619C3.77226 49.7173 6.86866 45.3481 12.0584 41.082Z" fill="#D6EAE8"/>
<path d="M24.1116 35.1924V40.083L21.1406 38.8607V33.9686L24.1116 35.1924Z" fill="#D6EAE8"/>
<path d="M70.3959 30.9194C69.915 30.3749 69.3418 29.5569 69.3418 28.7513C69.3418 27.9932 69.5869 26.9147 69.8465 25.7728C70.2532 23.9848 70.7139 21.9582 70.4303 20.3271C69.9527 17.5806 67.9284 15.3995 64.576 14.0194L56.1828 10.5641C54.9389 10.052 53.4918 10.2284 52.4067 11.0244L51.27 11.8578L48.3808 10.6684V6.50156C48.3808 6.27066 48.2409 6.06294 48.0272 5.97702L40.9869 3.14183V2.18066C40.9871 0.978272 40.0118 0 38.8131 0C37.6144 0 36.6391 0.978272 36.6391 2.18066V3.66043L27.6018 10.2875C27.4567 10.394 27.3708 10.5634 27.3708 10.7437V13.6189L11.7258 25.0914C11.5807 25.198 11.4948 25.3674 11.4948 25.5477V30.8454C11.3759 31.4829 10.0695 38.3011 8.24909 40.3073C7.87606 40.7183 7.23988 41.3019 6.50339 41.9777C3.92795 44.3409 0.0357571 47.912 0.000256984 50.8619C-0.0105903 51.7598 0.322012 52.5432 0.98792 53.1908C4.2397 56.7652 10.3143 58.9673 17.6594 59.2333C18.4159 59.2607 19.0479 59.8381 19.1624 60.6064C19.4215 62.3443 20.2715 63.4651 21.6206 63.848C21.9793 63.9497 22.4118 63.9997 22.9081 63.9997C26.4767 63.9997 33.3336 61.4094 39.5599 56.8056L70.0078 34.4783C70.5568 34.0756 70.9136 33.456 70.9863 32.7778C71.0587 32.1034 70.8436 31.4261 70.3959 30.9194ZM69.1064 23.862L43.0652 42.9579L38.9452 43.8501L69.3891 21.5258C69.3795 22.2566 69.2627 23.0581 69.1064 23.862ZM53.0717 11.9371C53.8432 11.3716 54.8713 11.2462 55.755 11.61L64.148 15.0652C66.9957 16.2375 68.755 18.016 69.2586 20.2212L62.0293 25.5224V16.6662C62.0293 16.4369 61.8913 16.2304 61.6798 16.1434L52.4932 12.3614L53.0717 11.9371ZM37.7663 2.18066C37.7663 1.60158 38.2359 1.13046 38.8132 1.13046C39.3905 1.13046 39.8602 1.60158 39.8602 2.18066V7.41455C39.8602 7.99362 39.3905 8.46474 38.8132 8.46474C38.2359 8.46474 37.7663 7.99362 37.7663 7.41455V2.18066ZM36.6393 5.06079V7.41455C36.6393 8.61693 37.6146 9.5952 38.8132 9.5952C40.0119 9.5952 40.9872 8.61693 40.9872 7.41455V4.36004L46.665 6.64654L36.8854 13.8179L29.0795 10.6044L36.6393 5.06079ZM47.2538 7.61492V14.5728L37.5266 21.7055V14.7477L47.2538 7.61492ZM28.4979 11.5866L36.3998 14.8397V21.9759L28.4979 18.7228V11.5866ZM28.0123 19.7449L36.9633 23.3841C37.0811 23.3841 37.1979 23.3471 37.2958 23.2752L47.8953 15.5026L52.4532 17.379L34.0531 30.8714L20.4642 25.2799L28.0123 19.7449ZM27.371 15.0193V18.815L18.9863 24.9632C18.8216 25.0839 18.7349 25.2846 18.7595 25.4878C18.7842 25.691 18.9163 25.8649 19.1049 25.9426L33.9172 32.0377C33.9861 32.0659 34.0588 32.0799 34.1312 32.0799C34.249 32.0799 34.3657 32.0429 34.4636 31.971L53.9308 17.6958C54.1786 17.5141 54.2358 17.167 54.0597 16.9151C53.9938 16.8207 53.9042 16.7527 53.8046 16.7134C53.6192 16.6371 49.602 14.9835 48.3808 14.4808V11.8902L60.3207 16.8057L35.8662 34.738L13.2035 25.4082L27.371 15.0193ZM12.6219 26.3907L35.3806 35.7601V38.387C35.3806 41.1897 32.9085 44.6298 28.9682 47.4321L12.6219 40.7025V26.3907ZM12.158 41.7335L27.8412 48.1899C27.7407 48.2538 27.6406 48.3178 27.5387 48.3809C25.3122 49.7563 19.5552 51.5656 14.147 52.5893C10.2048 53.3355 6.93165 53.59 4.68274 53.3597C4.59526 49.8551 7.10732 45.9474 12.158 41.7335ZM1.78174 52.3888C1.33419 51.9579 1.1202 51.4629 1.12724 50.8758C1.15697 48.4156 4.97999 44.9079 7.26411 42.8121C8.02102 42.1175 8.67481 41.5178 9.0825 41.0683C10.0707 39.9793 10.893 37.7825 11.4948 35.7167V40.8164C6.22179 45.2027 3.55336 49.3584 3.5528 53.1839C2.75137 53.0081 2.15012 52.7436 1.78174 52.3888ZM17.6651 58.1022C12.2691 57.9019 7.48429 56.5709 4.21504 54.4336C4.92082 54.5263 5.68435 54.5674 6.47803 54.5674C9.17688 54.5673 12.2065 54.1069 14.3561 53.7001C19.9713 52.6372 25.764 50.805 28.1297 49.3434C32.1798 46.8413 36.5074 42.649 36.5074 38.3869V35.668L60.9023 17.7794V26.3486L36.1386 44.5079C35.9238 44.6655 35.8481 44.9523 35.957 45.1956C36.0493 45.402 36.2529 45.5294 36.4709 45.5294C36.5102 45.5294 36.5503 45.5253 36.59 45.5167L43.4199 44.0375C43.4971 44.0208 43.5698 43.9879 43.6336 43.9413L68.7467 25.5261C68.5827 26.247 68.4255 26.9427 68.3249 27.5757L35.3261 51.7738C30.2445 55.5001 24.7961 57.4525 17.6651 58.1022ZM69.8658 32.657C69.8264 33.0248 69.6405 33.3476 69.3427 33.5659L38.8931 55.8946C31.8209 61.124 24.2458 63.4165 21.9275 62.7606C21.0236 62.5041 20.4684 61.7231 20.277 60.4395C20.1963 59.897 19.9605 59.412 19.6212 59.025C26.0751 58.1981 31.1862 56.2096 35.9908 52.6865L68.2304 29.0453C68.3147 29.8882 68.7574 30.7693 69.5521 31.669C69.7935 31.942 69.9048 32.2929 69.8658 32.657Z" fill="#3A322B"/>
<path d="M18.7191 32.3608L15.749 31.1381C15.5755 31.0663 15.3774 31.0867 15.2213 31.1915C15.0654 31.2965 14.9717 31.4724 14.9717 31.6609V36.5527C14.9717 36.7819 15.1097 36.9885 15.3212 37.0756L18.2912 38.2983C18.36 38.3267 18.4328 38.3407 18.5052 38.3407C18.6154 38.3407 18.7248 38.3083 18.8191 38.2449C18.975 38.1399 19.0687 37.964 19.0687 37.7754V32.8837C19.0686 32.6545 18.9305 32.4479 18.7191 32.3608ZM17.9416 36.9324L16.0985 36.1737V32.5038L17.9416 33.2625V36.9324ZM24.3254 34.6688L21.3552 33.4462C21.1812 33.3744 20.9836 33.3946 20.8275 33.4996C20.6716 33.6046 20.5779 33.7805 20.5779 33.9691V38.8608C20.5779 39.0902 20.7159 39.2968 20.9274 39.3837L23.8976 40.6063C23.9664 40.6347 24.0391 40.6487 24.1115 40.6487C24.2217 40.6487 24.3312 40.6163 24.4254 40.5528C24.5814 40.4479 24.675 40.2719 24.675 40.0834V35.1916C24.6749 34.9623 24.5368 34.7557 24.3254 34.6688ZM23.5479 39.2405L21.7047 38.4817V34.8118L23.5479 35.5706V39.2405ZM29.7176 42.9566C29.8278 42.9566 29.9374 42.9243 30.0315 42.8608C30.1874 42.7558 30.2811 42.5799 30.2811 42.3914V37.4996C30.2811 37.2703 30.143 37.0638 29.9316 36.9768L26.9615 35.7542C26.7877 35.6824 26.5896 35.7026 26.4338 35.8076C26.2779 35.9126 26.1842 36.0885 26.1842 36.277V41.1688C26.1842 41.3982 26.3223 41.6046 26.5337 41.6916L29.5037 42.9142C29.5726 42.9428 29.6452 42.9566 29.7176 42.9566ZM29.1541 41.5485L27.3111 40.7897V37.1198L29.1541 37.8786V41.5485ZM39.7934 39.767C39.8739 39.8082 39.9613 39.8284 40.0485 39.8284C40.1659 39.8284 40.2827 39.7915 40.381 39.7194L43.2303 37.6302C43.3754 37.5236 43.4613 37.3542 43.4613 37.1739V33.5649C43.4613 33.3521 43.3422 33.1572 43.153 33.061C42.964 32.9645 42.7368 32.9831 42.5654 33.1086L39.7161 35.1979C39.571 35.3044 39.485 35.4738 39.485 35.6541V39.2631C39.485 39.4758 39.6042 39.6707 39.7934 39.767ZM40.612 35.941L42.3343 34.6781V36.8869L40.612 38.1498V35.941ZM47.2012 34.3349C47.2817 34.376 47.3692 34.3962 47.4564 34.3962C47.5737 34.3962 47.6905 34.3593 47.7888 34.2873L50.638 32.198C50.7831 32.0915 50.869 31.9221 50.869 31.7418V28.1328C50.869 27.92 50.7498 27.7251 50.5606 27.6289C50.3717 27.5324 50.1445 27.551 49.9731 27.6765L47.1239 29.7657C46.9788 29.8723 46.8929 30.0417 46.8929 30.222V33.831C46.8929 34.0438 47.012 34.2387 47.2012 34.3349ZM48.0199 30.5089L49.742 29.246V31.4548L48.0199 32.7176V30.5089ZM54.6091 28.9029C54.6895 28.944 54.777 28.9642 54.8642 28.9642C54.9815 28.9642 55.0983 28.9273 55.1966 28.8553L58.0458 26.766C58.1909 26.6595 58.2768 26.4901 58.2768 26.3098V22.7008C58.2768 22.488 58.1577 22.2931 57.9685 22.1969C57.7796 22.1004 57.5523 22.1191 57.3809 22.2445L54.5317 24.3337C54.3866 24.4403 54.3007 24.6097 54.3007 24.79V28.399C54.3007 28.6118 54.4199 28.8065 54.6091 28.9029ZM55.4277 25.0769L57.1498 23.814V26.0228L55.4277 27.2856V25.0769Z" fill="#3A322B"/>
</g>
<defs>
<clipPath id="clip0_1_7566">
<rect width="71" height="64" fill="white"/>
</clipPath>
</defs>
</svg>
