<svg width="124" height="124" viewBox="0 0 124 124" fill="none" xmlns="http://www.w3.org/2000/svg">
<path d="M13.5621 96.7337C12.2893 96.7366 11.0285 96.4881 9.85205 96.0025C8.67558 95.5169 7.6066 94.8037 6.70645 93.9039C5.80631 93.0041 5.09273 91.9354 4.60667 90.7591C4.12061 89.5828 3.87164 88.3221 3.87406 87.0494V36.6761C3.87068 35.4027 4.11893 34.1412 4.60456 32.9641C5.09018 31.7869 5.80361 30.7174 6.70385 29.8168C7.60409 28.9162 8.6734 28.2024 9.85036 27.7163C11.0273 27.2302 12.2887 26.9815 13.5621 26.9844H110.439C111.711 26.982 112.972 27.231 114.148 27.717C115.325 28.2031 116.393 28.9167 117.293 29.8168C118.193 30.7169 118.906 31.7859 119.392 32.9624C119.877 34.1389 120.126 35.3997 120.123 36.6724V87.0457C120.126 88.3185 119.877 89.5793 119.392 90.7557C118.906 91.9322 118.193 93.0012 117.293 93.9013C116.393 94.8015 115.325 95.5151 114.148 96.0011C112.972 96.4872 111.711 96.7361 110.439 96.7337H13.5621Z" fill="#E6E6E6"/>
<path d="M13.5621 78.4671C12.289 78.47 11.0279 78.2214 9.8512 77.7356C8.67448 77.2497 7.60534 76.5362 6.70514 75.636C5.80495 74.7358 5.09145 73.6667 4.60561 72.49C4.11976 71.3133 3.87115 70.0522 3.87405 68.7791V18.4058C3.87115 17.1328 4.11976 15.8717 4.60561 14.6949C5.09145 13.5182 5.80495 12.4491 6.70514 11.5489C7.60534 10.6487 8.67448 9.9352 9.8512 9.44935C11.0279 8.96351 12.289 8.7149 13.5621 8.7178H110.439C111.711 8.71538 112.972 8.96435 114.148 9.45041C115.325 9.93647 116.393 10.65 117.293 11.5502C118.193 12.4503 118.906 13.5193 119.392 14.6958C119.877 15.8723 120.126 17.1331 120.123 18.4058V68.7791C120.126 70.0519 119.877 71.3127 119.392 72.4891C118.906 73.6656 118.193 74.7346 117.293 75.6347C116.393 76.5349 115.325 77.2485 114.148 77.7345C112.972 78.2206 111.711 78.4695 110.439 78.4671H13.5621Z" fill="#4B6C85"/>
<path d="M21.9503 8.71777C21.6731 13.3378 19.6529 17.6805 16.2976 20.8685C12.9424 24.0566 8.50218 25.8525 3.87402 25.8933V61.2915C8.50218 61.3324 12.9424 63.1283 16.2976 66.3163C19.6529 69.5044 21.6731 73.8471 21.9503 78.4671H102.05C102.328 73.8483 104.348 69.5071 107.703 66.3199C111.057 63.1327 115.496 61.3369 120.123 61.2952V25.8897C115.496 25.8479 111.057 24.0522 107.703 20.865C104.348 17.6778 102.328 13.3365 102.05 8.71777H21.9503Z" fill="#0A1951"/>
<path d="M61.998 26.5963C59.7658 26.5963 57.5554 27.036 55.4931 27.8902C53.4308 28.7444 51.557 29.9965 49.9786 31.5749C48.4002 33.1533 47.1481 35.0271 46.2939 37.0894C45.4397 39.1517 45 41.3621 45 43.5943C45 45.8265 45.4397 48.0368 46.2939 50.0991C47.1481 52.1614 48.4002 54.0352 49.9786 55.6136C51.557 57.1921 53.4308 58.4441 55.4931 59.2983C57.5554 60.1526 59.7658 60.5922 61.998 60.5922C66.5061 60.5922 70.8296 58.8014 74.0173 55.6136C77.2051 52.4259 78.9959 48.1024 78.9959 43.5943C78.9959 39.0861 77.2051 34.7626 74.0173 31.5749C70.8296 28.3872 66.5061 26.5963 61.998 26.5963Z" fill="white"/>
<path d="M82.7989 95.2032L60.3729 92.578C63.4192 87.3056 59.0841 82.0955 53.9728 85.0722L40.4257 94.1304C38.3497 95.4558 37.427 97.7186 37.4307 99.747C37.4307 101.779 38.3497 104.038 40.4293 105.36L53.9765 114.418C59.0841 117.369 63.3862 112.141 60.3729 106.92L82.5206 104.39C87.9101 103.438 87.8369 96.4884 82.7989 95.2032Z" fill="#4B6C85"/>
</svg>
