<svg width="44" height="44" viewBox="0 0 44 44" fill="none" xmlns="http://www.w3.org/2000/svg">
<g clip-path="url(#clip0_1_7159)">
<path d="M27.3166 31.075C23.8332 31.075 20.1666 28.6916 18.2416 25.3C18.0582 25.025 17.9666 24.6583 17.7832 24.3833C17.6916 24.6583 17.5082 25.025 17.3249 25.3C15.4916 28.6916 11.7332 31.075 8.2499 31.075C7.05824 31.075 5.95824 30.8 4.94991 30.25C1.09991 28.2333 -0.458427 24.2 0.641573 19.4333C1.37491 16.5 3.39157 13.3833 5.59157 13.3833H8.52491H26.7666H29.6999C31.8999 13.3833 33.9166 16.5 34.6499 19.4333C35.8416 24.2 34.1916 28.2333 30.3416 30.25C29.6082 30.8 28.5082 31.075 27.3166 31.075ZM16.6832 22H18.9749L19.1582 22.6416C19.3416 23.2833 19.5249 23.8333 19.8916 24.3833C21.4499 27.225 24.4749 29.15 27.3166 29.15C28.2332 29.15 29.0582 28.9666 29.6999 28.6C34.1916 26.2166 33.3666 21.2666 32.9999 19.8C32.2666 16.8666 30.7082 15.125 29.7916 15.125C29.6082 15.125 26.8582 15.125 26.8582 15.125H8.70824C8.61657 15.125 5.86657 15.125 5.77491 15.125C4.94991 15.125 3.29991 16.8666 2.56657 19.8C2.19991 21.2666 1.37491 26.2166 5.86657 28.6C6.59991 28.9666 7.4249 29.15 8.2499 29.15C11.0916 29.15 14.1166 27.225 15.6749 24.3833C15.9499 23.8333 16.2249 23.2833 16.4082 22.6416L16.6832 22Z" fill="white"/>
<path d="M23.0996 40.2418V38.4084C31.6246 38.4084 38.4996 31.4418 38.4996 22.8251V7.9751H40.3329V22.8251C40.3329 32.4501 32.5413 40.2418 23.0996 40.2418Z" fill="white"/>
<path d="M19.8916 43.5418C17.5999 43.5418 15.7666 41.6168 15.7666 39.3252C15.7666 37.0335 17.5999 35.1085 19.8916 35.1085C22.1833 35.1085 24.0166 37.0335 24.0166 39.3252C24.0166 41.6168 22.1833 43.5418 19.8916 43.5418ZM19.8916 36.9418C18.6083 36.9418 17.5999 38.0418 17.5999 39.3252C17.5999 40.6085 18.6083 41.7085 19.8916 41.7085C21.1749 41.7085 22.1833 40.6085 22.1833 39.3252C22.1833 38.0418 21.0833 36.9418 19.8916 36.9418ZM39.4166 8.89183C37.1249 8.89183 35.2916 6.96683 35.2916 4.67516C35.2916 2.3835 37.1249 0.458496 39.4166 0.458496C41.7083 0.458496 43.5416 2.3835 43.5416 4.67516C43.5416 6.96683 41.7083 8.89183 39.4166 8.89183ZM39.4166 2.29183C38.1333 2.29183 37.1249 3.39183 37.1249 4.67516C37.1249 5.9585 38.1333 7.0585 39.4166 7.0585C40.6999 7.0585 41.7083 5.9585 41.7083 4.67516C41.7083 3.39183 40.6999 2.29183 39.4166 2.29183Z" fill="white"/>
<path d="M39.3253 21.6333H33.917V23.4666H39.3253V21.6333Z" fill="white"/>
</g>
<defs>
<clipPath id="clip0_1_7159">
<rect width="44" height="44" fill="white"/>
</clipPath>
</defs>
</svg>
