<svg width="44" height="44" viewBox="0 0 44 44" fill="none" xmlns="http://www.w3.org/2000/svg">
<path d="M41.1682 34.4824C38.8435 32.7421 35.5435 32.6175 33.0557 34.0827C32.7334 34.2718 32.4455 34.5038 32.1361 34.7101C31.8182 34.9206 31.483 35.0968 31.135 35.2472C31.2381 35.2042 31.3412 35.1613 31.4443 35.1183C30.9373 35.3288 30.4131 35.4706 29.8717 35.5437C29.9877 35.5265 30.0994 35.5136 30.2154 35.4964C29.6826 35.5652 29.1455 35.5652 28.6127 35.4964C28.7287 35.5136 28.8404 35.5265 28.9564 35.5437C28.3978 35.4663 27.8607 35.3202 27.3408 35.1011C27.4439 35.1441 27.5471 35.187 27.6502 35.23C27.3064 35.0796 26.9799 34.9034 26.6662 34.6972C26.3611 34.4952 26.0775 34.2632 25.7596 34.0784C25.0678 33.6702 24.2857 33.3652 23.4994 33.2105C21.7893 32.8839 20.049 33.1202 18.5064 33.9324C18.1369 34.1257 17.806 34.3706 17.4666 34.6113C17.1185 34.8562 16.749 35.0581 16.358 35.23C16.4611 35.187 16.5642 35.1441 16.6674 35.1011C16.1475 35.3202 15.6103 35.4663 15.0517 35.5437C15.1678 35.5265 15.2795 35.5136 15.3955 35.4964C14.8584 35.5652 14.317 35.5609 13.7756 35.4921C13.8916 35.5093 14.0033 35.5222 14.1193 35.5394C13.5908 35.4663 13.0838 35.3288 12.5896 35.1269C12.6928 35.1699 12.7959 35.2128 12.899 35.2558C12.5682 35.114 12.2459 34.9507 11.9408 34.7531C11.6529 34.5683 11.3908 34.3534 11.1029 34.1687C10.5014 33.7906 9.82245 33.4984 9.13925 33.3136C7.79003 32.9484 6.30331 32.9656 4.96698 33.3952C4.20644 33.6402 3.47597 33.9968 2.84003 34.4738C2.56073 34.6843 2.34589 34.8949 2.24706 35.2429C2.16112 35.5523 2.19979 35.9605 2.37597 36.2355C2.55214 36.5105 2.81854 36.7511 3.14511 36.8284C3.46308 36.9015 3.86698 36.9015 4.13769 36.6995C4.55019 36.3902 4.99276 36.1367 5.46542 35.9347C5.3623 35.9777 5.25917 36.0206 5.15605 36.0636C5.65878 35.8531 6.183 35.7113 6.7244 35.6382C6.60839 35.6554 6.49667 35.6683 6.38065 35.6855C6.91776 35.6167 7.45487 35.6167 7.99198 35.6855C7.87597 35.6683 7.76425 35.6554 7.64823 35.6382C8.18964 35.7113 8.71386 35.8531 9.21659 36.0636C9.11347 36.0206 9.01034 35.9777 8.90722 35.9347C9.2123 36.0636 9.50878 36.2183 9.79237 36.3945C10.1017 36.5878 10.3853 36.8242 10.699 37.0175C11.4037 37.4558 12.2072 37.7824 13.0193 37.9499C14.7381 38.3023 16.4998 38.0659 18.0553 37.2624C18.4377 37.0648 18.7771 36.8113 19.1295 36.5663C19.4775 36.3214 19.8471 36.1195 20.2381 35.9476C20.135 35.9906 20.0318 36.0335 19.9287 36.0765C20.4486 35.8574 20.9857 35.7113 21.5443 35.6339C21.4283 35.6511 21.3166 35.664 21.2006 35.6812C21.7291 35.6167 22.2619 35.6167 22.7904 35.6812C22.6744 35.664 22.5627 35.6511 22.4467 35.6339C23.0053 35.7113 23.5424 35.8574 24.0623 36.0765C23.9592 36.0335 23.856 35.9906 23.7529 35.9476C24.0967 36.098 24.4232 36.2742 24.7369 36.4804C25.042 36.6824 25.3256 36.9144 25.6435 37.0992C26.3353 37.5074 27.1174 37.8124 27.9037 37.9671C29.6053 38.2937 31.3326 38.0574 32.8709 37.2581C33.249 37.0605 33.5885 36.8113 33.9365 36.5663C34.2846 36.3214 34.6541 36.1195 35.0451 35.9476C34.942 35.9906 34.8389 36.0335 34.7357 36.0765C35.2557 35.8574 35.7928 35.7113 36.3514 35.6339C36.2353 35.6511 36.1236 35.664 36.0076 35.6812C36.5361 35.6167 37.0689 35.6167 37.5975 35.6812C37.4814 35.664 37.3697 35.6511 37.2537 35.6339C37.8123 35.7113 38.3494 35.8574 38.8693 36.0765C38.7662 36.0335 38.6631 35.9906 38.56 35.9476C39.0197 36.1495 39.4494 36.3988 39.8533 36.6995C40.1025 36.8886 40.558 36.9101 40.8459 36.8284C41.1467 36.7468 41.4689 36.5148 41.615 36.2355C41.774 35.9347 41.8514 35.5738 41.7439 35.2429C41.6494 34.9163 41.4517 34.6972 41.1682 34.4824Z" fill="#0A1951"/>
<path d="M4.13339 41.8427C4.54589 41.5334 4.98847 41.2799 5.46112 41.0779C5.358 41.1209 5.25487 41.1638 5.15175 41.2068C5.65448 40.9963 6.1787 40.8545 6.72011 40.7814C6.60409 40.7986 6.49237 40.8115 6.37636 40.8287C6.91347 40.7599 7.45058 40.7599 7.98768 40.8287C7.87167 40.8115 7.75995 40.7986 7.64394 40.7814C8.18534 40.8545 8.70956 40.9963 9.21229 41.2068C9.10917 41.1638 9.00604 41.1209 8.90292 41.0779C9.25097 41.224 9.58183 41.4002 9.89979 41.6107C10.2006 41.8084 10.4799 42.0361 10.7892 42.2209C11.4896 42.6377 12.2803 42.9556 13.0838 43.106C14.8154 43.4369 16.59 43.192 18.1498 42.3498C18.4978 42.1607 18.8115 41.9287 19.1338 41.701C19.4904 41.4517 19.8685 41.2455 20.2682 41.0736C20.165 41.1166 20.0619 41.1595 19.9588 41.2025C20.4615 40.992 20.9857 40.8502 21.5271 40.7771C21.4111 40.7943 21.2994 40.8072 21.1834 40.8244C21.7205 40.7556 22.2576 40.7556 22.7947 40.8244C22.6787 40.8072 22.567 40.7943 22.451 40.7771C22.9924 40.8502 23.5166 40.992 24.0193 41.2025C23.9162 41.1595 23.8131 41.1166 23.7099 41.0736C24.058 41.2197 24.3889 41.3959 24.7068 41.6064C25.0076 41.8041 25.2869 42.0318 25.5963 42.2166C26.2967 42.6334 27.0873 42.9513 27.8908 43.1017C29.6224 43.4326 31.3971 43.1877 32.9568 42.3455C33.3049 42.1564 33.6185 41.9244 33.9408 41.6967C34.2974 41.4474 34.6756 41.2412 35.0752 41.0693C34.9721 41.1123 34.8689 41.1552 34.7658 41.1982C35.2685 40.9877 35.7928 40.8459 36.3342 40.7728C36.2181 40.79 36.1064 40.8029 35.9904 40.8201C36.5275 40.7513 37.0646 40.7513 37.6017 40.8201C37.4857 40.8029 37.374 40.79 37.258 40.7728C37.7994 40.8459 38.3236 40.9877 38.8264 41.1982C38.7232 41.1552 38.6201 41.1123 38.517 41.0693C38.9896 41.2713 39.4322 41.5291 39.8447 41.8342C40.0939 42.0232 40.5494 42.0447 40.8373 41.9631C41.1381 41.8814 41.4603 41.6494 41.6064 41.3701C41.7654 41.0693 41.8428 40.7084 41.7353 40.3775C41.6236 40.0381 41.426 39.8189 41.1424 39.6084C38.792 37.8467 35.4318 37.7392 32.9353 39.2646C32.6474 39.4408 32.3853 39.6556 32.1017 39.8404C31.7881 40.0467 31.4529 40.2228 31.1049 40.3732C31.208 40.3302 31.3111 40.2873 31.4142 40.2443C30.9115 40.4549 30.3873 40.5967 29.8459 40.6697C29.9619 40.6525 30.0736 40.6396 30.1896 40.6224C29.6525 40.6912 29.1154 40.6912 28.5783 40.6224C28.6943 40.6396 28.806 40.6525 28.9221 40.6697C28.3806 40.5967 27.8564 40.4549 27.3537 40.2443C27.4568 40.2873 27.5599 40.3302 27.6631 40.3732C27.315 40.2271 26.9842 40.051 26.6662 39.8404C26.3654 39.6428 26.0861 39.415 25.7767 39.2303C25.0764 38.8135 24.2857 38.4955 23.4822 38.3451C21.7506 38.0142 19.976 38.2592 18.4162 39.1013C18.0682 39.2904 17.7545 39.5224 17.4322 39.7502C17.0756 39.9994 16.6974 40.2056 16.2978 40.3775C16.401 40.3345 16.5041 40.2916 16.6072 40.2486C16.1045 40.4592 15.5803 40.601 15.0389 40.674C15.1549 40.6568 15.2666 40.6439 15.3826 40.6267C14.8455 40.6955 14.3084 40.6955 13.7713 40.6267C13.8873 40.6439 13.999 40.6568 14.115 40.674C13.5736 40.601 13.0494 40.4592 12.5467 40.2486C12.6498 40.2916 12.7529 40.3345 12.856 40.3775C12.2674 40.1283 11.7775 39.7674 11.2533 39.415C10.6517 39.0111 9.96854 38.7017 9.27675 38.4955C7.90604 38.083 6.37636 38.0916 5.00995 38.5127C4.22792 38.7533 3.47597 39.1185 2.81854 39.6127C2.53925 39.8232 2.3244 40.0338 2.22558 40.3818C2.13964 40.6912 2.17831 41.0994 2.35448 41.3744C2.53065 41.6494 2.79706 41.89 3.12362 41.9674C3.45448 42.0447 3.86269 42.049 4.13339 41.8427Z" fill="#0A1951"/>
<path d="M39.2088 22.0773C38.9596 22.5113 38.7103 22.9453 38.4611 23.3792C37.8639 24.4191 37.2623 25.4632 36.665 26.5031C35.9389 27.7621 35.2127 29.0253 34.4908 30.2843C33.8635 31.3757 33.2361 32.4671 32.6088 33.5543C32.3037 34.0871 31.9771 34.607 31.6892 35.1484C31.6849 35.157 31.6807 35.1656 31.6764 35.1699C31.831 35.0152 31.9857 34.8605 32.1404 34.7058C31.8224 34.9121 31.4916 35.0925 31.1392 35.2429C31.2424 35.2 31.3455 35.157 31.4486 35.114C30.9416 35.3246 30.4174 35.4664 29.876 35.5394C29.992 35.5222 30.1037 35.5093 30.2197 35.4921C29.6869 35.5609 29.1498 35.5609 28.617 35.4921C28.733 35.5093 28.8447 35.5222 28.9607 35.5394C28.4021 35.4621 27.865 35.316 27.3451 35.0968C27.4482 35.1398 27.5514 35.1828 27.6545 35.2257C27.3107 35.0753 26.9842 34.8992 26.6705 34.6929C26.3654 34.491 26.0818 34.2589 25.7639 34.0742C25.0721 33.666 24.29 33.3609 23.5037 33.2062C21.7935 32.8796 20.0533 33.116 18.5107 33.9281C18.1412 34.1214 17.8103 34.3664 17.4709 34.607C17.1228 34.8519 16.7533 35.0539 16.3623 35.2257C16.4654 35.1828 16.5685 35.1398 16.6717 35.0968C16.1517 35.316 15.6146 35.4621 15.056 35.5394C15.1721 35.5222 15.2838 35.5093 15.3998 35.4921C14.8627 35.5609 14.3213 35.5566 13.7799 35.4878C13.8959 35.505 14.0076 35.5179 14.1236 35.5351C13.5951 35.4621 13.0881 35.3246 12.5939 35.1226C12.6971 35.1656 12.8002 35.2085 12.9033 35.2515C12.5939 35.1226 12.2975 34.9679 12.0139 34.7918C12.1685 34.9464 12.3232 35.1011 12.4779 35.2558C12.2244 34.8175 11.9752 34.3793 11.7217 33.941C11.1201 32.8968 10.5185 31.8484 9.91698 30.8043C9.18651 29.5324 8.45175 28.2605 7.72128 26.9886C7.08964 25.8929 6.46229 24.7972 5.83065 23.7058C5.52128 23.1687 5.22909 22.623 4.90253 22.0945C4.89823 22.0859 4.89393 22.0773 4.88964 22.073C4.63182 22.7046 4.37401 23.3363 4.1205 23.9679C5.46112 23.5468 6.80175 23.1257 8.13807 22.7046C8.73964 22.5156 9.3455 22.3265 9.94706 22.1375C11.4424 21.6648 12.942 21.1964 14.4373 20.7238C16.1389 20.1867 17.8447 19.6539 19.5463 19.1168C20.483 18.8246 21.4283 18.5539 22.3564 18.2316C22.3693 18.2273 22.3822 18.223 22.3994 18.2187C22.1717 18.2187 21.9439 18.2187 21.7119 18.2187C22.4853 18.4636 23.2588 18.7043 24.0279 18.9492C25.6908 19.4734 27.3537 19.9933 29.0209 20.5175C30.5935 21.0117 32.1705 21.5058 33.7432 22C34.3576 22.1933 34.9721 22.3867 35.5865 22.58C37.0174 23.0312 38.4482 23.4781 39.8791 23.9293C39.9178 23.9421 39.9564 23.955 39.9951 23.9636C40.6396 24.1656 41.4303 23.7273 41.5807 23.0613C41.7396 22.3609 41.3701 21.6906 40.6783 21.4757C39.3377 21.0546 37.9971 20.6335 36.6607 20.2125C36.0506 20.0191 35.4404 19.83 34.8346 19.6367C33.3349 19.164 31.8396 18.6957 30.34 18.223C28.6342 17.6859 26.9326 17.1531 25.2267 16.616C24.2986 16.3238 23.3748 15.9972 22.4381 15.7394C22.0256 15.6277 21.7248 15.7222 21.3596 15.8382C20.874 15.9886 20.3885 16.1433 19.9029 16.2937C18.2959 16.8007 16.6889 17.3035 15.0775 17.8105C13.4361 18.3261 11.7947 18.8418 10.1533 19.3574C9.45292 19.5765 8.74823 19.8 8.04784 20.0191C6.65136 20.4574 5.25917 20.8957 3.86268 21.3339C3.72089 21.3812 3.57479 21.4242 3.433 21.4714C2.63807 21.7207 2.23417 22.623 2.66386 23.3664C3.03339 24.0109 3.40722 24.6554 3.77675 25.3043C4.60175 26.7394 5.42675 28.1746 6.25175 29.6054C7.11112 31.1007 7.9705 32.5918 8.82987 34.0871C9.29393 34.8906 9.74511 35.7027 10.2178 36.5019C10.4842 36.9531 10.9912 37.2023 11.4596 37.4128C12.3705 37.8168 13.3029 38.0617 14.3041 38.1089C15.1635 38.1519 16.0615 38.0316 16.8779 37.7609C17.3334 37.6105 17.7803 37.4214 18.2014 37.1894C18.558 36.996 18.8717 36.7468 19.2068 36.5191C19.5377 36.2957 19.8857 36.1023 20.251 35.9433C20.1478 35.9863 20.0447 36.0293 19.9416 36.0722C20.4615 35.8531 20.9986 35.707 21.5572 35.6296C21.4412 35.6468 21.3295 35.6597 21.2135 35.6769C21.742 35.6125 22.2748 35.6125 22.8033 35.6769C22.6873 35.6597 22.5756 35.6468 22.4596 35.6296C23.0182 35.707 23.5553 35.8531 24.0752 36.0722C23.9721 36.0293 23.8689 35.9863 23.7658 35.9433C24.131 36.1023 24.4834 36.2914 24.8099 36.5191C25.1451 36.7468 25.4588 36.9918 25.8154 37.1894C26.5803 37.6062 27.4139 37.8984 28.2732 38.0187C29.24 38.1562 30.1896 38.1347 31.1435 37.9113C31.6162 37.7996 32.0674 37.6277 32.5099 37.43C33.0084 37.2109 33.6057 36.9273 33.9021 36.4632C34.306 35.8402 34.6455 35.1699 35.015 34.5253C35.8443 33.0859 36.6693 31.6507 37.4986 30.2113C38.3537 28.7246 39.2088 27.2421 40.0639 25.7554C40.515 24.9691 40.9791 24.1914 41.4217 23.4007C41.4303 23.3878 41.4346 23.3793 41.4432 23.3664C41.7783 22.782 41.5978 21.9312 40.9791 21.6046C40.3603 21.291 39.5697 21.4543 39.2088 22.0773Z" fill="#0A1951"/>
<path d="M36.0253 20.0277C34.4785 19.5421 32.9316 19.0566 31.3804 18.5668C28.9355 17.7976 26.4949 17.0328 24.05 16.2636C23.5043 16.0918 22.9586 15.8941 22.4086 15.748C21.8371 15.5976 21.214 15.8984 20.6726 16.066C18.3265 16.8007 15.9847 17.5398 13.6386 18.2746C11.8125 18.8503 9.98199 19.4218 8.15582 19.9976C8.12574 20.0062 8.09566 20.0148 8.06558 20.0277C8.5941 20.5562 9.12262 21.0847 9.65113 21.6132C10.0421 20.38 10.4375 19.1468 10.8285 17.9179C11.4472 15.98 12.0617 14.0421 12.6804 12.1043C12.8308 11.6273 12.9597 11.1289 13.1488 10.6648C13.1058 10.7679 13.0629 10.871 13.0199 10.9742C13.0671 10.8625 13.123 10.755 13.1875 10.6562C13.2089 10.6218 13.2304 10.5918 13.2562 10.5574C13.2132 10.6132 13.1703 10.6691 13.1273 10.725C13.1273 10.6906 13.239 10.6003 13.2691 10.5746C13.3121 10.5316 13.355 10.4972 13.4023 10.4586C13.5011 10.3683 13.1101 10.6648 13.3293 10.523C13.4367 10.4543 13.5484 10.3984 13.6687 10.3468C13.5656 10.3898 13.4625 10.4328 13.3593 10.4757C13.5269 10.4113 13.6988 10.364 13.8793 10.3425C13.7632 10.3597 13.6515 10.3726 13.5355 10.3898C14.1328 10.3253 14.7558 10.3769 15.3531 10.3769C16.6808 10.3769 18.0086 10.3769 19.3406 10.3769C20.9519 10.3769 22.5632 10.3769 24.1703 10.3769C25.5582 10.3769 26.9418 10.3769 28.3296 10.3769C28.9828 10.3769 29.6359 10.3683 30.2933 10.3769C30.3793 10.3769 30.4652 10.3812 30.5511 10.3898C30.4351 10.3726 30.3234 10.3597 30.2074 10.3425C30.3878 10.3683 30.5597 10.4113 30.7273 10.4757C30.6242 10.4328 30.5211 10.3898 30.4179 10.3468C30.5254 10.3941 30.6328 10.4457 30.7316 10.5058C30.766 10.5273 30.7961 10.5488 30.8304 10.5703C30.7746 10.5273 30.7187 10.4843 30.6628 10.4414C30.7101 10.45 30.7832 10.5445 30.8175 10.5789C30.8605 10.6218 30.8992 10.6648 30.9378 10.7078C31.0281 10.8066 30.7316 10.4156 30.8777 10.6347C30.9507 10.7421 31.0109 10.8582 31.0625 10.9785C31.0195 10.8753 30.9765 10.7722 30.9336 10.6691C31.0882 11.0558 31.1957 11.464 31.3203 11.8593C31.591 12.7144 31.866 13.5652 32.1367 14.4203C32.7597 16.3711 33.3785 18.3175 34.0015 20.2683C34.1433 20.7195 34.2894 21.1707 34.4312 21.6218C34.6375 22.2621 35.3378 22.7433 36.0168 22.5242C36.6613 22.3179 37.1382 21.6261 36.9191 20.9386C36.5753 19.8687 36.2359 18.7945 35.8921 17.7246C35.3035 15.8726 34.7105 14.0207 34.1218 12.1687C33.9371 11.5929 33.7523 11.0171 33.5718 10.4371C33.5418 10.3425 33.5117 10.2523 33.4816 10.1578C33.1636 9.19527 32.4976 8.44761 31.5609 8.0566C31.0066 7.82027 30.4351 7.79878 29.8507 7.79878C29.305 7.79878 28.755 7.79878 28.2093 7.79878C26.4046 7.79878 24.5957 7.79878 22.791 7.79878C20.8574 7.79878 18.9238 7.79878 16.9902 7.79878C15.9375 7.79878 14.889 7.79449 13.8363 7.79878C12.3324 7.80308 11.0691 8.7441 10.5964 10.1621C10.4847 10.4972 10.3816 10.8324 10.2785 11.1675C9.72418 12.8992 9.17418 14.6351 8.61988 16.3668C8.16012 17.8105 7.70035 19.2585 7.23629 20.7023C7.21051 20.7839 7.18473 20.8613 7.15894 20.9429C6.86676 21.8668 7.82496 22.8164 8.74449 22.5285C10.2828 22.0429 11.8254 21.5617 13.3636 21.0761C15.8128 20.307 18.2621 19.5378 20.7113 18.7644C21.2656 18.5882 21.8242 18.4164 22.3785 18.2402C22.1507 18.2402 21.923 18.2402 21.691 18.2402C23.225 18.7214 24.7589 19.207 26.2972 19.6882C28.7464 20.4574 31.1914 21.2265 33.6406 21.9957C34.2035 22.1718 34.7664 22.348 35.3293 22.5285C35.9738 22.7304 36.7644 22.2921 36.9148 21.6261C37.0824 20.9128 36.7128 20.2425 36.0253 20.0277Z" fill="#0A1951"/>
<path d="M36.0248 20.0405C34.478 19.5549 32.9268 19.0651 31.3799 18.5795C28.9307 17.8104 26.4815 17.0369 24.0323 16.2678C23.4909 16.0959 22.9495 15.9069 22.4038 15.7565C21.8409 15.5975 21.1834 15.9112 20.6506 16.0787C18.3045 16.8178 15.9627 17.5569 13.6166 18.2916C11.7948 18.8674 9.97289 19.4389 8.15102 20.0147C8.12094 20.0233 8.09086 20.0319 8.06078 20.0448C8.5893 20.5733 9.11782 21.1018 9.64633 21.6303C9.64633 21.626 9.65063 21.6217 9.65063 21.6174C9.34985 21.9182 9.04907 22.219 8.74828 22.5198C10.2866 22.0342 11.8291 21.553 13.3674 21.0674C15.8166 20.2983 18.2659 19.5291 20.7151 18.7557C21.2694 18.5795 21.828 18.4076 22.3823 18.2315C22.1545 18.2315 21.9268 18.2315 21.6948 18.2315C23.2288 18.7127 24.7627 19.1983 26.301 19.6795C28.7502 20.4487 31.1952 21.2178 33.6444 21.9869C34.2073 22.1631 34.7702 22.3393 35.333 22.5198C35.0323 22.219 34.7315 21.9182 34.4307 21.6174C34.4307 21.6217 34.435 21.626 34.435 21.6303C34.6413 22.2705 35.3373 22.7518 36.0205 22.5326C36.6608 22.3264 37.142 21.6346 36.9229 20.9471C36.7682 20.4616 36.4245 20.1651 35.9561 20.0147C35.8745 19.9889 35.7928 19.9631 35.7069 19.9373C35.3889 19.8385 35.0709 19.7397 34.753 19.6366C33.6659 19.2928 32.5788 18.9534 31.4916 18.6096C29.0166 17.8319 26.5459 17.0541 24.0709 16.2764C23.5166 16.1002 22.9623 15.9069 22.3995 15.7522C21.828 15.5932 21.1577 15.9155 20.6206 16.083C18.253 16.8264 15.8811 17.5741 13.5135 18.3174C11.7131 18.8846 9.90414 19.4303 8.11235 20.0147C7.64399 20.1694 7.31313 20.4616 7.15414 20.9471C6.85766 21.8709 7.82446 22.8205 8.73969 22.5326C10.2737 22.0471 11.812 21.5659 13.3459 21.0803C15.7952 20.3112 18.2444 19.5377 20.6893 18.7686C21.2522 18.5924 21.8151 18.4119 22.378 18.2358C22.1502 18.2358 21.9225 18.2358 21.6905 18.2358C23.2245 18.717 24.7627 19.2026 26.2967 19.6838C28.7459 20.453 31.1952 21.2264 33.6401 21.9955C34.203 22.1717 34.7659 22.3522 35.3288 22.5284C35.9733 22.7303 36.7639 22.292 36.9143 21.626C37.0862 20.9256 36.7166 20.2553 36.0248 20.0405ZM23.4307 2.67679C23.4307 4.54593 23.4307 6.41937 23.4307 8.28851C23.4307 8.55062 23.4307 8.81273 23.4307 9.07484C23.8604 8.64515 24.2901 8.21546 24.7198 7.78577C23.1471 7.78577 21.5745 7.78577 20.0061 7.78577C19.7784 7.78577 19.5506 7.78577 19.3229 7.78577C19.7526 8.21546 20.1823 8.64515 20.612 9.07484C20.612 7.1971 20.612 5.32367 20.612 3.44593C20.612 3.17093 20.6034 2.89163 20.6163 2.61663C20.5991 2.73265 20.5862 2.84437 20.569 2.96038C20.5776 2.90023 20.5905 2.84867 20.6077 2.79281C20.5647 2.89593 20.5217 2.99906 20.4788 3.10218C20.4916 3.06781 20.5088 3.03343 20.526 2.99906C20.3756 3.17952 20.3413 3.22249 20.4272 3.12796C20.5217 3.04202 20.4788 3.0764 20.2983 3.22679C20.3327 3.2096 20.3627 3.19242 20.4014 3.17952C20.2983 3.22249 20.1952 3.26546 20.092 3.30843C20.1479 3.29124 20.1995 3.27835 20.2596 3.26976C20.1436 3.28695 20.0319 3.29984 19.9159 3.31702C20.3928 3.29554 20.8698 3.31273 21.3467 3.31273C22.0901 3.31273 22.8334 3.31273 23.5725 3.31273C23.7573 3.31273 23.942 3.30843 24.1268 3.31702C24.0108 3.29984 23.8991 3.28695 23.7831 3.26976C23.8432 3.27835 23.8948 3.29124 23.9506 3.30843C23.8475 3.26546 23.7444 3.22249 23.6413 3.17952C23.6756 3.19242 23.71 3.2096 23.7444 3.22679C23.5639 3.0764 23.5209 3.04202 23.6155 3.12796C23.7014 3.22249 23.667 3.17952 23.5166 2.99906C23.5338 3.03343 23.551 3.06351 23.5639 3.10218C23.5209 2.99906 23.478 2.89593 23.435 2.79281C23.4522 2.84867 23.4651 2.90023 23.4737 2.96038C23.4565 2.84437 23.4436 2.73265 23.4264 2.61663C23.4307 2.63812 23.4307 2.65531 23.4307 2.67679C23.4608 3.3514 24.0022 3.99593 24.7198 3.96585C25.3944 3.93577 26.0432 3.39867 26.0088 2.67679C25.9702 1.83031 25.4288 0.983822 24.5565 0.799056C24.3373 0.75179 24.1268 0.734603 23.9077 0.734603C23.4823 0.734603 23.0612 0.734603 22.6358 0.734603C21.7549 0.734603 20.8698 0.708822 19.9932 0.734603C18.8846 0.764681 18.051 1.61976 18.0381 2.72406C18.0338 2.99906 18.0381 3.27406 18.0381 3.54906C18.0381 4.61898 18.0381 5.6932 18.0381 6.76312C18.0381 7.53226 18.0381 8.3014 18.0381 9.07484C18.0381 9.77093 18.6268 10.3639 19.3272 10.3639C20.8998 10.3639 22.4725 10.3639 24.0409 10.3639C24.2686 10.3639 24.4963 10.3639 24.7241 10.3639C25.4202 10.3639 26.0131 9.77523 26.0131 9.07484C26.0131 7.2057 26.0131 5.33226 26.0131 3.46312C26.0131 3.20101 26.0131 2.9389 26.0131 2.67679C26.0131 2.00218 25.4202 1.35765 24.7241 1.38773C24.0237 1.41781 23.4307 1.95492 23.4307 2.67679Z" fill="#0A1951"/>
</svg>
