<svg width="122" height="18" viewBox="0 0 122 18" fill="none" xmlns="http://www.w3.org/2000/svg">
<path d="M14.6787 16.8257C14.0789 17.2529 10.2304 14.5448 9.49335 14.5388C8.75627 14.5329 4.86444 17.1787 4.27165 16.7419C3.67886 16.3051 5.07248 11.8185 4.85039 11.1177C4.6283 10.4169 0.902108 7.54362 1.13552 6.84646C1.36898 6.14929 6.07879 6.08454 6.67858 5.65732C7.27836 5.23015 8.86732 0.808558 9.60445 0.814459C10.3415 0.820411 11.8586 5.26699 12.4514 5.70381C13.0442 6.14057 17.7524 6.28116 17.9746 6.98197C18.1967 7.68278 14.4245 10.4957 14.1911 11.1929C13.9576 11.89 15.2785 16.3985 14.6787 16.8257Z" fill="#F8B84E"/>
<path d="M40.6787 16.8257C40.0789 17.2529 36.2304 14.5448 35.4933 14.5388C34.7563 14.5329 30.8644 17.1787 30.2717 16.7419C29.6789 16.3051 31.0725 11.8185 30.8504 11.1177C30.6283 10.4169 26.9021 7.54362 27.1355 6.84646C27.369 6.14929 32.0788 6.08454 32.6786 5.65732C33.2784 5.23015 34.8673 0.808558 35.6044 0.814459C36.3415 0.820411 37.8586 5.26699 38.4514 5.70381C39.0442 6.14057 43.7524 6.28116 43.9746 6.98197C44.1967 7.68278 40.4245 10.4957 40.1911 11.1929C39.9576 11.89 41.2785 16.3985 40.6787 16.8257Z" fill="#F8B84E"/>
<path d="M66.6787 16.8257C66.0789 17.2529 62.2304 14.5448 61.4933 14.5388C60.7563 14.5329 56.8644 17.1787 56.2717 16.7419C55.6789 16.3051 57.0725 11.8185 56.8504 11.1177C56.6283 10.4169 52.9021 7.54362 53.1355 6.84646C53.369 6.14929 58.0788 6.08454 58.6786 5.65732C59.2784 5.23015 60.8673 0.808558 61.6044 0.814459C62.3415 0.820411 63.8586 5.26699 64.4514 5.70381C65.0442 6.14057 69.7524 6.28116 69.9746 6.98197C70.1967 7.68278 66.4245 10.4957 66.1911 11.1929C65.9576 11.89 67.2785 16.3985 66.6787 16.8257Z" fill="#F8B84E"/>
<path d="M92.6787 16.8257C92.0789 17.2529 88.2304 14.5448 87.4933 14.5388C86.7563 14.5329 82.8644 17.1787 82.2717 16.7419C81.6789 16.3051 83.0725 11.8185 82.8504 11.1177C82.6283 10.4169 78.9021 7.54362 79.1355 6.84646C79.369 6.14929 84.0788 6.08454 84.6786 5.65732C85.2784 5.23015 86.8673 0.808558 87.6044 0.814459C88.3415 0.820411 89.8586 5.26699 90.4514 5.70381C91.0442 6.14057 95.7524 6.28116 95.9746 6.98197C96.1967 7.68278 92.4245 10.4957 92.1911 11.1929C91.9576 11.89 93.2785 16.3985 92.6787 16.8257Z" fill="#F8B84E"/>
<path d="M118.679 16.8257C118.079 17.2529 114.23 14.5448 113.493 14.5388C112.756 14.5329 108.864 17.1787 108.272 16.7419C107.679 16.3051 109.072 11.8185 108.85 11.1177C108.628 10.4169 104.902 7.54362 105.136 6.84646C105.369 6.14929 110.079 6.08454 110.679 5.65732C111.278 5.23015 112.867 0.808558 113.604 0.814459C114.341 0.820411 115.859 5.26699 116.451 5.70381C117.044 6.14057 121.752 6.28116 121.975 6.98197C122.197 7.68278 118.425 10.4957 118.191 11.1929C117.958 11.89 119.279 16.3985 118.679 16.8257Z" fill="#F8B84E"/>
</svg>
