<svg width="124" height="124" viewBox="0 0 124 124" fill="none" xmlns="http://www.w3.org/2000/svg">
<path d="M81.375 108.5H73.625C72.4625 108.5 71.6875 107.725 71.6875 106.562C71.6875 105.4 72.4625 104.625 73.625 104.625H81.375C93 104.625 102.688 94.9375 102.688 83.3125V79.4375C102.688 78.275 103.462 77.5 104.625 77.5C105.787 77.5 106.562 78.275 106.562 79.4375V83.3125C106.562 97.2625 95.325 108.5 81.375 108.5Z" fill="#004463"/>
<path d="M75.5625 106.562C75.5625 108.888 74.0125 110.438 71.6875 110.438H67.8125C65.4875 110.438 63.9375 108.888 63.9375 106.562C63.9375 104.237 65.4875 102.688 67.8125 102.688H71.6875C74.0125 102.688 75.5625 104.237 75.5625 106.562Z" fill="#607D95"/>
<path d="M100.75 62C99.5875 62 98.8125 61.225 98.8125 60.0625V48.4375C98.8125 47.275 99.5875 46.5 100.75 46.5C101.912 46.5 102.688 47.275 102.688 48.4375V60.0625C102.688 61.225 101.912 62 100.75 62ZM19.375 62C18.2125 62 17.4375 61.225 17.4375 60.0625V48.4375C17.4375 47.275 18.2125 46.5 19.375 46.5C20.5375 46.5 21.3125 47.275 21.3125 48.4375V60.0625C21.3125 61.225 20.5375 62 19.375 62Z" fill="#004463"/>
<path d="M96.875 60.0625H104.625C106.95 60.0625 108.5 61.6125 108.5 63.9375V79.4375C108.5 81.7625 106.95 83.3125 104.625 83.3125H96.875V60.0625Z" fill="#607D95"/>
<path d="M100.363 50.375C102.688 50.375 104.625 48.4375 104.238 46.1125C102.3 23.6375 83.3125 5.8125 60.0625 5.8125C36.8125 5.8125 17.825 23.6375 15.8875 46.1125C15.5 48.4375 17.4375 50.375 19.7625 50.375C21.7 50.375 23.25 48.825 23.6375 46.8875C25.1875 28.2875 41.075 13.5625 60.45 13.5625C79.825 13.5625 95.325 28.2875 97.2625 46.8875C96.875 48.825 98.425 50.375 100.363 50.375Z" fill="#0A1951"/>
<path d="M23.6375 46.1125C25.575 24.8 42.625 7.75 63.9375 5.8125H60.0625C36.8125 5.8125 17.825 23.6375 15.8875 46.1125C15.5 48.4375 17.4375 50.375 19.7625 50.375C21.7 50.375 23.25 48.825 23.6375 46.8875C23.25 46.8875 23.6375 46.5 23.6375 46.1125ZM67.8125 13.5625C66.65 13.5625 65.1 13.5625 63.9375 13.95C81.375 15.8875 94.9375 29.8375 96.875 47.275C96.875 49.2125 98.8125 50.7625 100.75 50.7625C103.075 50.7625 104.625 48.825 104.625 46.8875C102.3 27.9 86.8 13.5625 67.8125 13.5625Z" fill="#4B6C85"/>
<path d="M73.625 71.6875H46.5C44.175 71.6875 42.625 73.2375 42.625 75.5625V91.0625C42.625 93.3875 44.175 94.9375 46.5 94.9375H50.375V102.688L62 94.9375H73.625C75.95 94.9375 77.5 93.3875 77.5 91.0625V75.5625C77.5 73.2375 75.95 71.6875 73.625 71.6875Z" fill="#EEF2FA"/>
<path d="M58.125 97.65V94.9375H54.25C51.925 94.9375 50.375 93.3875 50.375 91.0625V75.5625C50.375 73.2375 51.925 71.6875 54.25 71.6875H46.5C44.175 71.6875 42.625 73.2375 42.625 75.5625V91.0625C42.625 93.3875 44.175 94.9375 46.5 94.9375H50.375V102.688L58.125 97.65Z" fill="#D5E5F2"/>
<path d="M27.125 87.1875C24.8 87.1875 23.25 85.6375 23.25 83.3125V60.0625C23.25 57.7375 24.8 56.1875 27.125 56.1875C29.45 56.1875 31 57.7375 31 60.0625V83.3125C31 85.6375 29.45 87.1875 27.125 87.1875ZM93 56.1875C95.325 56.1875 96.875 57.7375 96.875 60.0625V83.3125C96.875 85.6375 95.325 87.1875 93 87.1875C90.675 87.1875 89.125 85.6375 89.125 83.3125V60.0625C89.125 57.7375 90.675 56.1875 93 56.1875Z" fill="#4B6C85"/>
<path d="M27.125 79.4375C24.8 79.4375 23.25 77.8875 23.25 75.5625V83.3125C23.25 85.6375 24.8 87.1875 27.125 87.1875C29.45 87.1875 31 85.6375 31 83.3125V75.5625C31 77.8875 29.45 79.4375 27.125 79.4375ZM93 79.4375C90.675 79.4375 89.125 77.8875 89.125 75.5625V83.3125C89.125 85.6375 90.675 87.1875 93 87.1875C95.325 87.1875 96.875 85.6375 96.875 83.3125V75.5625C96.875 77.8875 95.325 79.4375 93 79.4375Z" fill="#40657C"/>
<path d="M23.25 83.3125H15.5C13.175 83.3125 11.625 81.7625 11.625 79.4375V63.9375C11.625 61.6125 13.175 60.0625 15.5 60.0625H23.25V83.3125Z" fill="#607D95"/>
<path d="M17.4375 60.0625V73.625C17.4375 75.95 15.8875 77.5 13.5625 77.5H11.625V79.4375C11.625 81.7625 13.175 83.3125 15.5 83.3125H23.25V60.0625H17.4375ZM102.688 60.0625V73.625C102.688 75.95 104.238 77.5 106.562 77.5H108.5V79.4375C108.5 81.7625 106.95 83.3125 104.625 83.3125H96.875V60.0625H102.688Z" fill="#4B6C85"/>
<path d="M70.1373 81.375H49.9873C48.8248 81.375 48.0498 80.6 48.0498 79.4375C48.0498 78.275 48.8248 77.5 49.9873 77.5H70.1373C71.2998 77.5 72.0748 78.275 72.0748 79.4375C72.0748 80.6 71.2998 81.375 70.1373 81.375ZM62.3873 89.125H49.9873C48.8248 89.125 48.0498 88.35 48.0498 87.1875C48.0498 86.025 48.8248 85.25 49.9873 85.25H62.3873C63.5498 85.25 64.3248 86.025 64.3248 87.1875C64.3248 88.35 63.5498 89.125 62.3873 89.125Z" fill="#99B5CE"/>
</svg>
