<svg width="44" height="44" viewBox="0 0 44 44" fill="none" xmlns="http://www.w3.org/2000/svg">
<path d="M34.3913 26.2232H31.087V25.1121C31.0859 23.547 30.6213 22.0171 29.7513 20.714C28.8814 19.4109 27.6448 18.3926 26.1965 17.7866C26.7251 17.1534 26.9963 16.3458 26.9565 15.5232C26.9565 15.3049 26.8695 15.0955 26.7146 14.9412C26.5596 14.7868 26.3495 14.7001 26.1304 14.7001C25.9113 14.7001 25.7012 14.7868 25.5463 14.9412C25.3914 15.0955 25.3043 15.3049 25.3043 15.5232C25.3043 17.0212 24.2883 17.1693 23.9909 17.1693H12.5743C11.3435 17.1693 11.2609 15.7948 11.2609 15.5232C11.2609 15.3049 11.1738 15.0955 11.0189 14.9412C10.864 14.7868 10.6539 14.7001 10.4348 14.7001C10.2157 14.7001 10.0056 14.7868 9.85065 14.9412C9.69573 15.0955 9.6087 15.3049 9.6087 15.5232C9.61167 16.3407 9.88131 17.1351 10.377 17.7866C8.92715 18.3913 7.68883 19.4091 6.81735 20.7123C5.94586 22.0155 5.48002 23.5461 5.47826 25.1121V26.3385C4.77074 26.5205 4.14372 26.931 3.69531 27.5059C3.24689 28.0808 3.00237 28.7875 3 29.5156V36.9233C3 37.1416 3.08703 37.351 3.24196 37.5053C3.39688 37.6597 3.607 37.7464 3.82609 37.7464H5.77565C6.12295 38.6998 6.75643 39.5235 7.59001 40.1056C8.42359 40.6877 9.41685 41 10.4348 41C11.4527 41 12.446 40.6877 13.2796 40.1056C14.1131 39.5235 14.7466 38.6998 15.0939 37.7464H28.9061C29.2534 38.6998 29.8869 39.5235 30.7204 40.1056C31.554 40.6877 32.5473 41 33.5652 41C34.5832 41 35.5764 40.6877 36.41 40.1056C37.2436 39.5235 37.8771 38.6998 38.2243 37.7464H40.1739C40.393 37.7464 40.6031 37.6597 40.758 37.5053C40.913 37.351 41 37.1416 41 36.9233V32.8079C40.9892 31.0649 40.2894 29.3963 39.0524 28.1638C37.8154 26.9312 36.1407 26.234 34.3913 26.2232ZM7.13043 25.1121C7.13262 23.4428 7.79913 21.8425 8.98381 20.6621C10.1685 19.4818 11.7746 18.8177 13.45 18.8155H23.1152C24.7906 18.8177 26.3967 19.4818 27.5814 20.6621C28.7661 21.8425 29.4326 23.4428 29.4348 25.1121V26.2232H7.13043V25.1121ZM10.4348 39.3926C9.67187 39.3923 8.93254 39.1291 8.34228 38.6475C7.75202 38.1659 7.3472 37.4956 7.19652 36.7505C7.152 36.5366 7.12985 36.3187 7.13043 36.1002C7.13043 35.4491 7.32423 34.8125 7.68732 34.2711C8.0504 33.7297 8.56647 33.3077 9.17026 33.0585C9.77405 32.8093 10.4384 32.7441 11.0794 32.8712C11.7204 32.9982 12.3092 33.3118 12.7713 33.7722C13.2334 34.2326 13.5481 34.8193 13.6756 35.4579C13.8031 36.0966 13.7377 36.7586 13.4876 37.3601C13.2375 37.9617 12.814 38.4759 12.2706 38.8377C11.7272 39.1995 11.0883 39.3926 10.4348 39.3926ZM33.5652 39.3926C32.8023 39.3923 32.063 39.1291 31.4727 38.6475C30.8825 38.1659 30.4776 37.4956 30.327 36.7505C30.2824 36.5366 30.2603 36.3187 30.2609 36.1002C30.2609 35.4491 30.4547 34.8125 30.8178 34.2711C31.1808 33.7297 31.6969 33.3077 32.3007 33.0585C32.9045 32.8093 33.5689 32.7441 34.2099 32.8712C34.8508 32.9982 35.4396 33.3118 35.9017 33.7722C36.3639 34.2326 36.6786 34.8193 36.8061 35.4579C36.9336 36.0966 36.8681 36.7586 36.618 37.3601C36.3679 37.9617 35.9444 38.4759 35.401 38.8377C34.8576 39.1995 34.2188 39.3926 33.5652 39.3926ZM39.3478 36.1002H38.5217C38.5217 34.7905 37.9995 33.5343 37.07 32.6082C36.1405 31.682 34.8798 31.1617 33.5652 31.1617C32.2507 31.1617 30.99 31.682 30.0604 32.6082C29.1309 33.5343 28.6087 34.7905 28.6087 36.1002H15.3913C15.3913 34.7905 14.8691 33.5343 13.9396 32.6082C13.01 31.682 11.7493 31.1617 10.4348 31.1617C9.12023 31.1617 7.85952 31.682 6.92999 32.6082C6.00046 33.5343 5.47826 34.7905 5.47826 36.1002H4.65217V29.5156C4.65217 29.079 4.82624 28.6603 5.13608 28.3515C5.44593 28.0428 5.86616 27.8694 6.30435 27.8694H34.3913C35.7059 27.8694 36.9666 28.3897 37.8961 29.3159C38.8256 30.242 39.3478 31.4981 39.3478 32.8079V36.1002ZM13.7391 16.3462H22.8261C23.0452 16.3462 23.2553 16.2595 23.4102 16.1052C23.5651 15.9508 23.6522 15.7415 23.6522 15.5232V10.5847C23.6522 10.3664 23.5651 10.157 23.4102 10.0027C23.2553 9.8483 23.0452 9.76158 22.8261 9.76158H22V4.82308C22 4.60479 21.913 4.39543 21.758 4.24108C21.6031 4.08672 21.393 4 21.1739 4H15.3913C15.1722 4 14.9621 4.08672 14.8072 4.24108C14.6523 4.39543 14.5652 4.60479 14.5652 4.82308V9.76158H13.7391C13.52 9.76158 13.3099 9.8483 13.155 10.0027C13.0001 10.157 12.913 10.3664 12.913 10.5847V15.5232C12.913 15.7415 13.0001 15.9508 13.155 16.1052C13.3099 16.2595 13.52 16.3462 13.7391 16.3462ZM16.2174 5.64617H20.3478V9.76158H16.2174V5.64617ZM14.5652 11.4077H22V14.7001H14.5652V11.4077Z" fill="white"/>
</svg>
