<svg width="44" height="45" viewBox="0 0 44 45" fill="none" xmlns="http://www.w3.org/2000/svg">
<path d="M34.3913 26.6354H31.087V25.5423C31.0859 24.0026 30.6213 22.4976 29.7513 21.2156C28.8814 19.9337 27.6448 18.9319 26.1965 18.3358C26.7251 17.7128 26.9963 16.9183 26.9565 16.109C26.9565 15.8943 26.8695 15.6883 26.7146 15.5365C26.5596 15.3846 26.3495 15.2993 26.1304 15.2993C25.9113 15.2993 25.7012 15.3846 25.5463 15.5365C25.3914 15.6883 25.3043 15.8943 25.3043 16.109C25.3043 17.5827 24.2883 17.7285 23.9909 17.7285H12.5743C11.3435 17.7285 11.2609 16.3763 11.2609 16.109C11.2609 15.8943 11.1738 15.6883 11.0189 15.5365C10.864 15.3846 10.6539 15.2993 10.4348 15.2993C10.2157 15.2993 10.0056 15.3846 9.85065 15.5365C9.69573 15.6883 9.6087 15.8943 9.6087 16.109C9.61167 16.9133 9.88131 17.6948 10.377 18.3358C8.92715 18.9306 7.68883 19.9319 6.81735 21.2139C5.94586 22.496 5.48002 24.0017 5.47826 25.5423V26.7488C4.77074 26.9278 4.14372 27.3317 3.69531 27.8973C3.24689 28.4628 3.00237 29.1581 3 29.8743V37.1618C3 37.3765 3.08703 37.5825 3.24196 37.7343C3.39688 37.8862 3.607 37.9715 3.82609 37.9715H5.77565C6.12295 38.9094 6.75643 39.7198 7.59001 40.2924C8.42359 40.8651 9.41685 41.1723 10.4348 41.1723C11.4527 41.1723 12.446 40.8651 13.2796 40.2924C14.1131 39.7198 14.7466 38.9094 15.0939 37.9715H28.9061C29.2534 38.9094 29.8869 39.7198 30.7204 40.2924C31.554 40.8651 32.5473 41.1723 33.5652 41.1723C34.5832 41.1723 35.5764 40.8651 36.41 40.2924C37.2436 39.7198 37.8771 38.9094 38.2243 37.9715H40.1739C40.393 37.9715 40.6031 37.8862 40.758 37.7343C40.913 37.5825 41 37.3765 41 37.1618V33.1132C40.9892 31.3985 40.2894 29.757 39.0524 28.5444C37.8154 27.3319 36.1407 26.646 34.3913 26.6354ZM7.13043 25.5423C7.13262 23.9001 7.79913 22.3258 8.98381 21.1646C10.1685 20.0034 11.7746 19.3501 13.45 19.3479H23.1152C24.7906 19.3501 26.3967 20.0034 27.5814 21.1646C28.7661 22.3258 29.4326 23.9001 29.4348 25.5423V26.6354H7.13043V25.5423ZM10.4348 39.591C9.67187 39.5907 8.93254 39.3317 8.34228 38.858C7.75202 38.3842 7.3472 37.7248 7.19652 36.9917C7.152 36.7813 7.12985 36.567 7.13043 36.3521C7.13043 35.7115 7.32423 35.0853 7.68732 34.5526C8.0504 34.02 8.56647 33.6049 9.17026 33.3597C9.77405 33.1146 10.4384 33.0504 11.0794 33.1754C11.7204 33.3004 12.3092 33.6089 12.7713 34.0618C13.2334 34.5148 13.5481 35.0919 13.6756 35.7202C13.8031 36.3485 13.7377 36.9997 13.4876 37.5915C13.2375 38.1834 12.814 38.6892 12.2706 39.0451C11.7272 39.401 11.0883 39.591 10.4348 39.591ZM33.5652 39.591C32.8023 39.5907 32.063 39.3317 31.4727 38.858C30.8825 38.3842 30.4776 37.7248 30.327 36.9917C30.2824 36.7813 30.2603 36.567 30.2609 36.3521C30.2609 35.7115 30.4547 35.0853 30.8178 34.5526C31.1808 34.02 31.6969 33.6049 32.3007 33.3597C32.9045 33.1146 33.5689 33.0504 34.2099 33.1754C34.8508 33.3004 35.4396 33.6089 35.9017 34.0618C36.3639 34.5148 36.6786 35.0919 36.8061 35.7202C36.9336 36.3485 36.8681 36.9997 36.618 37.5915C36.3679 38.1834 35.9444 38.6892 35.401 39.0451C34.8576 39.401 34.2188 39.591 33.5652 39.591ZM39.3478 36.3521H38.5217C38.5217 35.0636 37.9995 33.8278 37.07 32.9167C36.1405 32.0056 34.8798 31.4937 33.5652 31.4937C32.2507 31.4937 30.99 32.0056 30.0604 32.9167C29.1309 33.8278 28.6087 35.0636 28.6087 36.3521H15.3913C15.3913 35.0636 14.8691 33.8278 13.9396 32.9167C13.01 32.0056 11.7493 31.4937 10.4348 31.4937C9.12023 31.4937 7.85952 32.0056 6.92999 32.9167C6.00046 33.8278 5.47826 35.0636 5.47826 36.3521H4.65217V29.8743C4.65217 29.4448 4.82624 29.0329 5.13608 28.7292C5.44593 28.4255 5.86616 28.2549 6.30435 28.2549H34.3913C35.7059 28.2549 36.9666 28.7667 37.8961 29.6778C38.8256 30.5889 39.3478 31.8247 39.3478 33.1132V36.3521ZM13.7391 16.9188H22.8261C23.0452 16.9188 23.2553 16.8335 23.4102 16.6816C23.5651 16.5298 23.6522 16.3238 23.6522 16.109V11.2507C23.6522 11.036 23.5651 10.83 23.4102 10.6782C23.2553 10.5263 23.0452 10.441 22.8261 10.441H22V5.58267C22 5.36792 21.913 5.16196 21.758 5.01011C21.6031 4.85826 21.393 4.77295 21.1739 4.77295H15.3913C15.1722 4.77295 14.9621 4.85826 14.8072 5.01011C14.6523 5.16196 14.5652 5.36792 14.5652 5.58267V10.441H13.7391C13.52 10.441 13.3099 10.5263 13.155 10.6782C13.0001 10.83 12.913 11.036 12.913 11.2507V16.109C12.913 16.3238 13.0001 16.5298 13.155 16.6816C13.3099 16.8335 13.52 16.9188 13.7391 16.9188ZM16.2174 6.39239H20.3478V10.441H16.2174V6.39239ZM14.5652 12.0604H22V15.2993H14.5652V12.0604Z" fill="#0A1951"/>
</svg>
