<svg width="124" height="124" viewBox="0 0 124 124" fill="none" xmlns="http://www.w3.org/2000/svg">
<path d="M72.1625 71.4912C68.2049 71.4912 66.0349 70.9487 62.7024 69.5795L61.4675 69.0163L60.0674 77.1538C62.475 78.1458 66.815 78.9983 71.3049 79.0655C81.85 79.0655 88.7424 74.1727 88.825 66.6448C88.9077 62.5063 86.19 59.365 80.4499 56.7765C76.9675 55.0973 74.7975 53.971 74.7975 52.266C74.7975 50.7573 76.6524 49.1505 80.5274 49.1505C83.8599 49.0988 86.19 49.8067 88.0449 50.5403L88.9749 50.9537L90.375 43.09L90.1322 43.1417C88.1327 42.3977 85.0172 41.6072 81.1422 41.6072C71.2222 41.6072 64.2214 46.5362 64.1697 53.599C64.1077 58.7915 69.1504 61.7158 72.9582 63.457C76.8694 65.2395 78.1765 66.3607 78.1662 67.9623C78.1404 70.3958 75.0404 71.4912 72.1625 71.4912ZM115.878 42.2737H108.128C105.715 42.2737 103.912 42.9195 102.853 45.2858L87.9467 78.5592H98.4919L100.6 73.1135L113.465 73.1238C113.78 74.3948 114.705 78.5592 114.705 78.5592H124L115.878 42.2737ZM103.488 65.6683L107.487 55.5262C107.435 55.6295 108.314 53.4285 108.82 52.0645L109.507 55.1955L111.827 65.6683H103.488Z" fill="#0A1951"/>
<path d="M43.627 78.2698H53.6709L59.9485 41.9688H49.9096V41.9585L43.627 78.2698Z" fill="#0A1951"/>
<path d="M25.4355 67.0168L24.3918 61.9741V61.9896L20.8682 45.322C20.2637 43.0125 18.4967 42.3305 16.306 42.2478H0.129167L0 43.0125C3.6425 43.865 6.92333 45.0998 9.858 46.6136C10.385 46.9391 10.6072 47.2956 10.788 47.8226L19.468 78.5075H30.0803L45.8955 42.2736H35.2573L25.4355 67.0168Z" fill="#0A1951"/>
</svg>
